<?xml version="1.0" encoding="UTF-8"?>
<svg version="1.1" viewBox="0 0 2048 1365" width="6000" height="3000" xmlns="http://www.w3.org/2000/svg">
<path transform="translate(554,444)" d="m0 0h34l8 16 18 37 13 28 13 27 13 28 14 29 9 19v2h2l1-5 13-27 13-28 13-27 13-28 14-29 13-28 7-14h34l2 2v338l-1 1h-38l-1-1-1-232-16 33-12 26-14 29-13 28-13 27-11 23-2 5-5-1-14-30-15-31-13-28-17-35-13-28-9-19-1 233-1 1h-38l-1-2v-337z" fill="#fff"/>
<path transform="translate(857,444)" d="m0 0h89l17 4 16 7 12 7 15 13 12 14 9 15 7 17 4 16 2 23-2 25-4 15-4 11-9 17-9 12-14 15-13 11-5 3h-2l65 110 1 1v5l-1 1h-49l-8-13-13-23-12-21-13-23-12-21-3-5v-2h-34v106l-2 2h-39l-3-3v-337zm42 48v138h40l14-3 12-6 9-7 9-11 6-10 4-10 2-9 1-9v-9l-2-14-4-11-6-11-8-10-9-8-14-7-13-3z" fill="#fff"/>
<path transform="translate(1366,452)" d="m0 0h10l15 2 14 4 17 9 10 8 6 5 7 8 9 12 7 12 7 18 4 18 1 8v128l-3 18-7 21-8 15-9 12-11 12-11 9-14 8-13 5-15 3h-22l-18-4-16-7-14-10-15-15-10-14-8-16-5-14-4-20-1-14v-107l2-21 5-19 7-16 7-12 11-14 9-9 14-10 14-7 13-4zm-5 46-13 4-11 7-10 9-9 13-5 11-4 16v123l3 14 5 12 7 11 7 8 12 9 11 5 10 2h15l12-3 12-6 12-11 9-12 6-13 3-12 1-8v-115l-3-16-5-13-8-12-12-12-10-6-10-4-5-1z" fill="#fff"/>
<path transform="translate(1167,448)" d="m0 0h12l13 2 15 5 12 7 10 8 8 8 11 15 9 19 4 15 2 14v23l-3 18-6 18-9 17-10 13-11 12-9 10-12 11-14 12-30 26-10 9-7 6-9 12-4 9 134 1v44h-179l-1-4 5-29 5-20 7-20 9-17 7-9 10-10 11-9 10-9 11-9 11-10 11-9 15-15 9-11 8-10 7-14 4-16v-18l-3-13-7-14-11-12-10-6-9-3-13-1-14 3-12 7-7 7-7 12-5 16-3 20-1 3-5-1-32-13-1-1 1-12 5-19 5-13 6-12 9-12 8-9 13-10 14-7 15-4z" fill="#fff"/>
<path transform="translate(1564,448)" d="m0 0h12l13 2 15 5 12 7 11 9 7 7 11 15 8 17 5 17 2 14v22l-3 19-6 18-9 17-10 13-11 12-10 11-8 7-11 10-11 9-11 10-11 9-13 12-7 6-8 10-5 10v1l134 1v44h-179l-1-4 5-29 6-24 8-20 7-13 7-9 10-10 11-9 10-9 11-9 11-10 8-7 10-9 7-7 7-8 11-14 7-14 3-10 1-7v-16l-3-14-7-14-11-12-10-6-9-3-13-1-14 3-12 7-7 7-6 10-5 14-3 15-2 12-5-1-32-13-1-1 1-12 5-19 6-16 9-15 12-14 14-11 14-7 14-4z" fill="#fff"/>
<path transform="translate(1778,452)" d="m0 0h32l1 1v196h24l1 1v43h-25v88l-1 1h-37l-1-1v-88h-116l2-6 12-23 35-70 10-19 37-74 10-19 14-28zm-7 102-22 43-10 19-16 31v2h49v-95z" fill="#fff"/>
<path transform="translate(448,444)" d="m0 0h45l1 1v281l-3 14-5 13-8 11-10 10-13 8-14 5-6 1h-23l-15-4-13-7-13-11-8-11-6-12-4-14-1-8v-10l32-11 6-1 3 7 5 17 5 10 7 5 10 2 10-1 10-5 4-7 2-10 1-271z" fill="#fff"/>
<path transform="translate(335,420)" d="m0 0h20l17 2 21 5 19 7 14 8v36l-5-2-9-6-15-7-18-6-16-3-9-1h-17l-20 3-24 8-19 10-14 10-12 11-10 13-9 16-6 16-5 20-1 6v33l3 16 5 16 9 17 9 13 9 11 5 6 11 9 15 10 16 7 16 5 24 4 8 32v2l-17-1-20-3-17-5-17-7-17-10-14-10-10-9-7-7-11-14-10-14-10-18-6-15-5-20-2-11v-29l5-27 5-19 6-16 7-14 11-16 14-15 13-11 18-13 14-8 17-7 18-5 12-2z" fill="#6740A8"/>
<path transform="translate(156,480)" d="m0 0 4 2 9 10 5 6-1 5-10 19-8 21-5 22-1 8v29l3 17 4 15 8 19 10 18 10 14 6 8-1 4-14 19h-3l-8-9-9-12-10-15-12-23-7-19-5-23-2-26 2-24 5-23 7-21 11-23 11-17z" fill="#DA2328"/>
<path transform="translate(323,359)" d="m0 0h35l22 4 18 5 24 10 16 9 16 11-1 3-11 9-7 6-6-2-14-8-17-8-15-5-25-5h-30l-22 4-18 6-21 10-19 12-8 6-4-1-14-11-6-4v-2l17-13 20-13 16-8 20-8 21-5z" fill="#DA2328"/>
<path transform="translate(343,497)" d="m0 0h15l18 4 12 5 14 9 5 6-16 11-5 1-11-7-12-4-7-1h-12l-12 3-9 4-6 2-10-9-6-5 1-3 14-8 16-6z" fill="#DA2328"/>
<path transform="translate(387,632)" d="m0 0 5 2 13 9 2 1-2 4-13 10-14 7-14 4-15 1-14-1-15-4-14-7-4-3 2-4 12-12 3-1 11 5 12 3h16l14-4 13-8z" fill="#DA2328"/>
<path transform="translate(281,532)" d="m0 0 5 4 7 8 4 4-2 5-6 13-2 9v18l3 11 7 13-1 4-8 8-7 5-7-9-7-15-4-15v-22l5-19 7-14z" fill="#DA2328"/>
<path transform="translate(133,823)" d="m0 0h10l10 16 9-15 1-1h9l-1 5-10 17-2 5 16 28v3h-9l-8-13-4-7v-2l-3 3-11 19h-9l-1-2 16-28-1-5-10-18z" fill="#fff"/>
<path transform="translate(514,903)" d="m0 0 5 1 15 26 4 7 3-3 16-28 2-3 5 1v56l-4 1-1-1-1-44-14 24-4 7-4-2-10-18-7-12-1 46-5-1v-55z" fill="#fff"/>
<path transform="translate(1359,903)" d="m0 0 5 1 13 23 6 10 4-5 13-23 4-6 5 1v56l-5 1-1-46-14 25-5 7h-2l-10-18-8-14-1 45-4 1-1-1v-56z" fill="#fff"/>
<path transform="translate(514,821)" d="m0 0 5 1 14 24 6 9 15-26 5-8 5 1v56l-4 1-1-1-1-45-10 18-8 13h-3l-15-26-3-5-1 45h-4l-1-1v-55z" fill="#fff"/>
<path transform="translate(1717,903)" d="m0 0h4l15 26 4 7v2l3-3 13-23 6-9 4 1v57h-4l-1-46-15 26-4 6h-2l-15-26-3-5-1 44-4 1-1-1v-56z" fill="#fff"/>
<path transform="translate(969,903)" d="m0 0h15l10 5 8 9 3 7v16l-5 10-9 8-7 3h-16l-10-5-8-9-3-8v-14l3-8 8-9 7-4zm6 4-9 2-6 4-6 7-2 5v14l4 8 8 7 10 3 10-1 8-5 6-7 2-4 1-10-2-8-4-6-7-6-10-3z" fill="#fff"/>
<path transform="translate(1183,840)" d="m0 0h12l6 3 3 2v-2h5v29l-3 9-8 7-6 2-10-1-9-6 1-4h4v2l9 3 8-1 6-5v-2l-5 3h-13l-7-4-5-6-2-6v-7l3-8 7-6zm1 5-6 4-3 4-1 3v7l3 6 5 4 8 2 7-2 6-7 1-2v-9l-4-6-3-3-3-1z" fill="#fff"/>
<path transform="translate(823,821)" d="m0 0 5 1v56l-4 1-1-5-8 5h-13l-7-4-5-6-2-6v-7l3-7 5-6 6-3h12l6 3 3 2zm-20 24-6 4-3 4-1 10 3 6 5 4 2 1h11l7-6 2-4v-9l-4-6-3-3-3-1z" fill="#fff"/>
<path transform="translate(824,903)" d="m0 0 4 1v56l-4 1-2-4-7 4-10 1-8-3-7-8-2-6v-7l4-9 8-6 3-1h11l8 5 1-23zm-20 24-7 4-4 8 1 9 6 7 5 2 9-1 6-4 3-6v-9l-4-6-6-4z" fill="#fff"/>
<path transform="translate(423,903)" d="m0 0 4 1v56l-4 1-2-4-6 4-4 1h-7l-7-3-6-5-3-6v-13l4-6 7-6 3-1h11l6 3 2 2 1-23zm-20 24-6 4-4 5v11l4 6 4 3 9 1 7-3 4-5 1-2v-11l-6-7-4-2z" fill="#fff"/>
<path transform="translate(908,821)" d="m0 0h17l7 3 5 5 3 5v12l-5 8-7 5 11 17-1 3-4-1-7-10-5-8-9-1v19l-4 1-1-1zm5 5v28h13l6-4 3-4 1-7-3-8-5-4-3-1z" fill="#fff"/>
<path transform="translate(1272,903)" d="m0 0h16l9 4 6 8 1 3v8l-3 7-5 5-5 2 10 16 2 4-5 1-7-10-6-9h-8l-1 19-5-1v-56zm4 5v28l1 1h10l8-4 3-4 1-3v-8l-4-6-4-3-3-1z" fill="#fff"/>
<path transform="translate(423,821)" d="m0 0 4 1v56l-4 1-2-4-7 4h-13l-8-5-5-8v-13l6-9 7-4h13l7 4 1-22zm-21 24-6 4-3 5v11l4 6 5 3h11l6-4 3-5v-11l-4-6-5-3z" fill="#fff"/>
<path transform="translate(1030,821)" d="m0 0h4v57l-3 1-2-1-1-3-7 4h-13l-8-5-4-6-1-3v-11l3-6 8-7 3-1h12l7 4 1-22zm-21 24-8 7-1 3v9l3 5 6 5h11l6-4 3-5v-11l-4-6-5-3z" fill="#fff"/>
<path transform="translate(1677,903)" d="m0 0h16l10 5 4 5 2 7-1 9-4 6-6 5h-2l11 18v3l-5-1-12-18h-8l-1 18-4 1-1-1v-56zm4 5v29h10l8-3 4-5 1-3v-7l-4-7-7-4z" fill="#fff"/>
<path transform="translate(1233,903)" d="m0 0h12l6 3 3 4v9l-2 3 8 7 3 7v9l-3 7-4 5-5 3-4 1h-14zm4 5v12l1 1h7l5-4-1-6-4-3zm0 18v30h10l7-4 4-7v-8l-3-6-5-4-2-1z" fill="#fff"/>
<path transform="translate(1460,903)" d="m0 0 12 1 10 4 8 9 3 7 1 10-2 9-5 8-7 6-7 3-6 1h-8v-57zm4 5v48l9-1 7-4 6-7 3-9-1-11-5-8-6-5-10-3z" fill="#fff"/>
<path transform="translate(1799,903)" d="m0 0h14l12 6v4l-3 1-9-5h-14l-8 4-6 7-3 9v7l4 10 8 7 9 3 10-1 6-3h2v-18l5 1v18l-6 5-7 3h-15l-10-5-7-7-4-9-1-10 2-9 5-8 8-7z" fill="#fff"/>
<path transform="translate(1074,903)" d="m0 0 4 1 1 43 4 6 4 2h10l5-3 3-6 1-42 4-1 1 1v42l-4 8-7 6-3 1h-11l-8-5-5-8v-44z" fill="#fff"/>
<path transform="translate(727,922)" d="m0 0h11l6 3 2 2 1-2h5v35l-4 1-2-4-6 4-4 1h-7l-8-3-7-8-2-10 2-8 4-6 6-4zm1 5-5 3-5 6-1 7 3 8 6 5 9 1 8-4 4-6v-10l-3-5-5-4-2-1z" fill="#fff"/>
<path transform="translate(451,922)" d="m0 0h11l9 4 5-1v36l-5-1-1-3-6 4-4 1h-7l-9-4-5-6-2-4v-12l3-6 8-7zm1 5-6 4-4 6v10l4 6 8 4 9-1 6-5 2-3v-12l-7-8-3-1z" fill="#fff"/>
<path transform="translate(1249,840)" d="m0 0h13l8 5v-2h5v35l-4 1-2-4-7 4h-13l-8-5-4-5-2-7 1-9 5-8zm1 5-6 4-4 8 1 8 4 6 5 3h11l5-3 4-6v-10l-3-5-6-5z" fill="#fff"/>
<path transform="translate(726,840)" d="m0 0h13l7 4 1-1h5v35l-4 1-2-4-7 4h-13l-8-5-5-8-1-8 3-9 4-5zm1 5-7 5-3 8 2 9 4 5 4 2h11l6-4 3-5v-11l-4-6-5-3z" fill="#fff"/>
<path transform="translate(959,840)" d="m0 0h13l7 4 1-1h5v35l-4 1-2-4-7 4h-13l-9-6-4-7v-13l6-9zm1 5-6 4-3 5v11l4 6 5 3h11l6-4 3-5v-11l-4-6-5-3z" fill="#fff"/>
<path transform="translate(450,840)" d="m0 0h13l7 4 1-1h5v35l-3 1-2-1-1-3-7 4h-13l-9-6-4-8v-11l3-6 5-5zm1 5-8 7-1 2v11l4 6 5 3h11l6-4 3-5v-11l-4-6-5-3z" fill="#fff"/>
<path transform="translate(909,903)" d="m0 0h15l8 3 7 8 1 3v11l-3 6-7 6-3 1h-14v19l-4 1-1-1v-56zm4 5v29h10l7-3 5-6 1-7-3-7-6-5-3-1z" fill="#fff"/>
<path transform="translate(1328,903)" d="m0 0h3l20 55-1 3h-4l-8-21h-17l-8 21-5-1 3-10zm1 12-6 16v4h13l-1-7-5-13z" fill="#fff"/>
<path transform="translate(1037,903)" d="m0 0h14l9 4 4 3-2 4-5-2-6-3h-14l-8 4-6 7-3 10 1 10 5 8 6 5 4 2 10 1 10-3 5-3 3 4-9 6-4 1h-15l-10-5-8-9-3-7v-16l5-10 9-8z" fill="#fff"/>
<path transform="translate(1203,903)" d="m0 0h2l14 38 6 16v4l-5-1-7-19v-2l-18 1-7 19-1 2-5-1 9-26 11-30zm0 13-6 16v3h14l-3-10-3-9z" fill="#fff"/>
<path transform="translate(352,840)" d="m0 0h12l9 5v-2l5 1v33l-4 2-1-5-6 4-3 1h-12l-6-3-6-7-2-5v-9l4-8 7-6zm1 5-6 4-3 4-1 3v8l4 6 5 4h11l5-3 4-5 1-3v-7l-3-6-5-4-2-1z" fill="#fff"/>
<path transform="translate(353,922)" d="m0 0h10l8 4 1 1 1-2 5 1v33l-1 2h-4v-5l-8 5-10 1-8-3-5-5-4-8v-9l4-8 6-5zm0 5-6 4-3 4-1 3v8l4 6 5 4 9 1 6-3 5-6 1-2v-8l-4-7-6-4z" fill="#fff"/>
<path transform="translate(1581,922)" d="m0 0h11l8 5v4l-22 22 2 2 9 1 8-4 3-1 2 1-1 4-5 4-6 2h-7l-8-3-7-8-2-6 1-10 6-9zm1 5-7 4-4 8 1 9h4l18-18-3-3z" fill="#fff"/>
<path transform="translate(850,840)" d="m0 0h12l6 3 3 3-2 4-21 21 3 2h11l5-4 5 1-2 4-5 4-2 1h-13l-7-4-5-6-2-6v-7l3-8 8-7zm1 5-6 4-4 7v7l2 4 4-2 17-17v-2l-3-1z" fill="#fff"/>
<path transform="translate(642,840)" d="m0 0h13l8 5v3l-22 22v2l2 1h11l6-4 5 1-2 4-8 5h-13l-9-6-4-8v-11l4-8zm1 5-8 7-1 2v11l1 2 4-2 17-17v-2l-2-1z" fill="#fff"/>
<path transform="translate(851,922)" d="m0 0h11l8 5v4l-22 22 2 2 9 1 8-4 3-1 2 1-1 4-8 5-10 1-8-3-7-8-2-6v-7l3-7 4-5zm1 5-7 4-4 8 1 9 2 2 20-20-3-3z" fill="#fff"/>
<path transform="translate(1420,903)" d="m0 0h28l1 5-24 1v20l24 1v4l-24 1-1 21h25l-1 5h-28z" fill="#fff"/>
<path transform="translate(1503,903)" d="m0 0h28l1 5h-25l1 21 24 1v4l-24 1-1 21h25l-1 5h-28z" fill="#fff"/>
<path transform="translate(643,922)" d="m0 0h11l8 4 2 3-23 23v2l5 2 9-1 5-4 5 1-2 4-5 4-6 2h-7l-9-4-5-6-2-4v-12l3-6 8-7zm1 5-6 4-4 6v10l1 2 4-1 17-17v-3l-3-1z" fill="#fff"/>
<path transform="translate(1647,903)" d="m0 0h9l6 4 1 5-4 1-3-4-5-1-5 2-1 2v6l5 5 11 6 5 5 3 6v8l-4 8-5 4-3 1h-11l-6-4-4-4-1-7 4-1 4 8 7 3 7-1 5-4 1-2v-9l-4-6-15-8-4-5-1-2v-7l3-5z" fill="#fff"/>
<path transform="translate(1135,840)" d="m0 0h13l9 6 4 7v13l-6 9-7 4h-13l-8-5-5-8v-13l6-9zm1 5-6 4-3 5v11l4 6 5 3h11l6-4 3-5v-11l-4-6-5-3z" fill="#fff"/>
<path transform="translate(1074,840)" d="m0 0h12l8 5 4 5 2 7-1 9-4 7-6 5-3 1h-13l-8-5-4-6-1-3v-11l3-6 8-7zm0 5-8 7-1 3v9l3 5 6 5h11l6-4 3-4 1-9-4-8-6-4z" fill="#fff"/>
<path transform="translate(243,922)" d="m0 0h10l8 4 6 8 1 4v8l-4 8-7 6-6 2-10-1-8-5-4-6-1-3v-10l4-8 6-5zm0 5-6 4-4 6v9l4 7 8 4 9-1 7-6 2-5v-7l-4-7-7-4z" fill="#fff"/>
<path transform="translate(242,840)" d="m0 0h12l7 4 5 6 2 6v7l-3 8-8 7-3 1h-13l-6-4-5-6-2-5v-9l4-8 7-6zm1 5-5 3-4 5-1 2v9l4 6 5 4h11l6-4 3-4 1-3v-7l-3-6-5-4-2-1z" fill="#fff"/>
<path transform="translate(1131,903)" d="m0 0h9l6 5 1 4-4 1-2-4-7-1-5 3-1 6 2 4 15 8 6 7 2 6-1 8-4 6-5 4-2 1h-11l-7-4-5-8v-3l4-1 5 8 6 3 8-1 5-5 1-9-3-5-5-4-11-6-5-6v-9l4-6z" fill="#fff"/>
<path transform="translate(148,905)" d="m0 0h8v58h-9v-57z" fill="#fff"/>
<path transform="translate(601,923)" d="m0 0h9l5 3 4 5 1 2v27l-4 1-1-1-1-26-5-5h-8l-4 4-1 28-5-1v-34l5-1z" fill="#fff"/>
<path transform="translate(600,841)" d="m0 0h11l6 4 3 6v27l-4 1-1-1-1-27-1-3-9-2-6 3-1 2-1 27h-4l-1-1v-33z" fill="#fff"/>
<path transform="translate(309,923)" d="m0 0h9l7 4 3 6v28l-5-1-1-27-4-4h-8l-5 5-1 27h-4v-36l7-1z" fill="#fff"/>
<path transform="translate(309,841)" d="m0 0h10l6 4 3 5v28l-3 1-2-1-1-27-4-4-6-1-6 2-1 3-1 27h-4v-35z" fill="#fff"/>
<path transform="translate(215,821)" d="m0 0h4v51l-5 6-2 1h-7l-6-4-2-7 4-1 2 6h10l1-51z" fill="#fff"/>
<path transform="translate(215,903)" d="m0 0 4 1v50l-3 5-4 2h-8l-5-4-2-6 4-1 3 5 4 1 5-2 1-50z" fill="#fff"/>
<path transform="translate(1109,821)" d="m0 0h4v57l-4 1-1-1v-56z" fill="#fff"/>
<path transform="translate(703,924)" d="m0 0h3v5l-6 3-4 8-1 21-5-1v-34l5-1 1 3z" fill="#fff"/>
<path transform="translate(289,924)" d="m0 0h3v5l-6 3-4 8-1 21-5-1v-34l5-1 1 3z" fill="#fff"/>
<path transform="translate(702,842)" d="m0 0h4v5l-6 3-4 8-1 20h-4l-1-1v-33l5-1 1 3z" fill="#fff"/>
<path transform="translate(288,842)" d="m0 0h4v5l-6 3-3 4-1 4-1 20-3 1-2-1v-34l5-1 1 3z" fill="#fff"/>
<path transform="translate(675,925)" d="m0 0h4v36l-5-1v-34z" fill="#fff"/>
<path transform="translate(576,925)" d="m0 0h4v36l-5-1v-34z" fill="#fff"/>
<path transform="translate(1220,843)" d="m0 0h5v35l-4 1-1-1z" fill="#fff"/>
<path transform="translate(1046,843)" d="m0 0h4v35h-4l-1-1v-33z" fill="#fff"/>
<path transform="translate(675,843)" d="m0 0h4v35h-4l-1-1v-33z" fill="#fff"/>
<path transform="translate(576,843)" d="m0 0h4v35h-4l-1-1v-33z" fill="#fff"/>
<path transform="translate(675,913)" d="m0 0 5 1 1 4-3 3-5-2 1-5z" fill="#fff"/>
<path transform="translate(576,913)" d="m0 0 5 1 1 4-3 3-5-2 1-5z" fill="#fff"/>
<path transform="translate(1045,831)" d="m0 0h5l2 2-1 4-1 1h-5l-1-1v-5z" fill="#fff"/>
<path transform="translate(674,831)" d="m0 0h5l2 2-1 4-1 1h-5l-1-1v-5z" fill="#fff"/>
<path transform="translate(575,831)" d="m0 0h5l2 2-1 4-1 1h-5l-1-1v-5z" fill="#fff"/>
<path transform="translate(1220,831)" d="m0 0h5l2 4-2 3h-5l-1-1v-5z" fill="#fff"/>
</svg>
