<?xml version="1.0" encoding="UTF-8" standalone="no"?><svg xmlns="http://www.w3.org/2000/svg" xmlns:xlink="http://www.w3.org/1999/xlink" fill="#BB2426" height="512" preserveAspectRatio="xMidYMid meet" version="1" viewBox="46.5 0.0 418.9 512.0" width="418.9" zoomAndPan="magnify"><g id="change1_1"><path d="M417.18,393.698c-25.036-10.001-58.991-17.511-96.755-21.488c48.852-65.902,102.936-149.914,102.936-204.85 C423.36,75.077,348.283,0,256,0C163.718,0,88.641,75.077,88.641,167.36c0,33.848,21.286,83.552,63.265,147.731 c12.876,19.686,26.598,39.078,39.894,57.095c-37.823,3.968-71.836,11.477-96.917,21.486c-39.953,15.944-48.34,34.245-48.34,46.79 C46.543,486.928,154.46,512,256,512c101.54,0,209.458-25.072,209.458-71.537C465.457,427.927,457.081,409.637,417.18,393.698z M104.641,167.36C104.641,83.9,172.54,16,256,16s151.36,67.9,151.36,151.36c0,31.019-20.127,77.537-59.822,138.261 c-31.46,48.126-67.997,94.129-91.534,123.481C209.064,370.453,104.641,237.152,104.641,167.36z M249.76,446.895 c1.519,1.893,3.814,2.994,6.24,2.994s4.722-1.101,6.24-2.994l2.36-2.941c5.12-6.379,10.984-13.686,17.366-21.736 c39.759,3.383,55.689,13.105,56.985,16.419c-0.657,1.58-5.967,6.504-23.082,10.958c-16.232,4.224-37.494,6.55-59.869,6.55 s-43.636-2.326-59.869-6.55c-17.115-4.454-22.424-9.378-23.081-10.958c1.295-3.316,17.239-13.043,57.032-16.423 C237.564,431.694,244.255,440.033,249.76,446.895z M396.045,477.761C358.752,489.522,309.017,496,256,496 c-53.017,0-102.752-6.478-140.045-18.239c-33.445-10.548-53.412-24.492-53.412-37.298c0-20.391,52.434-45.628,140.455-53.282 c5.316,7.037,10.5,13.793,15.462,20.186c-24.065,3.007-61.441,10.954-61.441,31.272c0,26.448,62.218,33.505,98.982,33.505 s98.982-7.057,98.982-33.505c0-20.293-37.298-28.246-61.343-31.26c5.002-6.412,10.21-13.161,15.541-20.183 c87.909,7.673,140.276,32.898,140.276,53.266C449.457,453.27,429.49,467.213,396.045,477.761z M341.209,167.166 c0-46.984-38.225-85.209-85.209-85.209c-46.985,0-85.21,38.225-85.21,85.209c0,46.985,38.225,85.209,85.21,85.209 C302.985,252.375,341.209,214.151,341.209,167.166z M256,236.375c-38.163,0-69.21-31.047-69.21-69.209S217.838,97.957,256,97.957 c38.162,0,69.209,31.047,69.209,69.209S294.163,236.375,256,236.375z"/></g></svg>