<?xml version="1.0" encoding="UTF-8"?>
<svg version="1.1" viewBox="0 0 2048 740" width="401" height="145" xmlns="http://www.w3.org/2000/svg">
<path transform="translate(87,28)" d="m0 0h1878l13 4 12 6 11 9 9 12 6 12 3 10 1 11v436l-2 17-6 15-7 11-9 9-11 7-8 4-11 3-8 1h-1865l-15-3-14-7-11-9-7-8-8-14-4-15-1-12v-427l1-17 3-12 6-12 7-9 10-10 17-9z" fill="#193872"/>
<path transform="translate(1502,160)" d="m0 0h119l17 2 17 5 14 7 10 8 8 8 9 14 6 14 3 13 2 16v26l-3 20-5 17-9 17-6 8-6 7-11 8-17 8-14 3-31 2h-103l-1-3v-199z" fill="#FDFDFD"/>
<path transform="translate(383,158)" d="m0 0 133 1 23 2 10 3 9 6 6 9 3 12v48l-3 7-7 6-5 4 1 5 9 8 5 10 1 6v45l-2 9-6 9-8 7-11 5-9 2h-149l-1-118v-85z" fill="#59A304"/>
<path transform="translate(1743,147)" d="m0 0h59l111 1 5 4 1 3 1 29-1 16-5 5-3 1-14 1h-112l1 21h70l5 2 2 4 1 34-1 13-5 4-2 1-16 1h-55l1 14v11h105l22 1 6 3 1 1 1 10v36l-1 7-6 5-4 1h-177l-7-3-4-5-1-5v-205l2-6 3-3 3-1z" fill="#DF4960"/>
<path transform="translate(600,159)" d="m0 0h141l14 2 9 3 8 6 6 10 3 9 1 6v61l-3 13-5 8-8 7-9 4-8 2h-21l3 5 18 18v2l4 2 9 10 24 24 8 7 2 4-1 1-11 1h-43l-5-3-13-15-12-14-10-11-9-11-13-14-5-5-3-1h-25l-1 73-11 1h-34l-1-23v-181z" fill="#D0A305"/>
<path transform="translate(1089,159)" d="m0 0 5 2 4 5 16 25 11 17 17 26 23 35 7 11 3-1 32-50 15-24 14-22 14-21 2-2h30l1 1v201l-1 1h-35l-1-2v-140l-8 16-12 20-12 19-30 48-10 14-3 3-4-2-10-14-16-26-12-19-26-42-9-17-1 141-1 1h-30l-1-15v-184l1-4z" fill="#FDFDFD"/>
<path transform="translate(229,160)" d="m0 0h36l6 9 18 38 14 29 16 34 22 45 12 26 9 18v3l-2 1h-41l-8-16-12-27-1-1h-107l-16 37-3 6-1 1h-37l-1-3 14-29 11-24 17-36 18-38 13-28 13-27 8-16z" fill="#FDFDFD"/>
<path transform="translate(936,159)" d="m0 0 5 1 5 6 14 29 13 28 17 35 13 28 12 24 13 28 10 21v3l-3 1h-38l-3-3-8-16-11-25h-107l-8 17-10 23-3 4h-38l2-6 11-23 13-28 19-40 18-38 14-30 14-29 5-8 1-1z" fill="#FDFDFD"/>
<path transform="translate(1305,160)" d="m0 0h172l1 1v32l-1 1-132 1v44l76 1 1 1v33l-2 1h-76v50h135l1 1v36l-3 1h-171l-1-1-1-83v-117z" fill="#FDFDFD"/>
<path transform="translate(1586,195)" d="m0 0h16l19 1 15 4 11 6 7 7 7 12 4 12 2 13v20l-3 17-5 11-6 9-8 7-13 6-17 4-8 1h-66v-128l1-1z" fill="#193872"/>
<path transform="translate(1743,147)" d="m0 0h59l111 1 5 4 1 3 1 29-1 16-5 5-3 1-14 1h-112l1 21h70l5 2 2 4 1 34-1 13-5 4-2 1-16 1h-55l1 14v11h105l22 1 6 3 1 1 1 10v36l-1 7-6 5-4 1h-177l-7-3-4-5-1-5v-205l2-6 3-3 3-1zm-9 12-1 1v136l1 67h175v-38l-134-1-1-1-1-48h77l1-1 1-34-10-1h-69v-44h112l21-1 1-1 1-32-1-2z" fill="#FDFDFD"/>
<path transform="translate(991,645)" d="m0 0 3 1v88h-16l-1-61-9 10-14 19-6 7-5-3-24-32-2-3v25l-1 38h-16v-88h19l5 5 13 18 7 10 5 5 2-5 14-20 9-12 2-1z" fill="#1A3872"/>
<path transform="translate(669,202)" d="m0 0h57l8 1 2 2v41l-1 1-8 1h-80l-2-1v-42l1-2z" fill="#183772"/>
<path transform="translate(1656,645)" d="m0 0h37l15 1 10 4 5 5 4 5 3 7v17l-5 10-7 6-5 2h-5l7 8 12 14 7 8v2h-18l-7-6-7-8-9-10-4-4-5-1h-11l-1 29h-16l-1-26v-58zm17 16-1 1v27h32l6-3 3-6v-10l-3-6-3-2-5-1z" fill="#1D3973"/>
<path transform="translate(55,645)" d="m0 0h37l15 1 10 4 7 7 4 8 1 3v16l-5 10-7 6-6 2h-4l7 8 12 14 7 9v1h-19l-11-11-9-11-4-5-7-2-12-1v30h-16l-1-51v-20zm17 16-1 1v27h31l5-2 5-6v-12l-4-6-3-1-13-1z" fill="#1C3973"/>
<path transform="translate(1082,645)" d="m0 0 13 2 8 9 11 14 13 16 10 13v-53h18v88l-1 1-9-1-5-4-8-10-10-13-13-16-11-15-1 58h-17v-88z" fill="#1A3873"/>
<path transform="translate(427,279)" d="m0 0h95l1 1 1 18v20l-4 1-16 1h-76l-2-2v-35z" fill="#183772"/>
<path transform="translate(541,645)" d="m0 0 11 1 5 3 11 14 13 16 7 9 9 12v-28l1-27h13l3 1v88l-1 1-9-1-10-11-10-13-13-16-12-16-3-3 1 15-1 44h-16v-88z" fill="#1D3872"/>
<path transform="translate(159,645)" d="m0 0h65l1 1v15l-1 1h-49v20h47l1 1v14l-22 1h-25l-1 20h50v16h-66l-1-1v-87z" fill="#1C3872"/>
<path transform="translate(453,644)" d="m0 0h18l9 2 11 6 8 8 7 14 2 9v17l-3 10-6 10-5 6-9 6-8 3-7 1h-16l-13-3-8-5-5-4-7-11-4-11-1-6v-10l3-14 6-11 9-9 8-5zm3 15-10 4-5 4-6 10-2 8v12l3 10 5 7 7 5 6 2 11 1 9-2 8-5 6-7 2-5 1-6v-15l-3-9-6-8-9-5-4-1z" fill="#1B3873"/>
<path transform="translate(292,643)" d="m0 0h15l11 3 12 7 2 4-6 9-6-1-11-5-4-1h-11l-10 4-8 7-5 10-1 6v10l3 10 4 6 6 5 9 3h14l10-4 4-5v-12l-22-1-1-1v-13l1-1h37l1 11v22l-3 7-4 5-8 5-12 3h-19l-15-4-10-7-8-11-4-11-1-7v-11l3-13 6-11 6-7 11-7 8-3z" fill="#1B3872"/>
<path transform="translate(1558,645)" d="m0 0h66v17h-49v16l-1 4h49v15l-28 1h-17l-3-1-1 21h50v16h-66z" fill="#1B3872"/>
<path transform="translate(1482,643)" d="m0 0h15l13 3 11 7 2 4-6 8-3 2-12-6-8-2h-8l-9 3-6 4-6 8-4 13v10l3 9 6 8 9 5 4 1h14l9-4 4-4v-12l-1-1-21-1v-14l4-1h34l1 28-2 10-7 8-10 5-9 2h-19l-12-3-9-6-7-7-7-14-1-4v-21l4-13 6-9 8-8 12-6z" fill="#1A3872"/>
<path transform="translate(1231,645)" d="m0 0h5l4 5 10 23 17 38 9 20v3h-18l-3-7-3-8h-48l-6 14-1 1h-17l1-6 13-28 13-30 8-18 3-6zm-4 21-5 10-11 25v1h33l-2-6-10-24-4-6z" fill="#1A3872"/>
<path transform="translate(1804,645)" d="m0 0 6 2 4 8 24 54 10 22v3h-17l-3-4-4-11h-48l-6 14-1 1h-18l4-10 18-40 11-25 5-12 1-1zm-5 21-6 12-9 21-1 3h33l-8-21-7-14z" fill="#1A3872"/>
<path transform="translate(689,645)" d="m0 0h7l3 3 7 17 18 40 11 26v3h-16l-3-4-4-10-1-1-48-1-3 9-3 7h-18l2-6 11-25 16-36 7-17 4-4zm-2 20-6 12-9 21-1 4h32l-3-10-10-24z" fill="#1A3873"/>
<path transform="translate(429,200)" d="m0 0h83l10 1 1 11v25l-9 1h-80l-7-1v-36z" fill="#183772"/>
<path transform="translate(1331,642)" d="m0 0h9l14 3 8 5 5 4 2 6-9 6-6-1-5-4-7-3h-15l-6 3-3 3v8l4 4 10 3 19 3 10 4 8 8 4 10v8l-3 9-9 10-8 4-10 2h-15l-16-4-6-4-8-9-1-5 11-7 3 1 7 8 7 3 5 1h12l8-3 4-4 1-6-2-6-6-4-27-5-10-4-5-4-4-8-1-4v-8l3-8 7-8 10-5z" fill="#0A2966"/>
<path transform="translate(1956,642)" d="m0 0h9l14 3 9 6 6 7-1 4-8 4-5-1-8-5-7-2h-11l-8 3-3 4-1 5 3 5 6 3 25 4 12 5 7 8 3 8v8l-3 9-4 6-7 6-11 4-5 1h-15l-15-4-9-6-6-7-1-5 9-6 5 1 9 8 10 3h13l8-4 4-4v-8l-2-4-11-4-21-4-12-5-6-7-2-4-1-10 2-9 5-7 10-6z" fill="#092966"/>
<path transform="translate(245,201)" d="m0 0h2l9 20 13 30 12 28v4h-34l-39-1 4-10 13-28 12-27z" fill="#1D3872"/>
<path transform="translate(921,201)" d="m0 0h2l13 28 18 41 4 9v3l-12 1h-20l-41-1 1-5 15-32 18-40z" fill="#1C3872"/>
<path transform="translate(763,646)" d="m0 0h17l1 1v72h16l29 1 1 13-1 1h-62l-1-1z" fill="#1B3872"/>
<path transform="translate(368,645)" d="m0 0h10l6 1v88h-17v-88z" fill="#1A3873"/>
<path transform="translate(1028,646)" d="m0 0h17v88h-17z" fill="#193872"/>
<path transform="translate(1875,645)" d="m0 0h11l4 1v88h-16l-1-15v-73z" fill="#1C3872"/>
<path transform="translate(1331,642)" d="m0 0h9l14 3 8 5 5 4 2 6-9 6-6-1-5-4-7-3h-15l-6 3-3 3v8l4 4 5 2-3 1 1 4 5 2-1 3-5 1h-3l-2 3-9-3-5-4-4-8-1-4v-8l3-8 7-8 10-5z" fill="#0A2967"/>
<path transform="translate(621,432)" d="m0 0h25l3 2 1 3v9l-5 5h-2l6 8 5 1 11-20 7-8 5 1 4 4 7 12 5 13h-6l-6-7h-15l-4 6-5 2h-9l-7-3-10-8-5-3-1 10-3 3-4-1-1-5v-21z" fill="#FDFDFD"/>
<path transform="translate(1492,683)" d="m0 0h34l1 28-2 10-7 8-10 5h-8l-2-2v-3l2-2-4-6 12-6 2-3v-12l-1-1-21-1v-14z" fill="#1B3872"/>
<path transform="translate(514,432)" d="m0 0h25l3 2 1 5v17l-2 5-3 1h-29l-3-3-1-3v-17l2-6z" fill="#FDFDFD"/>
<path transform="translate(271,432)" d="m0 0h28l4 2 1 3v20l-3 4-5 1h-25l-4-5v-22z" fill="#FDFDFD"/>
<path transform="translate(1166,432)" d="m0 0h16l11 1 7 8v11l-4 6-6 3-6 1h-17l-3-3-1-6v-10l1-9z" fill="#FDFDFD"/>
<path transform="translate(1404,432)" d="m0 0h16l11 1 5 4 2 4v10l-3 6-3 3-8 2h-18l-3-2-1-3v-24z" fill="#FDFDFD"/>
<path transform="translate(968,432)" d="m0 0h17l10 2 5 5 1 3v8l-4 8-6 3-6 1h-17l-3-3v-26z" fill="#FDFDFD"/>
<path transform="translate(577,432)" d="m0 0h25l4 2 1 8v15l-3 4-3 1h-23l-3-2-1-3v-24z" fill="#FDFDFD"/>
<path transform="translate(292,643)" d="m0 0h15l11 3 12 7 2 4-6 9-6-1-11-5-4-1h-11l-10 4-7 6h-3l-3-10v-6l5-5 10-4z" fill="#0A2966"/>
<path transform="translate(1482,643)" d="m0 0h15l13 3 11 7 2 4-6 8-3 2-12-6-8-2h-8l-9 3-6 4-2 2h-5l-1-1v-11l2-5 4-4z" fill="#082966"/>
<path transform="translate(1956,642)" d="m0 0h9l14 3 9 6 6 7-1 4-8 4-5-1-8-5-7-2h-11l-8 3-5 5-2 1-4-2v-2l-3-1-1-3 2-3 2-7 10-5z" fill="#0B2966"/>
<path transform="translate(175,719)" d="m0 0h49v15h-41l-10-1-7-3 1-4 5-5z" fill="#072866"/>
<path transform="translate(1575,719)" d="m0 0h49v15h-35l-16-1-7-2 1-5z" fill="#072866"/>
<path transform="translate(186,432)" d="m0 0h22l4 3-1 9 2 8-1 7-2 2-4 1h-23l-4-2-1-4 1-4 10 3h16l1-6-4 1h-18l-4-4-1-9 3-4z" fill="#FDFDFD"/>
<path transform="translate(1647,432)" d="m0 0h23l4 1 1 2v12l-4 4h-4l9 9-1 2h-7l-11-9-7-3v9l-2 3h-5l-1-2v-26z" fill="#FDFDFD"/>
<path transform="translate(707,432)" d="m0 0h21l4 3v10l1 3v9l-3 4-5 1h-22l-4-4 1-6 5 2 2 1h17l2-6-4 1h-17l-4-2-1-2v-11l2-2z" fill="#FDFDFD"/>
<path transform="translate(874,432)" d="m0 0h15l4 1 1 10-2 6-5 3 6 7 3 3h-9l-8-7-10-5v9l-2 3-5-1-1-10 1-18z" fill="#FDFDFD"/>
<path transform="translate(1308,708)" d="m0 0 3 1 7 8 7 3 15 2-3 2 6 5 1 5 5 1v1l-6 1h-15l-16-4-6-4-8-9-1-5z" fill="#1C3873"/>
<path transform="translate(1931,709)" d="m0 0 5 1 9 8 10 3 11 1-3 1v2l4 2-2 6h2v2h6v1l-5 1h-15l-15-4-9-6-6-7-1-5z" fill="#1B3872"/>
<path transform="translate(1696,432)" d="m0 0h21l4 2v5l-4 1-7-2h-14l-2 1-1 13 2 3h19v-6l-10 1-1-5 2-2h15l1 2v14l-5 3-20 1-8-2-3-5v-17l2-5 1-1z" fill="#FDFDFD"/>
<path transform="translate(778,718)" d="m0 0 1 2 3-1h15l25 1 3 4v7l-6 2h-41l-6-1-2-5z" fill="#0B2865"/>
<path transform="translate(238,432)" d="m0 0h13l4 2v5l-4 1-5-2h-16v5l11-1 12 1 2 1 1 4v10l-3 3-4 1h-21l-5-2-1-4 1-3 10 2h16v-5h-22l-3-2-1-3v-7l2-5z" fill="#FDFDFD"/>
<path transform="translate(1932,651)" d="m0 0h2l-1 7-1 2 4 5 4 1 2-1 1 7 5 5 8 2-2 4 4 3v7l1 2-9-1-12-4-6-4-4-5-2-4-1-10 2-9z" fill="#1C3872"/>
<path transform="translate(1584,432)" d="m0 0 4 1 1 1 1 25-3 3-4-1-1-3v-9l-1-3h-2l-6 11-3 2-7-6-4-7v-2h-2v17h-6l-1-4v-22l2-2h5l7 8 4 6 3 1z" fill="#FDFDFD"/>
<path transform="translate(1074,432)" d="m0 0 6 2 6 8 5 6 7-6 4-7 2-2h6l1 6-1 22h-6v-14l-3-1-5 9-3 3-4-1-5-5-4-8h-1l-1 17-5 1-2-7v-20z" fill="#FDFDFD"/>
<path transform="translate(425,432)" d="m0 0h23l5 3-1 9-4-1-6-5h-10l-4 2v15h10l8-2 5-3h2v9l-4 3-8 1h-15l-5-3-2-8 1-16 2-3z" fill="#FDFDFD"/>
<path transform="translate(475,430)" d="m0 0h5l7 8 11 21v3h-6l-3-4v-2h-19l-4 6h-5l-1-3 11-21 6-6z" fill="#FDFDFD"/>
<path transform="translate(391,432)" d="m0 0 6 1 7 10 8 15v4h-6l-4-6-4-1h-13l-5 7h-5l-1-3 11-20z" fill="#FDFDFD"/>
<path transform="translate(1736,431)" d="m0 0 16 1h9l3 3-1 3h-19l-3 2v2l12 1 2 4-4 2h-11l1 5 2 1h16l5-1v7l-1 1h-26l-4-4v-24z" fill="#FDFDFD"/>
<path transform="translate(672,432)" d="m0 0 5 1 4 4 7 12 5 13h-6l-6-7h-15l-4 6-5 2-4-2 5-8 7-13z" fill="#FDFDFD"/>
<path transform="translate(916,432)" d="m0 0 5 1 6 7 9 17 1 5h-6l-3-5-2-1-14-1-4 1-3 5-5 1-1-3 11-21z" fill="#FDFDFD"/>
<path transform="translate(802,432)" d="m0 0h28l1 1v5l-3 1-3-1h-15l-3 5h11l4 2v3l-3 1-11 1v5h18l5-1 1 6-2 2h-26l-3-3v-26z" fill="#FDFDFD"/>
<path transform="translate(151,432)" d="m0 0 6 1 7 10 8 16v3h-5l-6-7-16 1-5 6-4 1-1-5 9-17z" fill="#FDFDFD"/>
<path transform="translate(1353,432)" d="m0 0 5 1 6 7 9 15 1 7-6-1-4-5-6-1h-13l-1 5-5 2-2-3 7-16 7-9z" fill="#FDFDFD"/>
<path transform="translate(1126,432)" d="m0 0h26l1 1v5l-4 1-3-1h-14l-2 4 11 1 4 4-4 2-11 1v4l2 1h16l5-1 1 5-2 3h-26l-3-3v-25z" fill="#FDFDFD"/>
<path transform="translate(1323,432)" d="m0 0 5 1v29l-6-1-8-7-15-11v14l-2 5-4-1-1-7v-11l1-9 5-1 9 6 13 11 2 1v-18z" fill="#FDFDFD"/>
<path transform="translate(1898,432)" d="m0 0 6 2 6 9 7 12 2 4v3h-6l-5-6-4-1h-12l-3 3-3 4h-4l-1-3 11-21z" fill="#FDFDFD"/>
<path transform="translate(1515,432)" d="m0 0h20l4 1v5h-21l-1 4 12 2v4l-3 1h-10l2 6h22l1 4-2 3h-25l-4-2-2-7 1-20z" fill="#FDFDFD"/>
<path transform="translate(1014,432)" d="m0 0h26l1 5-5 1h-18v4l13 2 2 3-2 2-13 1v4l3 1h16l3-1 2 3-1 5-2 1-25-1-3-5v-23z" fill="#FDFDFD"/>
<path transform="translate(1804,432)" d="m0 0 4 1 1 1v27h-6l-8-7-10-8-5-3v18l-4 1-2-2v-25l4-2 5 2 16 13 4 3v-18z" fill="#FDFDFD"/>
<path transform="translate(1460,432)" d="m0 0h18l1 5-5 1h-17l-1 6 2-1h10l2 2v3l-2 1h-13l1 6h23l1 4-1 3h-26l-4-3-1-17 1-9z" fill="#FDFDFD"/>
<path transform="translate(1613,432)" d="m0 0 18 1v5l-2 1-2-1h-16l-2 4v2l2-1h10l2 4-5 2h-10l2 5 1 1h16l4-1 1 6-2 2-15 1-9-1-4-3-1-4v-20l2-2z" fill="#FDFDFD"/>
<path transform="translate(1830,432)" d="m0 0h20l3 1 1 9-2 3-8-7h-14l-1 2v14l1 1h14l5-3 3-3h2v10l-5 3h-23l-4-4-1-4v-11l2-9z" fill="#FDFDFD"/>
<path transform="translate(1241,432)" d="m0 0h17l3 2v11h-2l-6-7h-16v16l1 1h13l6-3 2-3h3v7l-2 5-4 1h-22l-4-4-1-3v-15l2-6 1-1z" fill="#FDFDFD"/>
<path transform="translate(1954,680)" d="m0 0h10l15 3 9 4 2 9-3 2-1 5h-2v2l-5-2-3-3-18-6-1-5v-3l-4-4z" fill="#0A2966"/>
<path transform="translate(330,432)" d="m0 0h14l3 2v10h-3l-5-6h-14l-2 1-1 11 1 5h14l6-2 2-4h2v11l-5 2h-22l-4-3-1-3v-17l2-6z" fill="#FDFDFD"/>
<path transform="translate(1307,652)" d="m0 0v3 8l6 5 3 1 1-3 2 8 8 4-3 1 1 4 5 2-1 3-5 1h-3l-2 3-9-3-5-4-4-8-1-4v-8l3-8z" fill="#1C3872"/>
<path transform="translate(453,644)" d="m0 0h18l4 3-3 5 1 7-17 1-10 4-3-1-1-12 3-5z" fill="#0A2967"/>
<path transform="translate(515,437)" d="m0 0h19l2 3v14l-2 2h-20l-2-6v-10z" fill="#203970"/>
<path transform="translate(276,437)" d="m0 0h18l3 4v12l-3 3h-18l-3-2v-14z" fill="#203871"/>
<path transform="translate(974,437)" d="m0 0h12l6 3 2 3v7l-5 5-3 1h-13l-2-2v-15z" fill="#1D3872"/>
<path transform="translate(1412,437)" d="m0 0h11l5 2 3 4v8l-3 3-4 2h-14l-2-6v-7l2-5z" fill="#223871"/>
<path transform="translate(1173,437)" d="m0 0h10l7 2 3 4v7l-2 4-5 2h-14l-2-6 1-11z" fill="#203872"/>
<path transform="translate(1712,711)" d="m0 0h4l9 11 9 10v2h-18l-7-6-4-10v-3h3l1-3z" fill="#0B2966"/>
<path transform="translate(111,715)" d="m0 0h7l9 10 6 8v1h-19l-11-11-2-3v-3z" fill="#0A2966"/>
<path transform="translate(1308,708)" d="m0 0 3 1 7 8 11 5-2 2-10 2-7 4-5-2-7-8-1-5z" fill="#0A2967"/>
<path transform="translate(765,432)" d="m0 0h5l1 2 1 21 21 1v5l-1 1h-25l-3-4v-25z" fill="#FDFDFD"/>
<path transform="translate(1762,716)" d="m0 0h14l-1 5-5 12-1 1h-18l4-10 3-6z" fill="#0B2A67"/>
<path transform="translate(669,202)" d="m0 0h57l8 1 1 1v18h-1l-1-13-4-2h-31l-32-1-16-2v-1z" fill="#092A67"/>
<path transform="translate(553,707)" d="m0 0 3 1v26h-16v-15l2 3 5-6 4-8z" fill="#082866"/>
<path transform="translate(330,716)" d="m0 0 2 4v5l-9 7-9 3-5-1v-7h2l-6-6 7-3h9z" fill="#0C2966"/>
<path transform="translate(1095,703)" d="m0 0h1v30l-3 1h-10l-2-1v-11h2v-2h2l2-6 6-9z" fill="#072866"/>
<path transform="translate(1696,437)" d="m0 0h14l6 2-1 2-7 1-4 3v4h10l1 4-3 3h-17l-3-4 1-13z" fill="#203872"/>
<path transform="translate(1262,714)" d="m0 0 6 1 8 16v3h-18l-3-7v-7l5-5z" fill="#0A2967"/>
<path transform="translate(427,279)" d="m0 0h95l1 1v19h-1l-2-14-2-2-13-1h-71l-5 1-2 4z" fill="#072866"/>
<path transform="translate(429,200)" d="m0 0h83l10 1v7l-2-3-3-1-88-1-1 23h-1v-25z" fill="#0B2C69"/>
<path transform="translate(68,706)" d="m0 0 2 1 1 27h-13l-2-5 1-7 7-13z" fill="#072866"/>
<path transform="translate(191,646)" d="m0 0h33v14h-16l-1-7-15-5z" fill="#072866"/>
<path transform="translate(1931,709)" d="m0 0 5 1 9 8 2 1v2l-9 5-3 3-5-1-7-8-1-5z" fill="#0D2A67"/>
<path transform="translate(1833,717)" d="m0 0h7l3 3 5 11v3h-17l-2-2-1-8-1-2 2-3z" fill="#092967"/>
<path transform="translate(724,717)" d="m0 0 4 1 3 3 4 10v3h-16l-3-4-2-5v-4z" fill="#0A2A67"/>
<path transform="translate(1198,718)" d="m0 0h5l-1 6-5 10h-17l1-6 5-5 6-4z" fill="#082866"/>
<path transform="translate(657,716)" d="m0 0 5 2-1 7-4 9h-17l4-1-1-4 5-9h3v-2z" fill="#0A2866"/>
<path transform="translate(1500,719)" d="m0 0h7l5 3h6l1 6-8 5-3 1h-8l-2-2v-3l2-2-4-6z" fill="#082966"/>
<path transform="translate(914,705)" d="m0 0h2v26l-1 2h-7l-3-2v-10l7-13z" fill="#072866"/>
<path transform="translate(1670,713)" d="m0 0h1l1 11v10h-13l-1-1v-6l3-6 4-2 2-4z" fill="#072866"/>
<path transform="translate(1867,432)" d="m0 0 6 1-1 28-5 1-2-2v-26z" fill="#FDFDFD"/>
<path transform="translate(1274,433)" d="m0 0h6l1 1v27l-3 1-5-2v-25z" fill="#FDFDFD"/>
<path transform="translate(1213,432)" d="m0 0 4 1v28l-5 1-2-2v-26z" fill="#FDFDFD"/>
<path transform="translate(362,432)" d="m0 0 5 2-1 26-4 2-3-2v-25z" fill="#FDFDFD"/>
<path transform="translate(1805,710)" d="m0 0 10 2 2 4-6 1h-31v-3l3-2 16-1z" fill="#072866"/>
<path transform="translate(746,432)" d="m0 0 5 1 1 23-1 5h-6l-1-3 1-25z" fill="#FDFDFD"/>
<path transform="translate(843,432)" d="m0 0 5 1v28l-5 1-1-1v-28z" fill="#FDFDFD"/>
<path transform="translate(1236,710)" d="m0 0 9 3 1 4h-37v-2l10-3 13-1z" fill="#072866"/>
<path transform="translate(991,716)" d="m0 0 2 1v16l-1 1h-8l-4-2 1-2 2 1-1-4 3-7z" fill="#072866"/>
<path transform="translate(1988,688)" d="m0 0 5 4 4 7-1 3-2-1v2l-7 4-4 5h-2l-1-8 4 1v-2h2l1-7h2z" fill="#1B3872"/>
<path transform="translate(870,437)" d="m0 0h14l3 2-1 5-3 2-14-1-1-6z" fill="#263871"/>
<path transform="translate(626,437)" d="m0 0h14l3 2-1 6-3 2-7-3h-7l-1-5z" fill="#1E3872"/>
<path transform="translate(580,449)" d="m0 0h20v5l-3 2h-14l-3-4z" fill="#1B3872"/>
<path transform="translate(1651,437)" d="m0 0h10l7 2-1 5-5 1h-12l-1-1v-5z" fill="#1D3772"/>
<path transform="translate(75,646)" d="m0 0h32l-1 4-4 3-17-4-10-2z" fill="#0A2966"/>
<path transform="translate(710,437)" d="m0 0h13l6 3 1 4h-13l-3-2-6 2-1-5z" fill="#17336E"/>
<path transform="translate(189,437)" d="m0 0h14l6 3-1 3h-22l1-5z" fill="#193671"/>
<path transform="translate(677,712)" d="m0 0h23l1 3 2 1h-13l-6 1h-14v-2z" fill="#072866"/>
<path transform="translate(1746,419)" d="m0 0h5l6 7 1 4-4-1-3-2-6 1-4 2-1-4 3-5z" fill="#FCFBFB"/>
<path transform="translate(583,437)" d="m0 0h14l2 2-1 5-16-1-1-4z" fill="#1B3671"/>
<path transform="translate(1887,720)" d="m0 0h2v14h-6l-3-2 1-7z" fill="#072866"/>
<path transform="translate(439,464)" d="m0 0 5 1 1 1v6l-1 2h-12l-2-1 1-3 4-1z" fill="#FDFDFD"/>
<path transform="translate(1605,646)" d="m0 0h19v6l-1 2h-4l-3-3-7-1-4-2z" fill="#092967"/>
<path transform="translate(381,722)" d="m0 0h2v12h-8l-2-2h2l-1-4 5-5z" fill="#072866"/>
<path transform="translate(664,289)" d="m0 0h7l7 4 3 4-1 2-9-5-1-1-12-1h-7l2-2z" fill="#092A67"/>
<path transform="translate(1042,722)" d="m0 0 2 1v11h-6l-1-8z" fill="#072866"/>
<path transform="translate(675,703)" d="m0 0h20l-4 4h-12z" fill="#072866"/>
<path transform="translate(478,422)" d="m0 0h7l2 3-2 2h-13v-4z" fill="#FDFDFD"/>
<path transform="translate(1355,440)" d="m0 0h2l3 8-2 1h-8l1-6z" fill="#213771"/>
<path transform="translate(1898,441)" d="m0 0 5 1 2 5-3 2h-6l-1-5z" fill="#2F3970"/>
<path transform="translate(671,441)" d="m0 0h5l3 5-1 3-5 1-3-2z" fill="#283871"/>
<path transform="translate(477,441)" d="m0 0 4 1 3 4v3l-7 1-3-3 2-5z" fill="#25396E"/>
<path transform="translate(391,441)" d="m0 0h5l2 3-1 4-1 1h-7l1-7z" fill="#223872"/>
<path transform="translate(153,440)" d="m0 0 4 2 1 5-2 2h-7l1-7z" fill="#253871"/>
<path transform="translate(477,726)" d="m0 0h6l1 5-1 2-7 1-1-1v-6z" fill="#082966"/>
<path transform="translate(917,440)" d="m0 0 5 5-1 4h-6l-3-3z" fill="#203A70"/>
<path transform="translate(78,690)" d="m0 0h14l-1 3-9 2-4-2z" fill="#072866"/>
<path transform="translate(679,300)" d="m0 0 4 1v2l4 2 3 5-1 2-9-7-2-4z" fill="#072866"/>
<path transform="translate(117,693)" d="m0 0h5l-1 4-4 3-5-1 1-4z" fill="#0D2A67"/>
<path transform="translate(1791,703)" d="m0 0h16v2l-5 2-9-1z" fill="#072866"/>
<path transform="translate(1804,645)" d="m0 0 6 2v3h-8l-6-3v-1z" fill="#102966"/>
<path transform="translate(611,725)" d="m0 0h2l1 9h-5l-2-3 3-5z" fill="#092967"/>
<path transform="translate(330,654)" d="m0 0 2 1-2 5-4 6-6-1-2-2 7-1v-2l4-2z" fill="#223872"/>
<path transform="translate(1362,688)" d="m0 0 7 6 2 5-4-1-1 2-4-10z" fill="#193873"/>
<path transform="translate(1231,645)" d="m0 0h5l2 4h-11l-2-3z" fill="#132B67"/>
<path transform="translate(822,720)" d="m0 0h4l1 13-1 1h-7l1-2 4-1v-9l-3-1z" fill="#1E3872"/>
<path transform="translate(1220,703)" d="m0 0h13l-1 3-6 1-6-3z" fill="#072866"/>
<path transform="translate(734,233)" d="m0 0h1v14l-4-1 1-2v-8z" fill="#072866"/>
<path transform="translate(1521,654)" d="m0 0 2 1-2 5-6 7-5-2 4-2 6-5z" fill="#1E3872"/>
<path transform="translate(626,437)" d="m0 0h14l2 1-1 3v-2l-16 1z" fill="#423367"/>
<path transform="translate(1494,693)" d="m0 0 6 1 1 3h-11v-2z" fill="#072866"/>
<path transform="translate(1181,728)" d="m0 0 4 4 12 1v1h-17z" fill="#203872"/>
<path transform="translate(2e3 712)" d="m0 0 1 4-5 9-3 2 2-6 4-6z" fill="#203872"/>
<path transform="translate(218,683)" d="m0 0h5l-1 7-1-2-4-2z" fill="#092967"/>
<path transform="translate(721,439)" d="m0 0 8 1 1 4-11-1 3-2z" fill="#1F3871"/>
<path transform="translate(303,694)" d="m0 0 7 1-1 2h-10v-2z" fill="#072866"/>
</svg>
