<?xml version="1.0" encoding="UTF-8"?>
<svg version="1.1" viewBox="0 0 2048 980" width="303" height="145" xmlns="http://www.w3.org/2000/svg">
<path transform="translate(521,179)" d="m0 0h71l34 2 42 5 40 7 34 8 34 10 34 12 24 10 24 11 27 14 25 15 15 10 14 10 14 11 11 9 13 12 8 7 12 12 9 11 9 10 12 16 10 15 12 21 11 23 9 25 6 22 4 23 2 22v23l-2 24-5 26-6 21-7 19-9 20-12 22-12 18-16 21-12 14-26 26-8 7-13 11-19 14-27 18-22 13-22 12-28 13-27 11-35 12-29 8-24 6-35 7-40 6-44 4-19 1h-47l-35-2-39-4-43-7-36-8-32-9-36-12-32-13-28-13-23-12-25-15-20-14-16-12-11-9-14-12-16-15-15-16-9-11-12-15-12-18-9-15-11-21-11-28-6-21-5-23-2-15-1-17v-18l2-21 4-24 6-23 7-20 9-20 11-21 18-27 11-14 11-13 7-8 6-7 5-5 20-18 14-11 18-14 18-12 21-13 29-16 25-12 19-8 24-9 30-10 41-11 40-8 33-5 39-4zm1 9-34 3-36 5-37 8-27 8-21 7-27 11-24 11-28 15-24 15-17 12-13 10-13 11-14 12-18 18-7 8-11 14-10 13-15 23-13 24-11 25-9 28-6 26-3 24-1 14v24l3 29 5 25 7 24 9 24 11 23 12 20 8 12 13 18 12 14 12 13 18 18 8 7 13 11 18 13 24 16 24 14 26 13 30 13 25 9 30 9 30 7 36 6 38 4 15 1h56l36-3 34-5 33-7 30-8 31-11 32-13 25-12 23-13 19-12 14-10 16-12 13-11 13-12 10-9 12-13 9-10 11-14 12-17 12-20 9-17 9-21 10-30 6-27 3-22 1-15v-28l-3-27-5-25-6-21-8-22-10-22-13-23-12-18-9-12-11-13-9-11-23-23-11-9-8-7-17-13-19-13-21-13-24-13-23-11-33-13-28-9-30-8-42-8-32-4-26-2z" fill="#6D7441"/>
<path transform="translate(551,229)" d="m0 0h12l6 3 3 4 1 30 1 1 29 3 41 2 10 2 12 6 10 9 13 13 16 4 4 3-1 3-12-2-6-4-1-1h-7l-10 3-10 1h-18l-40-12-31-2-1 94 28 12 19 10 19 12 13 11 12 12 9 14 5 11 3 10 1 7v15l-3 14-6 15-8 11-5 6-11 9-11 7-20 8-21 5-25 4-1 89-2 3 9 3 17 8 14 10 8 10 5 11 1 5v11l-4 11-8 11-10 9-15 10-15 8-1 30-2 11-4 5-7 1-6-5-2-6-1-23-7 4-9 11-4 9v9l6 12 7 7 18 12 2 2v3l-9-2-12-5-10-7-8-9-4-8-2-6v-14l4-9 4-6 9-9 12-8 2-2 1-89-9-3-16-8-16-9-13-12-8-11-6-12-2-7v-18l5-15 7-11 8-8 14-8 13-4 20-4v-148l-10-3-24-11-14-8-10-8-12-12-8-13-4-10-2-10v-9l2-10 5-12 8-11 7-7 13-8 13-6 16-4 17-2 1-22 2-9 3-5zm-10 67-20 4-16 8-8 7-5 8-3 12 2 10 4 7 10 10 11 7 26 12 2-1-1-83zm30 124v138l20-3 14-4 16-8 9-6 6-5 7-9 6-12 1-5v-15l-4-14-6-11-9-11-9-8-15-10-21-11-13-6zm-29 164-19 5-12 6-8 9-4 9-1 12 3 9 7 9 8 7 15 9 14 7 2-1-1-24v-57zm19 87m3 1m6 25-1 29v39l6-2 17-13 7-9 3-6v-11l-4-9-6-7-14-8-6-3z" fill="#444243"/>
<path transform="translate(276,236)" d="m0 0h7l3 2v2h5l1 2 9 2-2 5-5 2v3l-16 9-24 16-15 11-11 9-14 12-12 11-12 12-7 8-11 14-10 13-15 23-13 24-11 25-9 28-6 26-3 24-1 14v24l3 29 5 25 7 24 9 24 11 23 12 20 8 12 13 18 2 2 2 6v3l5 6v2h2l2 3 6 3 13 13 6 9 3 6v3h-2l4 5 2 2 2-1 1 4 6 5 5 6 8 5h4l2 4v2l7 7 6 3 5 3 2 1v6l-1 2-6-1v-2l-6-1-8-2-25-14-19-12-18-13-12-9-11-9-14-12-16-15-15-16-9-11-12-15-12-18-9-15-11-21-11-28-6-21-5-23-2-15-1-17v-18l2-21 4-24 6-23 7-20 9-20 11-21 18-27 11-14 11-13 7-8 6-7 5-5 20-18 14-11 18-14 18-12 21-13 29-16z" fill="#6D7441"/>
<path transform="translate(293,526)" d="m0 0 3 2 3 27-1 21-4 18-6 16-6 11-1 4 3 9 2 5 5 4-1-15 3-17 6-15 10-15 8-10 2-3 4 1 3 19 1 8v19l-3 21-5 16-5 12-7 10 2 5 3 6 5 7 5 13h1l-4-26 2-20 6-18 7-13 10-14 3-1 2 5 4 21 1 9v31l-4 21-7 19-4 5 8 11 7 11 3 3-4-15-1-5v-25l5-18 7-14 7-11 3-5 4 2 7 23 3 16 1 9v15l-4 28-8 16 2 6 9 9 7 8 2 2-6-15-3-12v-18l3-19 4-9 9-15 9-11h3l7 23 4 17 1 26-2 18-6 16-3 6-3 3 13 10 11 8 4 2-9-15-4-11-2-8v-14l3-18 4-13 11-16 3-6 4-1 11 24 5 18 2 12v24l-4 18-6 12v2l12 6 3 3v5l-6-1-24-12-2 6-10 10-13 8-9 4-15 3h-17l-16-4-16-8-11-7-2-3 8-5 21-10 17-5 12-2h31l-10-7-11-8-4-4v-2l-8 4-11 8-10 4-13 3h-25l-13-4-10-5-14-10-10-7-1-3 5-3 18-5 22-3h24l14 3 14 6-7-8-17-17-2-1-1 5-14 6-15 3h-13l-18-4-13-5-11-7-10-9-9-9 1-5 18-2h32l21 5 11 4 12 5-8-9-6-9v-2l-6-1-21 2-15-1-14-4-17-9-10-8-8-8-11-15-1-5h13l18 3 21 6 16 7 15 9 4 1-5-5-8-14-3-5v-2l-9 1h-22l-15-4-14-6-10-8-7-7-7-10-6-10-1-6 16 2 17 4 19 7 12 7 17 12 3 2-8-10-6-11-5-3-4-1-10-1-15-5-12-7-10-9-8-11-8-16-3-9 1-2 8 1 18 8 14 8 15 11 6 7h1l-3-7v-8l3-7 1-15 6-18 6-11 10-13z" fill="#96B04E"/>
<path transform="translate(768,609)" d="m0 0 5 3 4 5 10 17 6 15 3 14v22l-2 9-1 10 9-6 11-7 15-8 20-7 36-6 5 1-4 8-13 16-8 8-10 7-12 6-16 5-6 1h-17l-13-3h-3l-6 9-9 11-1 3 10-6 13-5 12-3 17-2h25l16 3 3 2-1 4-10 9-14 11-14 7-16 4h-24l-19-5-7-5h-5l-7 9-10 9-4 3 14-3 12-3 7-1h26l20 4 16 4 1 4-11 10-14 10-11 5-12 3-9 1h-13l-15-3-14-7-10-8-4-1-7 7-18 13-3 2 12-2h15l20 3 16 5 15 6 12 7v3l-9 6-16 9-11 4-17 2-13-1-11-3-10-4-11-8-9-9-4-5-5 2-12 5-6 3h-5l1-5 10-5 1-7-6-17-2-10-1-15 2-16 5-21 6-15 6-12 4 2 13 21 5 13 1 4 2-24 4-21 6-20 4-1 9 10 10 17 3 9 4 19v13l-6 21-2 5 8-6 9-11-1-5-4-12-4-10-2-16v-23l4-23 6-20 2-3 4 2 11 18 7 16 3 13 1 14-2 15-5 14 3-3 7-9 9-11-2-4-5-9-7-24-2-14v-15l2-21 4-24zm0 134m-1 1m-1 1m-75 25-4 16-6 16-5 9-3 4v2l6-2 13-10 6-3 4-4v-2h-2l-2-5-3-10-3-11zm42 8-1 2 3-1z" fill="#96B04E"/>
<path transform="translate(838,486)" d="m0 0 5 1 12 14 8 14 10 27-2 9-6 10 5-4 14-14 14-10 13-8h2l1 6-4 16-7 13-9 10-13 9-15 6-6 2-7 7-2 11 7-8 12-9 25-13 10-4 3-2h3l1 7-5 13-7 12-8 10-12 9-15 7-11 3h-11-2l-5 9-3 2-3 8-6 4-1 2 16-11 10-6 20-9 18-5 12-2h8l2 1-2 6-8 11-7 9-9 9-16 9-13 4-10 2h-16l-6-3h-2l-10 16-8 11-4 3h-2l1-8 10-16 4-6-4-2-4-6-7-15-5-17-2-14v-23l3-27 1-2 4 2 7 7 8 11 8 16 4 14 1 7 1 19 3-1 4-15 4-7-4-2-9-17-6-21v-43l1-10 2-2 12 12 7 11 7 16 3 9v15l1 5v-8l2-7 4-5-1-6-8-13-5-11-4-14-2-14v-23z" fill="#96AF4E"/>
<path transform="translate(1620,291)" d="m0 0 4 2 7 10 17 32 12 22 14 27 12 22 9 16 3 6h2l10-21 10-19 17-33 15-29 10-19 6-11 5-5 3 1 4 30 8 68 5 41 5 19 4 2 17 2 3 1v4h-50l-1-1-1-24-6-56-2-31v-9h-2l-3 9-6 10-8 16-15 28-11 22-12 22-7 12-3 3-4-2-9-14-14-25-14-26-17-33-9-16-2 13-3 26-4 48-1 9v11l14 4 2 4h-50v-4l11-3 3-1 2-7 4-40 4-32 3-26 3-19 3-28 2-7z" fill="#575242"/>
<path transform="translate(1368,291)" d="m0 0 4 2 6 8 28 52 17 32 12 22 8 15 4 6 3-4 18-36 11-20 8-16 15-29 10-19 5-9 5-4 3 3 12 102 5 41 4 11 4 4 20 3-1 4h-48l-2-1 1-10-6-54-5-48-1-5-14 27-10 19-18 34-16 31-6 8-5-3-7-10-14-25-14-26-18-34-10-19-2-1v13l-5 59-3 21-1 17 13 2 5 3-1 2h-51l2-4 11-3 3-7 4-24 3-31 3-21 3-29 5-31 2-17z" fill="#575142"/>
<path transform="translate(521,179)" d="m0 0h71l34 2 42 5 40 7 34 8 34 10 34 12 24 10 24 11 27 14 25 15 15 10 14 10 14 11 5 5-9-1-7-5-5-3-12-6-8-3-3-3-11-4-16-9-1 3-11-7-4-3-2 2h-6l-3-2-1-6-9-1-4-4-4-1v2l-4 4 3 2 6 5-2 1-21-13-24-13-23-11-33-13-28-9-30-8-42-8-32-4-26-2h-64l-34 3-36 5-37 8-27 8-21 7-27 11-24 11-20 11h-2v-2l4-3 1-2h2v-2l-9-1-1-3h-5l-3-3-5-1 3-2 16-7 24-9 30-10 41-11 40-8 33-5 39-4z" fill="#7A8243"/>
<path transform="translate(1136,499)" d="m0 0h878l3 1v8l-3 1h-877l-2-2v-7z" fill="#464443"/>
<path transform="translate(1923,292)" d="m0 0h32l41 5 4 2v38l-3-1-7-14-4-5-11-7-15-5-21-2h-15l-17 2-11 4-13 7-9 9-6 10-5 14-3 15v13l5 21 6 14 9 12 11 10 15 9 16 6 17 3h16l12-2 8-5 2-6v-36l-1-13-2-4-16-3v-3l5-1h51l2 1-1 3-13 3-1 3-1 60-4 5-9 4-23 5-8 1h-27l-22-4-17-5-21-11-12-11-8-11-7-14-4-16v-29l3-14 5-11 7-12 10-11 14-10 15-7 15-4z" fill="#565142"/>
<path transform="translate(449,718)" d="m0 0h3l11 24 5 18 2 12v24l-4 18-6 12v2l12 6 3 3v5l-6-1-24-12-2 6-10 10-13 8-9 4-15 3h-17l-16-4-16-8-11-7-2-3 8-5 21-10 17-5 12-2h21l15 1 12 5 2-2-9-15-4-11-2-8v-14l3-18 4-13 11-16 3-6z" fill="#96B04E"/>
<path transform="translate(174,736)" d="m0 0 5 4 7 8 9 10 18 18 8 7 13 11 18 13 24 16 24 14 26 13 30 13 25 9 30 9 30 7 36 6 38 4 15 1h56l36-3 34-5 33-7 19-5h2v2l-10 4h-2l-2 4-3 3-4 2 7 1v1l-43 7-52 5-19 1h-47l-35-2-39-4-43-7-36-8-32-9-36-12-32-13-28-13-6-3 4-1 6 2v2l6 1v-8l-5-2-4-3-5-3-7-7 2-1-5-5-1 2-10-7-3-3v-2l-4-2v-2l-3-1-1-2-7-6-2-2 1-3 1 3h2l-7-14-11-12-4-3v-2l-6-2-2-4h-2l-7-9 1-3z" fill="#7A8143"/>
<path transform="translate(413,691)" d="m0 0h3l7 23 4 17 1 26-2 18-6 16-3 6-3 3 13 10 11 8 3 3-1 2-17-7-10-7-11-8-4-4v-2l-8 4-11 8-10 4-13 3h-25l-13-4-10-5-14-10-10-7-1-3 5-3 18-5 22-3h24l14 3 14 6-7-8-12-12v-2l6 1 2 2 8 3 4 6 7 7 7 8 2 2-6-15-3-12v-18l3-19 4-9 9-15z" fill="#96B04E"/>
<path transform="translate(1226,291)" d="m0 0 4 1 7 14 13 30 12 29 14 33 11 26 11 21 5 6 6 2 12 2v4l-6 1h-25l-15-1-3-1v-8l-6-17-12-29-3-5-2-1h-49l-3 3-10 27-5 14-2 9 10 3 4 4-1 1h-52l-3-3 3-2 12-1 6-3 8-15 19-48 11-27 12-30 16-38zm-2 38-7 15-9 25-6 15v2l4 1h40l-3-12-16-43z" fill="#565142"/>
<path transform="translate(374,656)" d="m0 0 4 2 7 23 3 16 1 9v15l-4 28-8 16-2 2-7-3-3-2h-5l-6-5-1 5-14 6-15 3h-13l-18-4-13-5-11-7-10-9-9-9 1-5 18-2h32l21 5 11 4 13 6h5l-1-4 3 3 2 4 2 1-4-15-1-5v-25l5-18 7-14 7-11z" fill="#96B04E"/>
<path transform="translate(345,613)" d="m0 0h2l2 5 4 21 1 9v31l-4 21-7 19-4 5 8 11 3 4 1 6h-5l-9-10-6-9v-2l-6-1-21 2-15-1-14-4-17-9-10-8-8-8-11-15-1-5h13l18 3 21 6 16 7 15 9 4 1-5-5-8-14 1-4 6 1 3 6 5 7 5 13h1l-4-26 2-20 6-18 7-13 10-14z" fill="#96B04E"/>
<path transform="translate(768,609)" d="m0 0 5 3 4 5 10 17 6 15 3 14v22l-2 9-1 10 9-6 11-7 15-8 20-7 36-6 5 1-4 8-13 16-8 8-10 7-12 6-16 5-6 1h-17l-13-3h-3l-6 9-3-1 4-5-6 2 1-4-6-9-8-26-2-14v-15l2-21 4-24z" fill="#96B04E"/>
<path transform="translate(680,197)" d="m0 0h9l3 1h14l5 1 2-2 11 1 10 1 36 10 38 13 26 11 24 11 27 14 25 15 15 10 14 10 14 11 5 5-9-1-7-5-5-3-12-6-8-3-3-3-11-4-16-9-1 3-11-7-4-3-2 2h-6l-3-2-1-6-9-1-4-4-4-1v2l-4 4 3 2 6 5-2 1-21-13-24-13-23-11-33-13-28-9-30-8-7-2z" fill="#7A8143"/>
<path transform="translate(252,439)" d="m0 0 3 1 2 9 2 14v20l-5 25-8 19-1 4h2l8-15 4-8 8-10 7-7 4-1 1 2v22l-3 19-5 15-11 21-3 1-5-4-5-13-6-5-13-8-10-9-5-6-6-12-3-12-1-13 2-4 5 3 10 9 9 10 4 5-2-8v-21l2-12 8-16z" fill="#96B04E"/>
<path transform="translate(293,526)" d="m0 0 3 2 3 27-1 21-4 18-6 16-6 11-1 4 3 9 3 7 3 10 1 4-4-2-10-16-6-3h-7l-17-5-12-6-9-7-9-10-9-16-5-14 1-2 8 1 18 8 14 8 15 11 6 7h1l-3-7v-8l3-7 1-15 6-18 6-11 10-13z" fill="#96AF4E"/>
<path transform="translate(328,774)" d="m0 0h24l14 3 14 6 1-2 11 11 1 5-14 10-10 4-13 3h-25l-13-4-10-5-14-10-10-7-1-3 5-3 18-5z" fill="#96B04E"/>
<path transform="translate(377,871)" d="m0 0 20 6 30 8 36 7 30 4 37 3h56l36-3 34-5 33-7 19-5h2v2l-10 4h-2l-2 4-3 3-4 2 7 1v1l-43 7-52 5-19 1h-47l-35-2-39-4-43-7-18-4v-1l7-1v-2l-7-6-16-3v-2l-4-2-3-2z" fill="#89933B"/>
<path transform="translate(861,435)" d="m0 0 6 5 9 12 6 13 2 7 1 9v15l-2 10h1l9-10 16-16h3v16l-3 14-6 11-9 10-12 10-7 2-3-4-2-7v-9l-7-16-4-13-2-12v-23l3-23z" fill="#96B04E"/>
<path transform="translate(521,179)" d="m0 0h71l34 2 42 5 40 7 17 4 1 2h-8l-4-1-4 2-10-1h-8l-9-1h-3l-1 3-13-2-36-6-29-3-15-1h-64l-34 3-36 5-3-1 9-4 3-5-3-2 34-4z" fill="#89933C"/>
<path transform="translate(826,829)" d="m0 0 2 1-3 3-4 2-3 5-5 5-10 5-3 4v5h3l3 1h7l15-6 9-2-4 3-28 11-36 12-25 7-24 6-19 4h-12v-3l5-3h2l2-5 5-1 4-2h3v-2l35-12 30-12 32-15z" fill="#7A8143"/>
<path transform="translate(1963,379)" d="m0 0h51l2 1-1 3-13 3-1 3-1 60-4 5-9 4-8 2-9-1-3-3 1-5 3-3 5-4 1-5v-36l-1-13-2-4-16-3v-3z" fill="#565142"/>
<path transform="translate(1265,644)" d="m0 0h3l8 19 13 28 5 10 4-5 13-26 9-21 3-4 3 1 6 53 3 12 2 4-10 1-2-2-3-25-1-25-8 14-15 31-3 6-4-2-9-17-11-23-3-9h-2l-1 20-1 10v21h-10l2-9 4-36 3-21z" fill="#494844"/>
<path transform="translate(1174,739)" d="m0 0 5 3 5 10 13 28 8 16v2h2l2-6 13-29 7-14 4-9 3-1 2 13 5 46 3 8 1 4h-10l-2-2-4-44-1-4-8 16-8 18-6 14-3 1-5-5-8-16-14-29-2 11-1 22v17l-1 1h-10l1-4 2-5 4-39 2-13v-8z" fill="#484743"/>
<path transform="translate(202,529)" d="m0 0 5 1 15 10 12 9 10 9 11 11 7 6 2 3 1 9-2 6-4-1-6-3-9-2-15-8-12-11-6-8-4-8-4-12z" fill="#96B04E"/>
<path transform="translate(1378,738)" d="m0 0h12l-1 7-1 57 1 6-1 1-7-1-9-9-7-8-16-16-9-11-8-9-1 19v26l2 6v4h-10l1-7 2-64 4 2 12 12 7 8 14 14 7 8 11 12-1-51z" fill="#484643"/>
<path transform="translate(1431,643)" d="m0 0 35 1 12 3 8 5 7 7 5 11 1 5v9l-4 13-8 11-7 5-6 2-13 1h-27l-3-3 2-12v-49zm16 4-5 1v56l2 7 4 1h24l6-3 7-7 4-10 1-6v-8l-3-12-6-8-10-7-8-3-7-1z" fill="#484743"/>
<path transform="translate(1768,643)" d="m0 0 36 1 12 3 8 5 7 7 5 11 1 5v9l-3 10-6 10-7 7-5 3-13 2h-20l-13-1-1-3 1-2 1-23v-37zm16 4-4 2v53l1 8 4 2h25l8-4 6-8 3-9 1-13-3-12-7-9-9-6-7-3-7-1z" fill="#494843"/>
<path transform="translate(1438,548)" d="m0 0h15l10 3 8 5 7 8 4 10 1 4v10l-3 12-5 8-6 7-9 5-12 2h-12l-10-3-10-9-5-7-3-8-1-13 2-9 6-11 8-8 9-5zm4 3-9 2-8 6-6 9-2 7v19l7 14 7 6 7 3 10 1 12-2 8-8 5-12v-19l-4-10-7-9-7-5z" fill="#484643"/>
<path transform="translate(1898,548)" d="m0 0h14l11 3 9 6 7 10 3 8 1 10-3 14-6 10-5 5-5 4-7 3-7 1h-14l-8-2-6-4-5-5-5-6-4-9-1-4v-13l5-13 9-10 9-6zm-2 4-8 4-7 8-4 9-1 15 2 10 6 10 8 7 11 3 13-1 6-3 6-7 4-9 1-5v-13l-2-9-6-9-7-7-7-3z" fill="#494843"/>
<path transform="translate(377,871)" d="m0 0 20 6 30 8 36 7 30 4 22 2 7 2 15 2 1 3-9 3h-16l-52-5-43-7-18-4v-1l7-1v-2l-7-6-16-3v-2l-4-2-3-2z" fill="#89933C"/>
<path transform="translate(1923,292)" d="m0 0h32l41 5 4 2v38l-3-1-7-14-4-5-11-7-15-5-21-2h-15l-17 1 3-6h3l1-5z" fill="#595542"/>
<path transform="translate(1621,738)" d="m0 0h23l9 1 2 6v8l-8-6-7-4-8-1h-9l-10 3-8 7-4 8-1 5v16l4 10 6 8 6 4 9 3 13 1 5-2 2-3 1-5-1-16-1-7 12 1-1 24-2 8-4 3-8 2h-20l-10-3-9-6-7-8-4-10-1-6v-10l3-10 6-9 8-7 8-4z" fill="#353332"/>
<path transform="translate(1753,738)" d="m0 0 26 1 8 3 5 5 4 7-1 8-6 12-3 4 1 4 11 14 9 8 10 5-3 2-13-1-8-7-8-10-6-9-4-2-10-1-1 15 2 10v4h-12l1-9v-52zm13 3-3 4v27l2 6 2 1h11l5-3 4-12v-9l-3-7-4-5-7-2z" fill="#454343"/>
<path transform="translate(1739,548)" d="m0 0h25l7 3 4 6 2 10-14-12-12-3h-8l-10 3-8 7-5 10-1 4v14l4 12 7 8 10 5 5 1h17l8-4 3-4 2-3-1 8-4 7-4 1-24 1 3 5 4 4v6l-6 5-3 2-3-1 5-2-4-14-2-5-11-6-9-8-5-11-1-3v-17l4-11 7-9 9-6z" fill="#4A4943"/>
<path transform="translate(1533,548)" d="m0 0h23l9 3 2 5 1 11-5-5-8-7-5-2h-20l-8 4-6 7-4 10v18l4 10 8 9 9 4 6 1h15l7-3 4-5 3-3-1 9-5 6-8 2h-21l-11-3-8-6-7-8-4-9-1-4v-14l4-11 6-8 7-6 8-4z" fill="#494843"/>
<path transform="translate(1595,643)" d="m0 0h24l8 1 1 1v15h-2l-6-9-7-3h-20l-8 4-7 8-3 7-1 6v10l3 10 6 9 10 7 7 2h18l6-4 5-5-1 9-1 3-6 2-7 1h-19l-10-3-9-7-6-7-4-8-1-4v-17l4-10 9-10 7-5z" fill="#474543"/>
<path transform="translate(1821,549)" d="m0 0 3 1 3 12 8 20 6 17 6 14 5 8h-11l-4-6-7-19-1-4-20 1-6 18-1 8-1 1h-12l6-7 4-11 11-31 9-20zm-2 15-6 14-3 8v4l18-1-3-12-5-13z" fill="#494843"/>
<path transform="translate(1660,549)" d="m0 0 4 2 4 9 6 16 8 20 8 19 4 4v2h-12l-4-10-6-16v-2h-21l-7 21-2 7h-9l2-4 6-15 12-33 4-8 2-10zm0 15-4 10-4 12v2l4 1 15 1-5-15-5-11z" fill="#494743"/>
<path transform="translate(1442,738)" d="m0 0 3 2 6 17 11 30 6 14 7 9v1h-11l-4-4-8-21-1-5-20 1-7 21v5l-2 2h-9l2-5 4-8 10-28 11-28zm-1 15-5 11-4 12v3l18-1-7-23z" fill="#454440"/>
<path transform="translate(1234,549)" d="m0 0h3l11 27 10 26 5 12 5 6-1 1h-10l-2-1-9-25v-2h-21l-4 11-4 15-3 2h-7l1-4 6-12 12-34 5-10 2-11zm0 15-4 9-4 12v3l5 1h13l-2-9-7-16z" fill="#484743"/>
<path transform="translate(1673,644)" d="m0 0 4 1 5 12 18 45 4 8 4 5h-13l-7-18-3-8-1-1-19-1-7 21-2 7h-10l9-19 10-28 6-13zm0 16-7 20v3l6 1h12l-5-15-4-9z" fill="#474541"/>
<path transform="translate(1850,738)" d="m0 0 4 4 8 20 10 26 7 16 4 6-1 1-10-1-3-5-8-21-1-1-19-1-9 26-2 2-7 1 1-5 5-10 12-33 5-11 3-12zm-1 16-7 21 1 3 17 1-6-18-4-7z" fill="#484742"/>
<path transform="translate(1365,643)" d="m0 0h32l3 3v5h-3l-9-3h-11v29h22v5l-22-1 1 26 1 3h18l5-2 1 1v5l-2 1h-34l-1-3 1-2v-61z" fill="#474543"/>
<path transform="translate(1687,738)" d="m0 0 35 1v9l-8-5-14-1-2-1 1 31h24v4h-17l-8-1 1 28 4 2h13l8-1v5l-2 1-29 1-5-2 1-6v-61z" fill="#363431"/>
<path transform="translate(1862,643)" d="m0 0 8 1h27l1 1v7l-4-2-1-1-19-2v30h24v5l-21-1-3-1v30l14 1 10-3 1 1v6l-34 1-2-1 2-12v-51z" fill="#494744"/>
<path transform="translate(1967,737)" d="m0 0h10l7 2 3 4v5h-3l-7-6-8-1-6 3-2 5v7l4 6 11 9 9 9 3 6 1 10-3 7-8 7-9 3-11-1-6-4-2-9 11 7 2 1h10l7-6v-8l-4-8-15-14-6-8-1-3v-10l3-6 6-6z" fill="#444242"/>
<path transform="translate(1363,548)" d="m0 0h14l7 2 1 9-4-2-5-4-3-1h-8l-5 3-1 3v9l7 8 11 9 7 8 2 6 1 8-4 8-7 6-9 2h-8l-7-2-4-4-2-6h3l7 5 7 2h7l7-4 1-1v-9l-4-7-18-18-4-7v-11l5-8z" fill="#454342"/>
<path transform="translate(1301,548)" d="m0 0h15l6 2 3 7v3l-4-2-6-5-3-1h-9l-4 2-2 6 1 8 6 7 10 8 8 9 2 4 1 10-3 7-5 6-5 2h-17l-8-3-1-2v-7l8 6 7 2 10-1 5-4 1-2v-6l-5-8-17-17-5-10v-8l3-6 5-5z" fill="#494844"/>
<path transform="translate(1509,738)" d="m0 0h14l5 3 3 4v3l-4-1-6-4-3-1h-8l-5 4-2 4v6l5 7 11 9 7 7 4 7 1 6-2 9-7 8-7 3h-14l-6-3-1-5 1-4h2l5 6 4 2 9-1 6-5 1-2v-7l-4-8-7-7-8-7-6-9-2-5 2-9 6-7z" fill="#474543"/>
<path transform="translate(1594,548)" d="m0 0h12l1 4-1 65h2v3l-2 1h-11l-1-4 1-6v-57z" fill="#454343"/>
<path transform="translate(1768,643)" d="m0 0 16 2v3l-3 1v53l1 8 14 3 11 1-4 2h-20l-13-1-1-3 1-2 1-23v-37z" fill="#464543"/>
<path transform="translate(1438,548)" d="m0 0h15v1l-5 1v2l-12 1-8 4-7 9-3 9v19l7 14 8 6 5 2 8 1v1h-5v2h-5v1l-8-1-8-6-7-8-4-8-2-9 1-13 7-14 8-8 9-5z" fill="#494843"/>
<path transform="translate(1277,738)" d="m0 0h13l-1 6v59l2 6-2 1h-11l-1-3 1-9v-55z" fill="#464443"/>
<path transform="translate(1907,738)" d="m0 0h12v65l1 7h-12l-1-2 1-3v-64z" fill="#464443"/>
<path transform="translate(1525,643)" d="m0 0 12 1v66l2 4-4 2-9-1-1-4 2-9v-52z" fill="#4E4E45"/>
<path transform="translate(1914,447)" d="m0 0 17 4 8 1h16l14-2-1 6 6 4-4 2-14 2h-27l-22-4v-1h10l4-1-1-6-6-4z" fill="#6E7641"/>
<path transform="translate(1323,645)" d="m0 0 3 1 6 53 3 12 2 4-10 1-2-2-3-25v-26l1-3h-2v-5l-4 9-4 11-3 2-1-3 8-17 4-9z" fill="#474643"/>
<path transform="translate(1621,738)" d="m0 0h23l9 1 2 6v8l-8-6-7-4-8-1h-9l-10 3-8 7-4 8-1 5v16l6 15-3-1-8-16-1-6h-2l-1-9 6-12 8-8 10-5z" fill="#343231"/>
<path transform="translate(1235,739)" d="m0 0 2 3 6 56 3 8 1 4h-10l-2-2-4-44-1-5v-8z" fill="#4C4C45"/>
<path transform="translate(520,899)" d="m0 0h75v1l-10 2-3 2 6 1v2h13v1l-19 1h-47l-6-1 2-2 6-2v-2l-15-1z" fill="#95AF4D"/>
<path transform="translate(1201,385)" d="m0 0 5 1 40 1 2 10-5 1-43-1 3-9-2-1z" fill="#6E7541"/>
<path transform="translate(1442,738)" d="m0 0 3 2 3 9v6l-3-3-1-6-3 1 2 6h-2l-2 6-7 20h9l2 2-12 1-7 21v5l-2 2h-9l2-5 4-8 10-28 11-28z" fill="#3A3834"/>
<path transform="translate(1174,739)" d="m0 0 5 3 5 10 5 11-1 3-5-9-5-10v-2h-2l1 5-2 42v17l-1 1h-10l1-4 2-5 4-39 2-13v-8z" fill="#484642"/>
<path transform="translate(1753,738)" d="m0 0 26 1 8 3 5 5 4 7-1 8-6 12-3 4h-5l4-11 1-3v-9l-3-7-5-5-5-1h-7l-3 4-1 9h-2l-5-10z" fill="#353331"/>
<path transform="translate(1850,738)" d="m0 0 4 4 3 7v5h-6l-2-1-1 6-5 16-4 7-2 12-5 14-2 2-7 1 1-5 5-10 12-33 5-11 3-12z" fill="#373532"/>
<path transform="translate(1326,739)" d="m0 0 4 2 3 3v9h-3l1 47 2 6v4h-10l1-7z" fill="#302D30"/>
<path transform="translate(1431,643)" d="m0 0 10 1-1 3h2v-2h15l-3 2-12 1v11l-1 12-2-2 1 5 1-2v15h-2l-1 7-2 3-2-2-1-43z" fill="#302E2F"/>
<path transform="translate(497,897)" d="m0 0 18 1 7 2 15 2 1 3-9 3h-16l-34-3v-1l7-2 2 1 1-2 7-2z" fill="#89933C"/>
<path transform="translate(1780,777)" d="m0 0 5 1 4 7 11 13 7 6 10 5-3 2-13-1-8-7-8-10-6-9-4-2-10-1v-1l13-2z" fill="#484743"/>
<path transform="translate(1378,738)" d="m0 0h12l-1 7-1 44h-1l-2 9h-1l-1-27-1 17h-1l-1-44z" fill="#6C7241"/>
<path transform="translate(1667,664)" d="m0 0h4l-1 7-5 13 4 1-4 2-7 21-2 7h-10l9-19 10-28z" fill="#373432"/>
<path transform="translate(1602,548)" d="m0 0 5 1-1 67h-1l-1-5v5l-3 1-1-9v-29l1-23z" fill="#5B5842"/>
<path transform="translate(1979,788)" d="m0 0 5 1h4l1 7-3 7-8 7-9 3-11-1-6-4-2-9 11 7 2 1h10l7-6v-8z" fill="#3A3933"/>
<path transform="translate(1923,292)" d="m0 0h32v1l-13 1-2 4-4 2-12 3-17 1 3-6h3l1-5z" fill="#6E7541"/>
<path transform="translate(1229,566)" d="m0 0 2 3-1 7-4 10h-2l-2 10-1 8-4 15-3 2h-7l1-4 6-12 12-34zm-9 30 1 2z" fill="#494842"/>
<path transform="translate(1739,548)" d="m0 0h25l7 3 4 6 2 10-14-12-12-3h-8l-10 3-8 6 1-5 2-4z" fill="#4F4F43"/>
<path transform="translate(361,761)" d="m0 0 6 1 2 2 8 3 4 6 7 7 7 8 2 3-1 5h-3l-4-6-8-8-10-8-7-8-3-3z" fill="#787F42"/>
<path transform="translate(1824,588)" d="m0 0 5 1v3l-20 1-6 18-1 8-1 1h-12l6-7 4-11 5-13h13z" fill="#4E4D43"/>
<path transform="translate(1621,738)" d="m0 0h23l9 1 2 6v8l-8-6-7-4-8-1h-9l-10 3-6 4v-3l3-5 5-2z" fill="#3C3A37"/>
<path transform="translate(1595,643)" d="m0 0h24l8 1 1 1v15h-2l-6-9-7-3h-20l-7 2-1-4z" fill="#3C3A35"/>
<path transform="translate(1522,790)" d="m0 0 7 1 1 1v7l-4 6-6 5-5 2h-14l-6-3-1-5 1-4h2l5 6 4 2 9-1 6-5 1-2z" fill="#353232"/>
<path transform="translate(1363,548)" d="m0 0h14l7 2 1 9-4-2-5-4-3-1h-8l-5 3-1 3v9l2 4-7 4-2-4v-11l5-8z" fill="#4A4A42"/>
<path transform="translate(1441,659)" d="m0 0h1l1 45 1 6 11 2v1h-15l-8-1 2-17 2 1 3-9h2l-1-13-2-1 1-5h1z" fill="#474543"/>
<path transform="translate(1234,739)" d="m0 0 1 3-4 9-1 9-8 16-8 18-3 1-1 2-1-5 13-29 7-14 4-9z" fill="#3C3A36"/>
<path transform="translate(1967,737)" d="m0 0h10l7 2 3 4v5h-3l-7-6-8-1-6 3-2 5v7l1 3-3 3h-2v-3l-3 1v-10l3-6 6-6z" fill="#454342"/>
<path transform="translate(474,183)" d="m0 0h6l-2 1 1 3 3 3 6 1v1l-36 5-3-1 9-4 3-5-3-2z" fill="#8B973E"/>
<path transform="translate(404,801)" d="m0 0 13 1 10 8 11 8 3 3-1 2-17-7-10-7-9-6z" fill="#6A6F41"/>
<path transform="translate(1590,769)" d="m0 0h2v4l3-1 1 7 8 16 5 3 7 5 6 2 1 4-4-1-12-6-2-3-5-3-3-5h-4l-3-12z" fill="#474643"/>
<path transform="translate(703,797)" d="m0 0 5 2-1 4-16 11-10 3h-5l5-5 11-8 6-2 1-3z" fill="#7D8543"/>
<path transform="translate(1174,739)" d="m0 0 5 3 5 10 5 11-1 3-5-9-5-10v-2h-2l1 5-1 20-2 12h-1l-1-11v-16l1-6v-8z" fill="#343131"/>
<path transform="translate(1862,643)" d="m0 0 8 1h27l1 1v7l-4-2-1-1-19-2-5 10-1 5h-1l-1-13-3-3z" fill="#3D3A38"/>
<path transform="translate(1647,592)" d="m0 0h2l-1 9-4 13-2 7h-9l2-4 6-15 3-7z" fill="#4C4C43"/>
<path transform="translate(1347,609)" d="m0 0 9 6 7 2h7l7-4 2-1v2l4-1-5 6-4 2-7 1h-8l-7-2-4-4-2-6z" fill="#474640"/>
<path transform="translate(811,674)" d="m0 0 3 1v5l-12 17-4 3h-2l1-8 7-11 3-1 3-5z" fill="#777F41"/>
<path transform="translate(1794,440)" d="m0 0 2 4 3 7 9 2 11 1 3 1v4h-28l2-8-2-6z" fill="#707743"/>
<path transform="translate(1428,784)" d="m0 0 2 1-6 18v5l-2 2h-9l2-5 4-8 4-11 3 1z" fill="#3F3D37"/>
<path transform="translate(786,215)" d="m0 0 10 3 22 8 21 9v1h-9l-6-3-2-3-8-3-1 2-9-4-3-2h-7l-6-4v-2h-2z" fill="#8A943D"/>
<path transform="translate(742,763)" d="m0 0 6 2-1 3-11 9-11 6-4 3-2-1 5-5 5-4 9-11z" fill="#7F8640"/>
<path transform="translate(1628,702)" d="m0 0 1 4-2 8-6 2h-25v-2l3-2 19-1 6-4z" fill="#383632"/>
<path transform="translate(1301,548)" d="m0 0h15l6 2 3 7v3l-4-2-6-5-3-1h-9l-4 2-2 6-5-1 1-4 5-5z" fill="#4C4B40"/>
<path transform="translate(332,726)" d="m0 0h8l10 13 1 6h-5l-9-10-5-7z" fill="#757E44"/>
<path transform="translate(1401,708)" d="m0 0 2 1v5l-2 1h-34v-4l30-1z" fill="#3A3934"/>
<path transform="translate(1832,788)" d="m0 0 5 2 1-2-2 9-4 11-2 2-7 1 1-5 5-10z" fill="#484642"/>
<path transform="translate(1509,738)" d="m0 0h14l5 3 3 4v3l-4-1-6-4-3-1h-8l-5 4-1 2-4 1-3 1 2-5 7-6z" fill="#383533"/>
<path transform="translate(475,895)" d="m0 0h9l13 2-1 3-10 3-5-1-1 1h-6z" fill="#7A8143"/>
<path transform="translate(1323,645)" d="m0 0 3 1 1 11h-2l-1 3h-3v-5l-4 9-4 11-3 2-1-3 8-17 4-9z" fill="#3C3A37"/>
<path transform="translate(1525,643)" d="m0 0 12 1-1 5-3 2-1 18-2 3-1-1-2-21z" fill="#343131"/>
<path transform="translate(1229,566)" d="m0 0 2 3-1 7-4 10h-2l-3 10-3 6h-2l2-9 9-24z" fill="#383633"/>
<path transform="translate(838,619)" d="m0 0 1 3-1 3-1 13-4 3-3 8-5 2 2-9 5-10 5-12z" fill="#696E42"/>
<path transform="translate(1234,549)" d="m0 0h3l5 12v3l-8 1-2 5-2-1-1-4 2-4 2-11z" fill="#46443C"/>
<path transform="translate(1673,644)" d="m0 0 4 1 5 12v3l-11-1-1 4-1-3 2-5z" fill="#363433"/>
<path transform="translate(1163,443)" d="m0 0 1 3-6 9v2l6 1v1h-23l-3-3 3-2 12-1 6-3z" fill="#737C42"/>
<path transform="translate(281,631)" d="m0 0h2l3 8 2 5 3 11-4-2-10-16-2-3 5-1z" fill="#717A42"/>
<path transform="translate(1221,771)" d="m0 0h1l-1 8-8 16h-2l-1 2-1-5 8-18z" fill="#393733"/>
<path transform="translate(1433,711)" d="m0 0 13 1 25 1-3 2-7 1h-27l-3-3z" fill="#393633"/>
<path transform="translate(1616,443)" d="m0 0h1l1 8 14 4 2 4h-30v-1h13l-1-6z" fill="#6F7741"/>
<path transform="translate(540,847)" d="m0 0 5 2 14 10 1 4-9-2-6-2-1-6h-2v-4h-2z" fill="#5A5742"/>
<path transform="translate(1955,759)" d="m0 0h2v3l4-3h2l2 4-2 3 8 10 1 4-4-2-9-9-4-6z" fill="#353231"/>
<path transform="translate(1224,586)" d="m0 0h2v2h19l1 5h-21l-3 4-1-4z" fill="#535346"/>
<path transform="translate(1989,380)" d="m0 0 9 1-1 2-4 1-5 3-10-1-7-1-1-3 2-1z" fill="#454345"/>
<path transform="translate(1753,738)" d="m0 0h5l1 1 8 1-4 6-1 9h-2l-5-10z" fill="#343231"/>
<path transform="translate(860,564)" d="m0 0 1 3-3 12-3 13-3 1-1-11 2-7 4-5 2-5z" fill="#6E7340"/>
<path transform="translate(1720,804)" d="m0 0h4v5l-2 1h-22v-3-2h16z" fill="#3C3B37"/>
<path transform="translate(1551,453)" d="m0 0 15 1 4 1-1 4h-31v-1l14-1z" fill="#707841"/>
<path transform="translate(303,678)" d="m0 0 6 1 3 6 2 3-1 4h-2l1 5-3-3-7-12z" fill="#727B42"/>
<path transform="translate(1809,535)" d="m0 0h12l14 1-2 4-25-1-1-3z" fill="#3F3D38"/>
<path transform="translate(1304,452)" d="m0 0 17 3v4l-6 1h-25v-1h17l-3-5z" fill="#767F43"/>
<path transform="translate(1770,711)" d="m0 0h7l5 2h14l11 1-4 2h-20l-13-1z" fill="#403E34"/>
<path transform="translate(1325,763)" d="m0 0h1l1 40 3 3v-6h1l2 6v4h-10l1-7z" fill="#4C4C3F"/>
<path transform="translate(1967,737)" d="m0 0h10l7 2 3 4v5h-3l-7-6-8-1-3-1h2z" fill="#4A4942"/>
<path transform="translate(1660,549)" d="m0 0 4 2 3 6v2l-6 1v-6h-2l1 10-2 7-1-2-4 2 2-6 2-4 2-10z" fill="#4B4A3E"/>
<path transform="translate(1698,770)" d="m0 0 1 2h24v4h-17l-8-1z" fill="#403F39"/>
<path transform="translate(1441,644)" d="m0 0h25l8 2v2l-4 2-14-2-2-2-12-1v2h-2z" fill="#333031"/>
<path transform="translate(688,302)" d="m0 0 17 4 4 3-1 3-12-2-6-4-4-3z" fill="#4E4E43"/>
<path transform="translate(1656,701)" d="m0 0h3l-2 11-1 3h-10l6-12 1 3h3z" fill="#4D4C42"/>
<path transform="translate(1394,643)" d="m0 0 5 1 1 7h-3l-9-3-9-1v-2l3-1z" fill="#444242"/>
<path transform="translate(1180,451)" d="m0 0 10 3 4 4-1 1h-22v-1l9-1-1-5z" fill="#767D48"/>
<path transform="translate(426,810)" d="m0 0 7 4 8 7-1 2-17-7-2-3 5-1z" fill="#757D41"/>
<path transform="translate(1259,702)" d="m0 0h3v3l-2 1 3 1 1 8h-10l2-9 1-3z" fill="#353332"/>
<path transform="translate(1430,774)" d="m0 0h2v5h9l2 2-12 1-4 5-2 2-1-5 3-9z" fill="#322F31"/>
<path transform="translate(1376,646)" d="m0 0 1 3-1 26-3-2v-26z" fill="#2E2B2E"/>
<path transform="translate(1862,643)" d="m0 0 14 2-2 1-1 4-3 4-2 8h-1l-1-13-3-3z" fill="#343130"/>
<path transform="translate(1564,551)" d="m0 0 2 2 2 12-1 2-10-11v-3z" fill="#4F4E48"/>
<path transform="translate(1378,612)" d="m0 0 1 2 4-1-5 6-4 2-7 1h-8v-1l5-1-4-2 13-2z" fill="#4B4A43"/>
<path transform="translate(265,834)" d="m0 0 6 2 9 6 13 4v2h-8l-2 1-8-7-7-3z" fill="#6D7441"/>
<path transform="translate(1174,739)" d="m0 0 5 3 5 10 5 11-1 3-5-9-5-10v-2l-3 1-2 3v-8z" fill="#3D3B36"/>
<path transform="translate(1368,453)" d="m0 0 10 1 5 3-1 2h-26v-1h13z" fill="#6F7741"/>
<path transform="translate(1655,569)" d="m0 0h2l-1 9-2 4h-3l-2 7-2 1 1-7 4-11z" fill="#373533"/>
<path transform="translate(386,779)" d="m0 0 5 5 6 7-1 5h-3l-4-6-4-5h3l-2-3z" fill="#7C8342"/>
<path transform="translate(1963,379)" d="m0 0h20l-2 2-9 1-1 2-13-1v-3z" fill="#616142"/>
<path transform="translate(1567,605)" d="m0 0 1 3-2 8-4 4-6 1v-3l-2-2 7-3 4-5z" fill="#535248"/>
<path transform="translate(869,536)" d="m0 0h2l2 8-3 9-4 6-2-1 4-16z" fill="#96B04E"/>
<path transform="translate(1596,451)" d="m0 0 2 1v7h-14v-4l11-3z" fill="#717841"/>
<path transform="translate(1850,738)" d="m0 0 4 4 2 6-10 6 3-14z" fill="#48463E"/>
<path transform="translate(688,807)" d="m0 0 2 4 3-2 4 1-9 5-7 2h-5l5-5z" fill="#8A953D"/>
<path transform="translate(1601,794)" d="m0 0 6 2 9 7 6 2 1 4-4-1-12-6z" fill="#4E4E43"/>
<path transform="translate(864,804)" d="m0 0 2 1-7 7-8 4-12 9-6 1 5-4 21-14zm-33 22 2 1z" fill="#7D8644"/>
<path transform="translate(1509,738)" d="m0 0 4 1 3 2-8 2-4 5-4 1-3 1 2-5 7-6z" fill="#3D3B37"/>
<path transform="translate(361,761)" d="m0 0 6 1 2 2 8 3 2 5-4-1-1-2-4-1-2 2-7-7z" fill="#878F40"/>
<path transform="translate(1176,745)" d="m0 0h2l6 12-1 3-3-2-2 1-2 3z" fill="#4E4B42"/>
<path transform="translate(780,722)" d="m0 0h2l-2 4-1 5-6 5-2-1 1-4 3-7z" fill="#707642"/>
<path transform="translate(1421,802)" d="m0 0 3 1v5l-2 2h-9l2-5z" fill="#45433D"/>
<path transform="translate(774,725)" d="m0 0 1 3-3 4v5l-4 3h-2v2l-4 2 1-5 10-12z" fill="#8B9551"/>
<path transform="translate(1795,613)" d="m0 0h3v2h4l-1 5h-12z" fill="#4B4A43"/>
<path transform="translate(1651,582)" d="m0 0h3l-2 6 4 1-1 3-4 1-2 2v-3l-5 3 2-7 2 1z" fill="#54534C"/>
<path transform="translate(1442,738)" d="m0 0 3 2 3 9v6l-3-3-1-6-6 2 3-9z" fill="#353231"/>
<path transform="translate(314,689)" d="m0 0 3 3 2 6v4l-6-2-2-3v-5z" fill="#8A963E"/>
<path transform="translate(1655,589)" d="m0 0h14l3 1v3h-12l-5-1z" fill="#4C4B3F"/>
<path transform="translate(1622,647)" d="m0 0 5 2 1 1v10h-2l-6-10z" fill="#4F4D43"/>
<path transform="translate(1659,554)" d="m0 0h2v6l6-1 1 5-5-1 3 3v2l-3 1-2-5h-2z" fill="#312E30"/>
<path transform="translate(1256,600)" d="m0 0 3 4 4 10v3l-5-1-2-5v-7l-1-2z" fill="#5A5842"/>
<path transform="translate(376,772)" d="m0 0 5 1 5 5 2 7-5-1-3-3 1-5-3-2h-2z" fill="#717941"/>
<path transform="translate(1321,654)" d="m0 0 1 3-1 3 2 1v2l-4 4-4 7-1-4 5-13z" fill="#4B4A43"/>
<path transform="translate(1550,617)" d="m0 0h7l-1 4-2 1h-12l1-4z" fill="#3E3C3C"/>
<path transform="translate(1448,549)" d="m0 0h10l4 2-2 4-5-1-8-3z" fill="#353232"/>
<path transform="translate(1615,739)" d="m0 0h6l-1 3-10 5-3 2v-3l3-5z" fill="#4A4A3F"/>
<path transform="translate(1526,709)" d="m0 0 4 2 9 2-1 2-9 1-4-2z" fill="#4C4A4A"/>
<path transform="translate(1385,629)" d="m0 0h11v4h-15z" fill="#43423D"/>
<path transform="translate(742,763)" d="m0 0 6 2-1 3-5 4h-3l1-4-2-1 1-3z" fill="#7E8642"/>
<path transform="translate(1679,653)" d="m0 0 2 1 1 6-11-1-1 4-1-3 5-5z" fill="#333031"/>
<path transform="translate(1894,304)" d="m0 0h13l-4 2-12 5-1-5z" fill="#707942"/>
<path transform="translate(1529,681)" d="m0 0h2l1 2v15l-3 1z" fill="#2E2B2E"/>
<path transform="translate(1768,643)" d="m0 0 10 2v5h-2l-1 2h-3z" fill="#363431"/>
<path transform="translate(1681,615)" d="m0 0 12 3 1 3h-12l-1-1z" fill="#44423D"/>
<path transform="translate(1345,451)" d="m0 0v3l-4 4 2 1h-12l2-4 11-3z" fill="#777F49"/>
<path transform="translate(1551,549)" d="m0 0h10l3 1v2l-7 1v2l-6-2z" fill="#373435"/>
<path transform="translate(213,816)" d="m0 0 13 6 5 2v2h2v3l-5-2-15-9z" fill="#7E8844"/>
<path transform="translate(1378,600)" d="m0 0 6 1-1 6-2 7h-2z" fill="#353431"/>
<path transform="translate(1810,454)" d="m0 0h9l3 1v4h-15v-1h7l-1-2z" fill="#7A8243"/>
<path transform="translate(703,797)" d="m0 0 5 2-1 4-6 3-1-4-2-2z" fill="#8A953D"/>
<path transform="translate(738,765)" d="m0 0 2 3-1 4 2 1-5 3-1-3-5 3 2-4z" fill="#89943D"/>
<path transform="translate(1647,592)" d="m0 0h2l-1 9-1 1h-5l1-6z" fill="#353331"/>
<path transform="translate(284,638)" d="m0 0 3 3 3 10 1 4-4-2-3-4v-2h2l-2-5z" fill="#848E41"/>
<path transform="translate(1435,619)" d="m0 0h21l-1 2-7 1h-12z" fill="#3E3C34"/>
<path transform="translate(1394,643)" d="m0 0 5 1 1 7h-3l-5-3 2-1-1-3z" fill="#3E3D35"/>
<path transform="translate(834,852)" d="m0 0 3 1-21 9v-3l12-5z" fill="#808B45"/>
<path transform="translate(855,572)" d="m0 0h1l-1 10-2 10h-1l-1-10 2-7z" fill="#97AE50"/>
<path transform="translate(1821,549)" d="m0 0 3 1v7l-6 1 1-7z" fill="#393634"/>
<path transform="translate(1298,550)" d="m0 0h2l-1 4-2 6-5-1 1-4z" fill="#363333"/>
<path transform="translate(1380,678)" d="m0 0h14l-1 3h-13z" fill="#2E2B2E"/>
<path transform="translate(1594,617)" d="m0 0 12 1v3h-11z" fill="#403E34"/>
<path transform="translate(1854,747)" d="m0 0 3 2v5h-8-3l5-4z" fill="#312E30"/>
<path transform="translate(1441,644)" d="m0 0h25v1l-6 1v2l-6-1v-1l-12-1v2h-2z" fill="#4D4C43"/>
<path transform="translate(1495,800)" d="m0 0h2l4 6-4 4-3-3z" fill="#565350"/>
<path transform="translate(1697,745)" d="m0 0h1v19l-1 4h-2v-9l1-2z" fill="#434144"/>
<path transform="translate(1770,711)" d="m0 0h7l4 4h-11z" fill="#312E30"/>
<path transform="translate(647,830)" d="m0 0 3 1-3 6h-5l1-5z" fill="#899251"/>
<path transform="translate(1441,659)" d="m0 0h1v27h-1l-1-12-2-1 1-5h1z" fill="#434144"/>
<path transform="translate(1314,664)" d="m0 0h2l-1 6-3 6h-3l3-9z" fill="#333032"/>
<path transform="translate(303,854)" d="m0 0 5 1 3 2-2 4-5-1z" fill="#6D7441"/>
<path transform="translate(1908,807)" d="m0 0h12v3h-12z" fill="#312E2F"/>
<path transform="translate(347,738)" d="m0 0 3 1 1 6h-5l-3-4h2v-2z" fill="#89933C"/>
<path transform="translate(1883,677)" d="m0 0h15v5l-5-1v-2l-10-1z" fill="#5C5E43"/>
<path transform="translate(256,573)" d="m0 0 2 2 4 17h-3l-3-14z" fill="#7D843F"/>
<path transform="translate(1442,645)" d="m0 0h15l-3 2-14 2z" fill="#373534"/>
<path transform="translate(798,690)" d="m0 0 1 3h2v2l2 1-5 4h-2l1-8z" fill="#96B04E"/>
<path transform="translate(1390,677)" d="m0 0h9v5h-9l4-4z" fill="#6C6C5B"/>
<path transform="translate(1895,297)" d="m0 0h2l-1 4-8 2h-3v-2z" fill="#727A42"/>
<path transform="translate(476,187)" d="m0 0 5 1-1 2 8 1v1l-14 1 2-3z" fill="#95AF4D"/>
<path transform="translate(1897,708)" d="m0 0 2 1v6h-6l1-4-2-1z" fill="#4C4B43"/>
<path transform="translate(811,674)" d="m0 0 3 1v5l-1 1h-5l1-5z" fill="#838C3D"/>
<path transform="translate(1681,613)" d="m0 0h8l3 5-6-1-4-1-2 1z" fill="#565242"/>
<path transform="translate(1809,535)" d="m0 0h12v1l-6 1-1 2h-6l-1-3z" fill="#6D6F59"/>
<path transform="translate(864,804)" d="m0 0 2 1-7 7-6 3-3-1 13-9z" fill="#7F8945"/>
<path transform="translate(1759,739)" d="m0 0h20l-3 1v2l-17-2z" fill="#413E3A"/>
<path transform="translate(1892,711)" d="m0 0h2l-1 4h-13l1-2 9-1z" fill="#2E2B2E"/>
<path transform="translate(1665,681)" d="m0 0 1 2 9 1 1 3h-9l1-2-3-1z" fill="#58584A"/>
<path transform="translate(1678,649)" d="m0 0 2 4-7 4h-2l1-5 4-2z" fill="#514E42"/>
<path transform="translate(830,642)" d="m0 0h2l-1 6-4 3h-2l2-6z" fill="#757E42"/>
<path transform="translate(851,594)" d="m0 0 1 4-1 6h-2l-2 5-3 3 2-6z" fill="#798241"/>
<path transform="translate(1652,779)" d="m0 0h4l-1 20h-1l-1-14z" fill="#636642"/>
<path transform="translate(1442,745)" d="m0 0 3 1 1 9-2-1v-2h-2l-2-5z" fill="#5B5C42"/>
<path transform="translate(1378,738)" d="m0 0 7 1-1 4h-2v6h-1z" fill="#555042"/>
<path transform="translate(1534,549)" d="m0 0h15v3l-9-1-6-1z" fill="#322F31"/>
<path transform="translate(1263,711)" d="m0 0 1 4h-10l1-3h7z" fill="#4E4E43"/>
<path transform="translate(1879,678)" d="m0 0h11l3 1v2l-14-1z" fill="#2E2B2E"/>
<path transform="translate(838,619)" d="m0 0 1 3-2 11-2-3-2 2 1-5z" fill="#757C3F"/>
<path transform="translate(1302,549)" d="m0 0h13l1 4-13-2z" fill="#403E3F"/>
<path transform="translate(555,857)" d="m0 0 4 2 1 4-6-1-1-4z" fill="#5E6243"/>
<path transform="translate(1178,754)" d="m0 0 5 1 1 5-4-2-2 1-2 3v-5h2z" fill="#5E5E42"/>
<path transform="translate(1360,618)" d="m0 0h11l-4 4h-8v-1l5-1z" fill="#535343"/>
<path transform="translate(404,801)" d="m0 0 13 1v1h-5v2l-4 1-4-3z" fill="#7E8743"/>
<path transform="translate(1583,647)" d="m0 0h2l2 4-4 2h-3-2l2-4z" fill="#545442"/>
<path transform="translate(708,879)" d="m0 0h2v2l-10 4-3-3z" fill="#8C9940"/>
<path transform="translate(392,786)" d="m0 0 5 5-1 5h-3v-6z" fill="#8B973F"/>
<path transform="translate(1443,752)" d="m0 0 2 2 4-2 2 6-7-2-1 2-1-5z" fill="#4D4C42"/>
<path transform="translate(1651,711)" d="m0 0h5v4h-8z" fill="#343233"/>
<path transform="translate(1774,680)" d="m0 0 2 4-1 8h-2v-10z" fill="#2E2B2E"/>
<path transform="translate(1320,651)" d="m0 0 1 4-4 9h-2l1-5z" fill="#3B3934"/>
<path transform="translate(1582,650)" d="m0 0 1 4-10 4 2-4 3-2h4z" fill="#373434"/>
<path transform="translate(1432,614)" d="m0 0 6 2 8 1v1h-5v2l-4-1-5-3z" fill="#656942"/>
<path transform="translate(1602,548)" d="m0 0 5 1-1 6h-3z" fill="#4D4D43"/>
<path transform="translate(1820,808)" d="m0 0 2 1-4 2v-2z" fill="#5F613F"/>
<path transform="translate(1736,644)" d="m0 0" fill="#6D7441"/>
</svg>
