<svg xmlns="http://www.w3.org/2000/svg" xml:space="preserve" id="Layer_1" x="0" y="0" version="1.1" viewBox="0 0 336 295">
                <style>
                    .st0{fill-rule:evenodd;clip-rule:evenodd;fill:#508c54}
                </style>
                <path d="m173.7 23.3 111.4 64.6V64.7L173.7.1v23.2z" class="st0"/>
                <path fill="#2c4d94" fill-rule="evenodd" d="M285.1 97.7v23.2L173.7 56.3V33.1l111.4 64.6zM162.8 0 51.1 64.6V115h20V76.3l91.7-53.1V0zm5.3 295-117-67.7v-26.1h20v14.5l97 56.2 97-56.3v-14.5h20v26.1l-117 67.8z" clip-rule="evenodd"/>
                <path d="M1.8 180.8v-46h33.1c7 0 14.3 3.4 14.3 11.7 0 5.1-1.3 8.1-5.2 9.9 4.9 1.6 6.5 6 6.5 11.7 0 9.8-8 12.7-15.3 12.7H1.8zm9.7-39.3v12.1h20.9c4.2 0 7.5-1.2 7.5-5.9 0-4.8-3.7-6.2-7.3-6.2H11.5zm0 18.7V174h20.9c4.2 0 8.8-.7 8.8-6.9 0-5.8-4.2-7-8.6-7H11.5zm44.8 20.6v-46h33.1c4.2 0 7.5.4 10.7 2.3 4.2 2.6 5.5 5.5 5.5 11.3 0 4 .3 6.9-2.2 9.1-1.5 1.4-2.9 2.2-4.7 2.6 2 .6 3.1 1.4 4.4 3 1.3 1.7 1.8 3.2 1.7 5.4v12.3h-9.4v-12.2c0-1.8-.3-2.4-1.3-3.5-1.2-1.4-2.7-1.6-4.5-1.6H65.9v17.3h-9.6zm9.6-23.9v-15.4H89c4.8 0 7.3 3.2 7.6 7.3.3 4.4-2.6 8.2-7.9 8.2H65.9zm42.2 23.9 23-46h13l21.5 46h-10.3l-4.2-9.4h-28l-4.8 9.4h-10.2zm18-16.1 11.8-24.1 10.1 24.1h-21.9zm81.9-14.2v-5.4c-.4-1.1-.8-1.6-1.7-2.4-1.4-1.2-2.7-1-4.6-1.2h-18.5c-2 .1-3.2.1-4.8 1.2-1.4 1-2.1 2.1-2.5 3.8v21.2c0 2.4.2 3.5 1.7 4.7 2 1.6 3.9 1.7 7 1.7h16.2c2.5 0 3.8.1 5.4-1 1.2-.9 1.9-2.1 1.9-3.9v-5.6h9.8v7.4c0 2.8-1.6 5.7-4.4 7.1-4.2 2.2-10.7 2.6-11.9 2.6h-20c-3.7 0-7.2-.4-10.8-2.6-2.8-1.7-4.2-4-4.2-7.7V146c.1-2.8 1.6-5.9 4.8-8.1 3.1-2 6.2-3.1 12-3.1h18c4.5 0 10.5.4 12.9 3.5 1.8 2.2 2.7 3.7 3 6.5v5.7H208zm57.2 0v-5.4c-.4-1.1-.8-1.6-1.7-2.4-1.4-1.2-2.7-1-4.6-1.2h-18.5c-1.9.1-3.2.1-4.8 1.2-1.4 1-2.1 2.1-2.5 3.8v21.2c0 2.4.1 3.5 1.7 4.7 2 1.6 3.8 1.7 7 1.7H258c2.5 0 3.7.1 5.4-1 1.2-.9 1.9-2.1 1.9-3.9v-5.6h9.8v7.4c0 2.8-1.6 5.7-4.4 7.1-4.2 2.2-10.6 2.6-11.8 2.6h-20.1c-3.7 0-7.2-.4-10.7-2.6-2.7-1.7-4.2-4-4.2-7.7V146c.1-2.8 1.5-5.9 4.8-8.1 3-2 6.3-3.1 12-3.1h18c4.5 0 10.5.4 13 3.5 1.7 2.2 2.7 3.7 3 6.5v5.7h-9.5zm69 19.1c0 2.8-2.6 7.4-5.4 8.9-4.2 2.2-9.7 2.3-10.9 2.3h-22.8c-3.7 0-7.2-.4-10.7-2.6-2.8-1.7-4.2-4-4.2-7.7V146c.1-2.8 1.5-5.9 4.8-8.1 3.1-2 6.3-3.1 12.1-3.1h20.7c4.5 0 8.4.8 11.5 3.1 2.5 1.9 4.9 5.5 4.9 7.8v23.9zm-9.5-23.1c-.4-1.1-1.3-2.9-2.2-3.7-1.4-1.2-2.7-1-4.6-1.2h-21.2c-2 .1-3.2.1-4.8 1.2-1.4 1-2.1 2.1-2.5 3.8v21.2c0 2.4.1 3.5 1.7 4.7 2 1.6 3.8 1.7 7 1.7H317c2.5 0 3.8.1 5.4-1 1.2-.9 2.3-2.3 2.3-4.2v-22.5z" class="st0"/>
            </svg>