<?xml version="1.0" encoding="UTF-8"?>
<svg version="1.1" viewBox="0 0 1715 925" width="1715" height="925" xmlns="http://www.w3.org/2000/svg">
<path transform="translate(269,64)" d="m0 0h40l25 3 27 6 30 10 20 9 18 10 18 12 5-1 21-12 25-12 28-10 25-7 28-5 22-2h30l26 3 25 6 20 8 14 8 13 10 10 10 10 15 6 15 2 7-1 4-10-7 2 9-1 4-15-10-18-10-21-10-30-10-22-5-22-3-16-1h-16l-25 2-23 4-25 7-20 8-17 8 6 7 8 8 5 6 19-9 14-6 26-8 23-4 9-1h36l23 3 26 6 23 8 20 9 21 11 17 11 1 1v10l-4 10-6 8-8 6-9 6-5-3-14-10-15-9-15-8-20-8-21-6-15-3-20-2h-19l-20 2-22 5-18 6-5 2 5 9 4 6v2l18-8 17-5 16-3 10-1h26l22 3 20 5 18 7 16 8 15 10 7 6-1 3-11 7-8 4-9 2h-22l-27-7-20-3h-33l-18 3-14 4h-3l9 24 6 21 5 25 3 29v35l-3 28-6 29-8 26-6 15v2l13 6 16 5 18 3h26l24-4 23-7 12-3h13l12 3 8 4 1 3-16 12-18 11-19 9-19 6-21 4-12 1h-19l-24-3-19-5-18-7h-2l-8 13 6 2 18 8 23 7 24 4h35l20-3 21-6 20-8 18-10 14-10 6-5 5-3 4-3 5 2 9 9 6 12 1 9-11 9-24 16-18 10-25 10-21 6-23 4-9 1h-40l-23-3-25-6-20-7-20-9-4-2-9 9-3 2v2l22 12 19 8 21 7 21 5 20 3 10 1h35l25-3 23-5 23-7 21-9 20-10 13-8h1l-1 8-5 13-7 11-9 10-10 9-17 11-16 8-13 5-20 5-24 3h-37l-26-3-26-5-24-7-20-7-29-13-18-10-6-4-5 1-17 11-10 6-4 3-10 4-24 10-26 8-25 5-29 3h-26l-23-2-23-4-22-6-25-9-25-12-23-13-9-6-5-5-14-12-12-11-10-10-9-11-10-12-14-21-10-18-11-23-9-25-7-26-4-24-2-21v-35l3-29 6-29 8-26 10-24 10-20 13-21 16-21 9-10 7-8 13-13 11-9 14-11 24-16 17-10 21-10 24-9 27-7 25-4z" fill="#27367E"/>
<path transform="translate(287,125)" d="m0 0 13 2 6 5 3 6 2 15 1 1v7l-5 17-3 6 5 10 8 7 4 2 11-1 15-1 11 2 6 3 24 1 21 3 10 3 9-2h59l9-4 8-2 20-1 14 5 2 2-1 8-5 5-9 5-9 3h-18l-18-1-13 2-14 4-6 1h-20l-9-2h-53l-15 3h-6l-2 9-9 27-3 6-1 11v16l1 24 5 21 4 19 8 15 11 26 7 22 5 22 3 25 8 9 9 14 10 19 5 16 9 25 6 12 8 6 8 4 3 4-1 5-2 2h-3v2l-5 3-5 5-12 7-4 3-10 4-24 10-26 8-25 5-29 3h-26l-23-2-23-4-22-6-25-9-25-12-23-13-9-6-5-5-14-12-12-11-10-10-9-11-10-12-14-21-10-18-11-23-9-25-7-26-4-24-2-21v-35l3-29 6-29 8-26 10-24 10-20 13-21 16-21 9-10 7-8 13-13 7-6 2 1-21 21-9 11-10 13-13 20-1 3 4-2 6-1h15l10 3 11 5h27l10-2h18l14 3 7-1 4-1h41l9-4 11-2 21 1 8-4 5-7 1-3v-8l-3-6-2-8-2-6v-6l2-10 3-10 6-7 5-2z" fill="#FDFDFD"/>
<path transform="translate(44,212)" d="m0 0h2l3 5 6 4 14 4 15 1 7-1h13l26 5 9 1h29l15 2 29 2 12 2 13 1 7 28 6 17 1 8v22l-2 15-6 19-4 16-8 10-10 15-12 21-9 21-4 14-2 17-11 11-9 12-8 14-5 12-4 14-5 26-5 15-6 9-16 8-3 4-14-12-10-9-15-15-9-11-13-17-11-17-12-22-10-23-9-27-6-27-3-21-1-11v-42l3-26 6-29 7-23 9-22 8-17z" fill="#1A9DD8"/>
<path transform="translate(1029,194)" d="m0 0h24l23 3 23 6 19 8 17 9 14 10 3 4-5 4-6 4-9 5-9 2h-24l-21-6-16-3-8-1h-33l-18 3-17 5-19 9-10 8-11 11-9 13 3-2h192l18 4 15 6 10 8 6 9 2 8h-10l1 6h-253l-2 14v6l1-2h274v33h-9v6l-264 1 3 14 1 1h259l-2 8-5 8-9 8-14 9-12 5-17 4h-181l9 12 13 13 14 10 16 8 18 6 18 3h28l19-3 21-6 13-4 6-1h11l13 3 9 5-4 5-14 10-18 11-17 8-19 6-14 3-17 2h-22l-18-2-25-6-20-8-18-10-16-12-12-11-10-11-11-16-11-21-6-16-6-25-2-16v-26l4-23 7-24 8-19 8-15 12-17 12-13 10-9 17-12 15-9 17-8 20-6 17-3z" fill="#26377F"/>
<path transform="translate(1297,92)" d="m0 0h1l1 357 5 24 9 27 11 23 9 14 10 13 9 10 10 10 13 10 14 9 17 9 18 7 23 6 20 3 24 1 26-2 25-5 24-8 16-7 17-10 11-9 12-11 12-14 10-15 9-17 8-22 5-24 1-9 1-38 4-301 1-21 8 5 1-11 9 6 12 12 8 14 4 15v115l-1 190-3 26-5 22-7 20-8 17-11 18-10 13-12 14-8 8-11 9-10 8-21 14-16 9-21 10-27 9-22 5-23 3h-41l-22-3-25-6-20-7-21-10-18-11-14-11-12-11-13-13-11-14-10-15-10-18-9-20-8-24-6-24-2-11v-309l3-14 8-16 10-11 10-7z" fill="#27377E"/>
<path transform="translate(365,235)" d="m0 0h53l9 2h26l-7 11-9 16-8 17-8 24-5 25-2 22 1 22 4 23 9 27 8 16 8 14 10 14 13 15 10 10 11 9 15 11 18 10 15 7 24 8 20 4 8 1h35l20-3 21-6 20-8 18-10 14-10 6-5 5-3 4-3 5 2 9 9 6 12 1 9-11 9-24 16-18 10-25 10-21 6-23 4-9 1h-40l-23-3-25-6-20-7-20-9-4-2-9 9-3 2v2l22 12 19 8 21 7 21 5 20 3 10 1h35l25-3 23-5 23-7 21-9 20-10 13-8h1l-1 8-5 13-7 11-9 10-10 9-17 11-16 8-13 5-20 5-24 3h-37l-26-3-26-5-24-7-20-7-29-13-18-10-6-4-5 1-9 6-2-1 4-3h2v-2l4-2 1-5-5-5-10-5-6-7-8-19-6-19-5-14-10-19-9-13-7-8-3-25-6-26-9-26-8-18-8-15-5-24-4-16-1-24v-16l1-11 6-14 9-28z" fill="#26377F"/>
<path transform="translate(1327,77)" d="m0 0h33v68l-2 295 4 22 7 21 10 19 11 14 12 12 16 11 16 8 13 5 17 4 18 2h14l18-2 20-5 19-8 11-7 10-9 8-8 9-13 8-15 7-21 3-17 1-24 4-342 7-2h2l1-5 21-3h6l1 144 2 202v17l-3 22-5 20-8 20-8 15-10 14-11 12-10 10-16 12-21 13-15 7-24 8-21 4-11 1h-25l-22-3-19-5-16-6-21-11-14-10-13-12-8-8-11-15-10-17-8-19-6-21-4-24v-39l3-263 1-62h9z" fill="#26377F"/>
<path transform="translate(1042,74)" d="m0 0h27l21 2 24 5 21 7 19 10 11 8 12 11 10 14 7 15 3 11-1 3-11-7 3 10-1 3-17-11-18-10-17-8-25-9-24-6-26-4-14-1h-23l-22 2-22 4-19 5-20 7-20 9-20 12-12 9-14 12-13 13-9 11-10 13-13 21-11 22-8 21-6 19-6 27-1 6v39l3 28 6 29 8 26 10 23 11 21 8 12 12 16 12 14 13 13 11 9 13 10 21 13 16 8 16 7 24 8 23 5 24 3h39l24-3 23-5 30-10 24-11 21-12 2-1-1 8-5 13-7 11-9 10-10 9-17 11-16 8-17 6-23 5-19 2h-32l-21-2-24-4-24-6-27-9-23-10-20-10-21-13-14-10-16-13-13-12-13-13-9-11-10-13-12-19-12-23-8-20-6-19-5-22-3-21-1-11v-42l4-36 5-24 8-26 10-24 10-19 11-17 12-16 12-14 19-19 11-9 13-10 27-18 16-9 16-8 21-9 27-9 26-6 27-4z" fill="#27377F"/>
<path transform="translate(1026,139)" d="m0 0h38l28 4 26 7 24 9 25 12 20 12 7 5v9l-4 11-7 9-10 7-6 4-4-2-18-13-18-10-19-9-27-9-21-4-26-2-22 1-23 4-20 6-19 8-16 9-13 10-12 11-11 12-13 18-12 22-8 20-6 21-4 21-1 9v26l3 21 5 19 7 19 11 21 8 12 10 13 11 12 9 9 14 11 13 9 16 9 15 7 24 8 20 4 9 1h34l24-4 20-6 18-8 17-9 16-12 10-7 2-2 5 1 10 10 5 10 2 7-1 5-16 12-17 11-18 10-19 8-18 6-22 5-24 3h-33l-25-3-25-6-21-7-20-9-19-11-14-10-11-9-13-12-12-13-12-16-12-20-10-21-10-30-5-25-2-16-1-14v-18l4-26 6-23 10-25 12-23 10-15 10-13 18-20 10-9 15-12 18-12 15-9 23-11 27-9 26-5z" fill="#27377F"/>
<path transform="translate(285,389)" d="m0 0 4 1 8 14 14 25 15 25 12 18 8 13 6 11 6 19 7 16 6 11 8 10 10 11 10 14 4 11 3 9 2 12 4 4-17 8-25 9-22 6-23 4-21 2h-31l-28-3-24-5-26-8-21-9-16-8-10-6v-1l6-2 1-14 5-8 5-20 6-12 9-11 9-14 9-16 7-15 3-10 12-12 9-11 12-13 11-12 9-11 12-15 10-16z" fill="#1A9DD8"/>
<path transform="translate(269,64)" d="m0 0h40l25 3 27 6 30 10 20 9 18 10 20 13-4 4-13 9-16 13-13 12-10 10-9 11-13 17-9 14-15-3-15 1-11 1-9-6-6-7-3-8 4-7 4-15v-7l-1-1-2-15-4-7-7-4-10-1-9 2-6 5-3 7-2 13-1 2 1 9 2 5 2 9 2 3v8l-4 8-8 6-8 1-16-1-11 2-9 4h-41l-7 2-8-1-10-2h-18l-10 2h-27l-16-7-5-1h-15l-8 2-3 1 2-6 13-19 10-13 12-14 17-17 5-6 19-14 17-11 17-10 21-10 24-9 27-7 25-4z" fill="#1A9DD8"/>
<path transform="translate(1386,98)" d="m0 0 3 1 13 18 12 16 4 6 1 297 2 14 5 15 7 11 8 9 11 7 11 5 15 3h18l18-4 12-5 9-7 7-8 8-14 4-13 1-6 1-298 14-19 13-18 4-4 1 3 7-9h1v135l-1 159-1 41-3 17-5 16-8 17-10 14-15 15-21 14-16 8-17 5-19 2-16-1-17-4-15-6-11-7-10-8-8-8-8-11-8-14-7-19-4-19-1-9v-71l2-254 1-6 5 5 2 3z" fill="#26367E"/>
<path transform="translate(601,65)" d="m0 0h30l26 3 25 6 20 8 14 8 13 10 10 10 10 15 6 15 2 7-1 4-10-7 2 9-1 4-15-10-18-10-21-10-30-10-22-5-22-3-16-1h-16l-25 2-23 4-25 7-20 8-17 8 6 7 8 8 5 6 19-9 14-6 26-8 23-4 9-1h36l23 3 26 6 23 8 20 9 21 11 17 11 1 1v10l-4 10-6 8-8 6-9 6-5-3-14-10-15-9-15-8-20-8-21-6-15-3-20-2h-19l-20 2-22 5-18 6-5 2 5 9 4 6v3h-2l-1 2-20 1-11 3-6 3h-59l-11 2-8-3-21-3-24-1-2-1 2-6 12-17 8-10 12-14 15-15 11-9 15-12 20-13 18-10 23-11 28-10 25-7 28-5z" fill="#26377E"/>
<path transform="translate(417,235)" d="m0 0 10 2h26l-7 11-9 16-8 17-8 24-5 25-2 22 1 22 4 23 9 27 8 16 8 14 10 14 13 15 10 10 11 9 15 11 18 10 15 7 24 8 20 4 8 1h35l20-3 21-6 20-8 18-10 14-10 6-5 5-3 4-3 5 2 9 9 6 12 1 9-11 9-24 16-5 3-9 3-20 8-21 6-22 4-9 1h-42l-28-4-26-7-25-10-17-9-17-11-13-10-10-9-8-7-10-11-13-17-12-20-11-23-9-27-5-24-3-25v-30l4-24 5-19 8-22 12-24z" fill="#27367E"/>
<path transform="translate(591,223)" d="m0 0h32l20 3 19 5 7 2h23l11-2-4 4-11 4-5 1h-22l-27-7-20-3h-33l-18 3-14 4h-3l9 24 6 21 5 25 3 29v35l-3 28-6 29-8 26-7 17-9-5-14-11-9-9-10-13-9-16-7-16-5-17-3-17-1-9v-23l3-18 5-17 7-16 7-11 8-10 13-13 15-10 14-7 18-6 15-3z" fill="#1A9DD8"/>
<path transform="translate(601,65)" d="m0 0h30l26 3 25 6 20 8 14 8 13 10 10 10 10 15 6 15 2 7-1 4-10-7 2 9-1 4-15-10-18-10-21-10-30-10-22-5-22-3-16-1h-16l-25 2-23 4-25 7-20 8-15 7-7 3-16 11-16 13-15 14-7 8-12 15-6 8-36-1-2-1 2-6 12-17 8-10 12-14 15-15 11-9 15-12 20-13 18-10 23-11 28-10 25-7 28-5z" fill="#26377E"/>
<path transform="translate(410,235)" d="m0 0h7l-6 11-11 22-9 25-5 20-3 20v30l3 25 5 24 9 27 12 25 11 18 10 13 10 11 7 8 10 9 13 10 15 10 16 9 20 9 21 7 22 5 22 3h42l21-3 25-6 22-8 8-4 3 1-16 8-20 8-21 6-23 4-9 1h-40l-23-3-25-6-20-7-20-9-4-2-9 9-5 4-17-12-11-9-10-9-17-17-11-14-10-14-11-19-11-23-7-19-7-26-5-29-2-28v-22l3-21 7-28 9-25 8-18z" fill="#1A9DD8"/>
<path transform="translate(126,741)" d="m0 0h68l22 1 17 3 13 5 10 6 10 9 7 10 5 11 3 12 1 15-2 18-5 14-6 10-9 10-11 8-11 5-17 4-9 1h-86zm25 17v109h41l19-1 14-3 12-6 6-5 6-9 5-12 2-13v-13l-3-16-5-10-8-9-11-7-9-3-19-2z" fill="#26377F"/>
<path transform="translate(480,230)" d="m0 0h7v4l-9 10-11 17-11 23-7 21-5 23-2 14v15l2 19 4 20 7 21 10 21 10 15 9 11 15 15 15 11 16 9 15 7 23 7 18 3 11 1h20l24-3 22-6 14-6 3 1-21 10-19 6-21 4-12 1h-19l-24-3-19-5-18-7h-2l-8 12-5-2-15-9-16-13-12-11-7-7-9-11-10-14-12-21-8-20-6-21-3-18-1-22 2-22 5-25 8-24 12-25 13-20 17-5z" fill="#1A9DD8"/>
<path transform="translate(572,778)" d="m0 0h13l14 3 9 4 9 6 1-10h22v97l-2 15-4 10-9 10-11 6-12 4-12 2h-24l-16-3-12-5-10-9-4-10v-6l15 1 8 1 4 9 10 5 15 2 15-1 10-3 6-4 6-7 2-8 1-16-11 7-11 4-5 1h-23l-15-4-11-6-7-6-9-13-4-12v-21l4-13 7-11 7-7 12-7 14-4zm0 15-11 4-8 6-5 6-4 10-1 7 1 16 4 11 8 9 10 5 9 2h11l12-3 11-7 6-9 3-11v-17l-4-12-9-10-12-6-4-1z" fill="#26377F"/>
<path transform="translate(427,778)" d="m0 0h19l15 2 12 4 8 5 6 8 2 8 1 57 2 12 4 9h-24l-3-5-1-7-17 9-13 4-15 2h-12l-14-2-13-5-9-8-4-8v-13l4-8 7-7 12-6 11-3 49-6 12-2-2-12-4-6-7-4-9-2h-23l-9 2-9 6-5 10-18-1-5-1 1-5 4-8 8-8 12-6 17-4zm36 54-20 4-30 4-11 4-6 7-1 6 3 7 6 5 11 3h16l16-4 11-7 6-9 2-13v-7z" fill="#26387F"/>
<path transform="translate(1283,101)" d="m0 0 2 1-7 8-5 8-5 15-1 5v312l6 27 8 26 10 23 9 17 12 18 8 10 9 10 15 15 17 13 20 12 19 9 16 6 23 6 27 4h43l27-4 24-6 20-7 15-7 3 1-27 13-27 9-22 5-23 3h-41l-22-3-25-6-20-7-21-10-18-11-14-11-12-11-13-13-11-14-10-15-10-18-9-20-8-24-6-24-2-11v-309l3-14 8-16 10-11z" fill="#D9DADB"/>
<path transform="translate(1435,778)" d="m0 0h15l17 3 13 5 10 7 7 7 6 10 3 11v20l-3 13-6 10-9 9-16 8-15 4-9 1h-12l-19-3-12-5-11-7-8-9-5-10-3-16 1-16 4-13 8-11 10-8 13-6 12-3zm-2 15-12 4-8 6-6 7-4 10-1 6v12l3 12 5 8 9 8 10 4 4 1h18l10-3 10-6 6-7 4-9 1-4v-20l-3-10-6-8-8-6-9-4-5-1z" fill="#26387F"/>
<path transform="translate(876,778)" d="m0 0h15l17 3 13 5 10 7 8 8 6 12 2 8v21l-3 12-5 9-6 7-12 8-14 5-9 2-9 1h-12l-14-2-13-4-11-6-8-7-7-11-4-13v-23l4-12 6-10 9-8 16-8 13-3zm-2 15-12 4-8 6-6 7-4 10-1 16 3 14 5 8 9 8 10 4 4 1h19l12-4 9-7 6-8 3-10v-21l-4-11-8-9-9-5-10-3z" fill="#26377F"/>
<path transform="translate(102,135)" d="m0 0 2 1-21 21-9 11-10 13-13 20-2 6-3 5h-2l-2 5-9 19-9 24-6 21-5 25-3 26v42l3 26 5 25 7 24 10 25 9 19 10 17 11 16 10 13 13 15 17 17 11 9 8 6 4 5 13 7 19 11 16 8 25 10 24 7 27 5 21 2h31l21-2 23-4 22-6 20-7 20-9 2 1-5 4-10 4-24 10-26 8-25 5-29 3h-26l-23-2-23-4-22-6-25-9-25-12-23-13-9-6-5-5-14-12-12-11-10-10-9-11-10-12-14-21-10-18-11-23-9-25-7-26-4-24-2-21v-35l3-29 6-29 8-26 10-24 10-20 13-21 16-21 9-10 7-8 13-13z" fill="#D9DADB"/>
<path transform="translate(851,151)" d="m0 0 2 1-24 24-11 14-10 14-12 20-12 25-7 19-7 26-4 22-3 27v47l3 25 5 24 7 23 11 26 11 20 8 12 12 16 12 14 19 19 11 9 16 12 17 11 16 9 22 11 26 10 27 8 29 6 28 3h33l25-3 21-5 16-6 2 1-16 8-15 5-23 5-19 2h-32l-21-2-24-4-24-6-27-9-23-10-20-10-21-13-14-10-16-13-13-12-13-13-9-11-10-13-12-19-12-23-8-20-6-19-5-22-3-21-1-11v-42l4-36 5-24 8-26 10-24 10-19 11-17 12-16 12-14 19-19z" fill="#D9DADB"/>
<path transform="translate(1016,778)" d="m0 0h15l15 2 13 4 9 6 5 6 4 9v2l-13 2h-10l-5-9-10-5-4-1h-23l-10 3-5 4-1 7 1 4 5 2 13 4 37 8 13 4 10 6 5 6 2 6v10l-5 10-7 7-14 7-13 3-10 1h-13l-17-2-12-4-10-6-8-9-4-10 1-3 17-2h5l4 9 5 5 10 5 5 1h22l11-3 7-6 1-2v-7l-4-5-12-4-38-8-15-5-9-6-5-7-1-3v-12l4-8 9-8 12-5 9-2z" fill="#26387F"/>
<path transform="translate(1575,778)" d="m0 0h15l15 2 15 5 8 6 4 5 4 11-14 2h-9l-4-7v-2l-4-2-11-4h-24l-11 4-4 5v6l5 5 10 3 45 10 13 5 8 6 4 7 1 4v8l-4 10-8 8-14 7-13 3-10 1h-13l-17-2-15-5-9-7-6-7-4-9 1-4 17-2h5l3 8 5 6 11 5 5 1h22l10-3 6-4 3-5v-6l-4-5-13-4-37-8-15-5-9-6-5-7-2-10 2-8 4-6 8-7 12-5 9-2z" fill="#26387F"/>
<path transform="translate(1318,83)" d="m0 0h9v43l-3 263v54l4 23 6 20 7 17 10 18 9 12 9 10 10 10 16 12 18 10 20 8 25 6 16 2h27l22-3 19-5 19-7 4-1-3 3-15 7-24 8-21 4-11 1h-25l-22-3-19-5-16-6-21-11-14-10-13-12-8-8-11-15-10-17-8-19-6-21-4-24v-39l3-263z" fill="#D9DADB"/>
<path transform="translate(736,778)" d="m0 0h13l16 3 14 7 7 9 3 10v76h-23l-1-70-3-9-5-5-9-4-13-1-12 2-12 6-5 6-3 8-1 10-1 57h-23v-102h21l1 13 9-8 11-5z" fill="#26367E"/>
<path transform="translate(1300,778)" d="m0 0h14l14 2 13 5 9 6 7 8 4 9v3l-14 2h-8l-6-10-8-6-8-3h-19l-12 4-8 6-5 8-3 9v22l4 12 8 9 11 5 5 1h18l11-4 8-7 4-8 2-5h9l13 2-1 7-4 8-9 10-11 7-12 4-14 2h-11l-15-2-14-5-11-7-9-10-5-11-2-9v-19l3-12 5-10 9-10 12-7 13-4z" fill="#26387F"/>
<path transform="translate(893,197)" d="m0 0 2 1-13 13-9 11-13 17-14 24-9 20-8 24-5 23-2 15v21l2 22 4 23 7 25 8 20 10 20 12 18 11 14 12 13 13 12 16 12 18 11 15 8 23 9 21 6 20 4 18 2h35l23-3 22-5 21-7 14-6 2 1-16 8-20 8-22 6-24 4-10 1h-33l-25-3-25-6-21-7-20-9-19-11-14-10-11-9-13-12-12-13-12-16-12-20-10-21-10-30-5-25-2-16-1-14v-18l4-26 6-23 10-25 12-23 10-15 10-13 18-20 10-9z" fill="#D9DADB"/>
<path transform="translate(1378,104)" d="m0 0 5 5 3 4v100l-1 127v91l3 18 4 15 8 18 9 14 11 12 11 9 16 9 15 5 10 2 19 1 17-2 17-5 5-1-3 3-14 6-14 4-19 2-16-1-17-4-15-6-11-7-10-8-8-8-8-11-8-14-7-19-4-19-1-9v-71l2-254z" fill="#D9DADB"/>
<path transform="translate(1139,745)" d="m0 0h1l1 35 23 1v13h-24l1 64 2 7 4 2 17 1 3 15-2 1-10 1h-12l-14-3-8-6-3-7-1-9v-66h-17v-13h17v-26z" fill="#26377F"/>
<path transform="translate(1673,102)" d="m0 0 8 5v73l-3 229-1 45-3 22-6 22-9 21-9 15-9 12-12 14-13 12-2-1 11-11 11-14 9-14 8-15 8-22 5-24 1-9 1-38 4-301z" fill="#D9DADB"/>
<path transform="translate(1621,85)" d="m0 0h2v64l-3 262-1 34-3 18-5 16-7 16-10 15-11 12-12 11-2-1 13-13 9-13 8-15 7-21 3-17 1-24 4-342z" fill="#D9DADB"/>
<path transform="translate(933,233)" d="m0 0 2 1-11 11-10 13-9 15-8 16-7 20-6 24-3 21 1 21 4 24 6 21 9 21 9 15 10 13 9 10 7 7 13 10 18 11 15 7 18 6 18 4 16 2h25l22-3 19-5 15-6 6-2-3 3-19 9-19 6-14 3-17 2h-22l-18-2-25-6-20-8-18-10-16-12-12-11-10-11-11-16-11-21-6-16-6-25-2-16v-26l4-23 7-24 8-19 8-15 12-17 12-13z" fill="#D9DADB"/>
<path transform="translate(1586,104)" d="m0 0 2 4-6 9-14 19-3 4v296l-3 14-5 12-7 10-8 9-6 5-2-1 8-9 8-14 4-13 1-6 1-298 14-19 13-18z" fill="#D8DADB"/>
<path transform="translate(475,136)" d="m0 0 2 1 6 7 8 8 5 7-10 7-13 9-11 9-10 9-12 12-5 6-18 3-8-3-11-2 6-7 9-12 10-11 7-8 13-12 17-13z" fill="#1A9DD8"/>
<path transform="translate(1190,781)" d="m0 0h23v102h-23z" fill="#27367E"/>
<path transform="translate(317,781)" d="m0 0h23v102h-23z" fill="#27367E"/>
<path transform="translate(448,590)" d="m0 0 5 1 21 12 21 10 24 9 19 6 25 6 26 4 12 1h37l23-3 21-5 16-6 2 1-16 8-18 6-19 4-18 2h-37l-26-3-26-5-24-7-20-7-29-13-18-10-8-5 5-4z" fill="#D9DADB"/>
<path transform="translate(1034,110)" d="m0 0h20l23 2 23 4 25 7 21 8 21 10 18 11 3 11-1 3-17-11-18-10-17-8-25-9-24-6-26-4-14-1h-23l-22 2-22 4-19 5-20 7-15 7-3-1 22-11 25-9 23-6 27-4z" fill="#D9DADB"/>
<path transform="translate(597,101)" d="m0 0h12l27 2 23 4 23 6 22 8 25 12 16 10 3 10-1 4-15-10-18-10-21-10-30-10-22-5-22-3-16-1h-16l-25 2-23 4-25 7-20 8-9 4-2-1 15-8 20-8 26-8 21-4 16-2z" fill="#D9DADB"/>
<path transform="translate(919,375)" d="m0 0 1 3h265v6h-265z" fill="#D9DADB"/>
<path transform="translate(1038,172)" d="m0 0 23 1 24 4 21 6 20 8 23 12 16 11 9 7-1 3-6 4-4-2-18-13-18-10-19-9-27-9-21-4-26-2-22 1-23 4-20 6-17 7-2-1 15-8 25-9 24-5z" fill="#D9DADB"/>
<path transform="translate(593,163)" d="m0 0h17l20 2 24 5 21 7 22 10 17 10 21 15-5 5-4 2-15-11-18-11-15-8-20-8-21-6-15-3-20-2h-19l-20 2-22 5-24 8v-2l18-8 15-5 23-5z" fill="#D9DADB"/>
<path transform="translate(923,317)" d="m0 0 1 4h249l1 6h-253z" fill="#D9DADB"/>
<path transform="translate(495,548)" d="m0 0 20 9 20 8 26 7 28 4h42l21-3 25-6 22-8 8-4 3 1-16 8-20 8-21 6-23 4-9 1h-40l-23-3-25-6-20-7-20-9-3-2 2-5z" fill="#D9DADB"/>
<path transform="translate(1156,429)" d="m0 0 3 1-14 7-20 5h-49l-134-1-5-8 1-2 2 4h194l17-4z" fill="#D9DADB"/>
<path transform="translate(1031,232)" d="m0 0h31l20 3 23 6 3 1h24l9-1-3 3-10 4-5 1h-24l-21-6-16-3-8-1h-33l-18 3-17 5-11 5-2-1 17-9 18-6 15-3z" fill="#D9DADB"/>
<path transform="translate(591,223)" d="m0 0h32l20 3 19 5 7 2h23l11-2-4 4-11 4-5 1h-22l-27-7-20-3h-33l-18 3-14 4-4-1 10-5 17-5z" fill="#D9DADB"/>
<path transform="translate(530,500)" d="m0 0 6 2 15 6 17 5 18 3 11 1h20l24-3 22-6 14-6 3 1-21 10-19 6-21 4-12 1h-19l-24-3-19-5-18-7v-4z" fill="#D9DADB"/>
<path transform="translate(887,741)" d="m0 0h30l-6 7-12 12-8 7-1 1h-19l2-5z" fill="#26377F"/>
<path transform="translate(515,184)" d="m0 0h2l10 16v3h-2l-1 2-20 1-11 3-6 3h-11l5-5 14-11 18-11z" fill="#1A9DD8"/>
<path transform="translate(1190,741)" d="m0 0h23v21h-23z" fill="#253F86"/>
<path transform="translate(317,741)" d="m0 0h22l1 1v19l-1 1h-22z" fill="#253F86"/>
<path transform="translate(412,561)" d="m0 0 8 6 11 9 19 13-4 4-17 11-2-1 4-3h2v-2l4-2 1-5-5-5-10-5-6-7-5-11z" fill="#1C9DD8"/>
</svg>
