<?xml version="1.0" encoding="UTF-8"?>
<svg version="1.1" viewBox="0 0 2048 580" width="836" height="237" xmlns="http://www.w3.org/2000/svg">
<path transform="translate(272,1)" d="m0 0 3 1v44l-2 19-5 19-5 13-9 17-11 14-15 15-14 11-21 14-23 13-60 30-24 13-19 12-14 10-11 9-15 15-9 13-3 5 1 7 7 11 9 10 7 8 11 9 18 13 8 5 6-2 15-9 25-13 17-8 28-13 16-8 24-14 11-7 16-12 8-7h2l2-4 8-8 10-16 5-15 2-9 3-1v54l-3 17-6 20-11 21-9 12-12 13-11 9-10 8-17 11-21 12-17 9h-2l3 3 23 12 23 14 14 10 13 11 15 15 11 16 8 16 6 19 3 16 1 15v42l-4-1-4-18-8-16-8-10-5-6-8-7-15-12-11-7-22-13-25-13-28-13-18-8-16-8-18-10-10-6-12 7-17 12-14 12-10 11-7 11-6 12-4 18h-3v-49l3-22 4-14 8-19 10-15-1-4-9-13-8-17-4-16-2-15-1-13v-55l2-22 4-19 8-18 12-17 17-17 16-12 21-13 10-6 11-6 38-18 20-9 24-12 14-8 18-11 11-8 11-9 8-7 9-11 8-12 5-15z" fill="#DD1021"/>
<path transform="translate(272,1)" d="m0 0 3 1v44l-2 19-5 19-5 13-9 17-11 14-15 15-14 11-21 14-23 13-60 30-24 13-19 12-14 10-11 9-15 15-9 13-3 5 1 7 2 5-7-1-1 3h-2l-1 10-2 12-2 1-1-7v-55l2-22 4-19 8-18 12-17 17-17 16-12 21-13 10-6 11-6 38-18 20-9 24-12 14-8 18-11 11-8 11-9 8-7 9-11 8-12 5-15z" fill="#DD1021"/>
<path transform="translate(1241,216)" d="m0 0h137v36h-99v48h84v34l-83 1-1 74-1 1h-37z" fill="#DE0F21"/>
<path transform="translate(1538,263)" d="m0 0h18l16 4 12 6 10 9 7 8 8 17 3 12 1 8v19l-1 6h-97l2 9 6 9 5 4 8 4 11 2h12l14-2 16-5 3-1 8 16 4 9v4l-17 7-15 3-8 1h-26l-17-4-14-7-10-8-8-9-8-14-5-19-1-16 3-19 6-16 10-15 10-9 12-7 15-5zm9 33-11 2-8 4-7 7-6 12-1 5h63l-1-10-4-10-5-5-8-4z" fill="#DE0F21"/>
<path transform="translate(1894,266)" d="m0 0h40l4 9 21 62 10 29 3 3 1-7 13-37 15-43 5-15 1-1h40l-3 9-14 35-19 47-13 32-11 28-6 14-8 12-5 5-9 6-12 3h-16l-20-4-1-4 6-31 13 1h14l3-1 2-5 1-6-13-33-14-36-13-33-15-38z" fill="#DE0F21"/>
<path transform="translate(1638,266)" d="m0 0h37l1 1v78l1 13 4 9v2l4 2 11 4h14l12-5 5-6 3-8 1-90h38l1 1v142l-1 1h-29l-5-15-10 9-10 5-11 3h-22l-15-4-11-7-10-11-5-12-3-15z" fill="#DD0F21"/>
<path transform="translate(173,379)" d="m0 0h2l-1 3-17 9h-2l3 3 23 12 23 14 14 10 13 11 15 15 11 16 8 16 6 19 3 16 1 15v42l-4-1-4-18-8-16-8-10-5-6-8-7-15-12-11-7-22-13-25-13-28-13-18-8-16-8-18-10-9-6 4-5 18-10 16-8 13-8 38-19z" fill="#DE0F21"/>
<path transform="translate(1403,207)" d="m0 0h36l1 1 1 167h18v30l-9 3-14 2h-10l-10-3-8-7-4-7-2-9v-176z" fill="#DC1021"/>
<path transform="translate(499,214)" d="m0 0h26l23 5 15 5 8 4-3 9-1 2-5-1-14-5-12-3-15-2h-17l-20 4-14 6-12 8-11 10-8 11-8 16-4 14-1 7v18l4 20 8 17 7 9 8 9 14 10 11 5 12 4 14 2h14l14-2 19-7 12-7 7-5 1-49h-54l-1-1v-11h68v65l-7 7-16 11-17 8-17 4-10 1h-14l-19-3-14-5-14-7-13-10-9-9-8-11-7-12-5-15-3-12-1-10v-10l2-14 6-20 8-15 8-10 8-9 10-8 13-8 19-7z" fill="#B11730"/>
<path transform="translate(1880,266)" d="m0 0h8l1 1v37l-1 1-18 2-12 4-8 7-5 9-2 10-1 72-1 1h-37v-142h30l2 6 3 14 8-10 8-6 10-4z" fill="#DE0F21"/>
<path transform="translate(947,264)" d="m0 0h22l14 4 13 7 11 9 9 12 7 15 4 17v20l-4 16-6 14-9 12-7 7-14 9-12 4-13 2h-10l-16-3-10-4-10-7-5-4-8-11-1-2-1 76h-13l-1-3v-187l1-1h10l1 5 1 20 1 5 9-12 8-8 12-7zm3 12-16 4-11 7-7 6-8 11-6 13-2 9v24l4 14 8 14 11 11 12 7 10 3 14 1 13-2 16-8 10-9 7-10 4-8 4-16v-18l-4-17-8-14-11-11-10-6-12-4-6-1z" fill="#B11932"/>
<path transform="translate(1119,264)" d="m0 0h23l12 3 14 6 12 9 8 8 8 13 4 8 3 12 1 7v17l-3 14-4 10-9 14-12 12-14 8-13 5-14 2h-11l-16-3-14-6-12-9-9-9-7-11-6-13-3-15v-16l3-15 5-12 7-11 10-11 10-7 12-6zm5 12-14 3-12 6-10 8-9 12-7 17-1 5v22l4 13 7 13 11 12 14 8 7 3 14 2 14-1 10-3 13-7 10-9 6-8 7-14 2-10v-21l-3-12-8-15-6-7-12-9-11-5-14-3z" fill="#B11730"/>
<path transform="translate(718,266)" d="m0 0h13l1 91 2 12 5 12 7 8 14 7 12 2h12l9-2 13-7 7-6 6-9 4-10 2-12 1-86h13v143l-1 1h-9l-1-2-2-24-9 12-10 8-8 4-10 3-8 1h-12l-17-3-14-7-7-6-7-11-4-9-2-11z" fill="#AF1730"/>
<path transform="translate(173,379)" d="m0 0h2l-1 3-17 9h-3l-1 5 5 2 11 5 4 1v2l6 2 9 6 3 9-1 3-12 6-15 7-24 8-10 5-5 3 2 3-7-2-16-8-18-10-9-6 4-5 18-10 16-8 13-8 38-19z" fill="#941F24"/>
<path transform="translate(11,298)" d="m0 0 5 1 4 2 8 11 11 12 11 9 12 9 1 11-1 3h-2l-2 4-9 11-10 13-9 8-3 1-10-14-8-17-4-16-2-15v-6l2-6 3-17h2z" fill="#971F24"/>
<path transform="translate(1403,207)" d="m0 0h36v3l-7 1h-7l-2 3 3 2v2l-7 3-3 6-1 6 1 3v42l-1 1v22l-1 2-1 27h-1l-1 28v21l1 10 1 7 5 3v2l26 3 5-1 5 1 2-5v-21h-8v-2l4-1h7v30l-9 3-14 2h-10l-10-3-8-7-4-7-2-9v-176z" fill="#F10527"/>
<path transform="translate(627,266)" d="m0 0h9l1 1 2 23 4-5 8-9 10-6 11-3 13-1v14l-16 3-10 4-9 7-6 10-3 9-1 96-1 1h-12l-1-1v-142z" fill="#B4162F"/>
<path transform="translate(233,457)" d="m0 0h6l7 6 8 11 6 11 3 7 5 18 2 10 1 17-1 12-4 2v3h-2l-6-10-7-9-5-6-6-7v-2h-2v-2l-3-1v-2l-5-2-1-9-4-7-1-10 5-28z" fill="#941F24"/>
<path transform="translate(211,435)" d="m0 0 7 2 10 3 4 2 14 14 11 16 8 16 6 19 3 16 1 15v42l-4-1-4-18-2-7 1-3 3-2 1-14-2-22-2-5-4-16-7-14-6-9-7-9-3-2h-6l-4 1-1 11-3 19 2 10 3 5 1 9 4 2 3 3v2h2l6 8-4-2-10-9-11-8-13-9 1-2-3-9-1-7 1-5-1-4-1-15 1-18 2-4z" fill="#B01426"/>
<path transform="translate(1638,266)" d="m0 0h37l-2 4-2-1-13 1-2 2h-4v2l-5 4 1 51-1 5v19l1 16 4 18h-2l1 7h2v2h7l2 1v3l3 1v2h10l18 2 19-2 13-2 2-2 3 1-10 7-11 4-5 1h-22l-15-4-11-7-10-11-5-12-3-15z" fill="#F00526"/>
<path transform="translate(1241,221)" d="m0 0h1l1 9 2-1 3 3 1 11v7l-1 4v53l1 45 1 2-1 1 1 2-1 2v24l1 13 5 5 7 2h8l7 1 1-66h1v71l-1 1h-37z" fill="#F10527"/>
<path transform="translate(11,298)" d="m0 0 5 1 4 2 8 11 2 6v8l-3 17v26l-1 3-7 1-3-3-6-15-3-8-2-15v-13l3-17h2z" fill="#702A26"/>
<path transform="translate(1894,266)" d="m0 0h40l4 9 21 62 4 11-1 4-5-12-5-17-5-13-3-10v-3h-2l-5-17-5-8-1-2-4-1h-17l-2 1-1 7v7l6 12 3 5v4h2l5 12 6 12 6 21v5l3 1 3 14 4 11 4 8 1 9 3 10-3 9v3l-1 2h-2v2l-4 1v-2l-7-2v-1l7-1 3-1 2-5 1-6-13-33-14-36-13-33-15-38z" fill="#F10527"/>
<path transform="translate(1483,302)" d="m0 0 2 1v3l2-1 2 1-1 10-2 6v8l-1 9 2 19 9 24 1 7h3v2l6 2 3 4 3 1v2l10 1 7 4h58l9-3 5-2-1-4-4-10-4-8v-2h-5v-2l5-2 8 16 4 9v4l-17 7-15 3-8 1h-26l-17-4-14-7-10-8-8-9-8-14-5-19-1-16 3-19z" fill="#F20427"/>
<path transform="translate(144,395)" d="m0 0h5l5 4-1 5-5 4-12 6-11 9-9 6-11 7-6 3-1 2-9-1-12-7v-3l5-4 17-10 15-7 7-2 14-8z" fill="#712A25"/>
<path transform="translate(160,400)" d="m0 0 9 3 4 1v2l6 2 9 6 3 9-1 3-12 6-15 7-24 8-10 5-5 3 2 3-7-2-16-8-2-2h9l12-5 16-8 10-4 18-5 5-3h3l2-4-1-6-8-6-7-4z" fill="#AE1526"/>
<path transform="translate(1731,266)" d="m0 0h38l1 1v142l-1 1h-29l-3-8 1-4 1 3 9 2 5 2h8l2 2 1-2 3-1 1-128-6-1-1-4-6-2-6 1-4 1h-2v-2l-6 2-5-3 1 8 4 1 1 7 2 20v15l-3 19-4 5-1 13h-1z" fill="#ED0927"/>
<path transform="translate(255,487)" d="m0 0 4 2 4 7 3 6 2 8 2 10 1 17-1 12-4 2v3h-2l-6-10-7-9-3-3-1-8 1-1 1-25 4-10z" fill="#702A26"/>
<path transform="translate(244,455)" d="m0 0 5 5 9 14 7 14 6 19 3 16 1 15v42l-4-1-4-18-2-7 1-3 3-2 1-14-2-22-2-5-4-16-7-14-6-9-5-7z" fill="#AD182F"/>
<path transform="translate(1915,427)" d="m0 0 3 4 4 13 3 3 18 2 12-2 8 1 1-5 8-2 3-3-2 5-5 5-9 6-12 3h-16l-20-4-1-4 4-21z" fill="#F10426"/>
<path transform="translate(118,126)" d="m0 0 2 1-3 4-5 1 1 3-5 3-18 12-5 4-9 4-8 8-6 3-10 3-5-2 5-5 12-9 25-15 18-10z" fill="#F10526"/>
<path transform="translate(1804,329)" d="m0 0h1l1 44 2-6v-14l3 1 1 25 2 13 2 7 2-1v2l2 1h-2v2l5 2-1 2 19 1v2h-37z" fill="#F10527"/>
<path transform="translate(228,450)" d="m0 0 9 1 5 6-1 2-2-1h-6l-4 1-1 11-3 19 2 10 3 5 1 9 4 2 3 3v2h2l6 8-4-2-10-9-11-8-2-1-1-13v-6l3-8 4-29z" fill="#AF1831"/>
<path transform="translate(1731,270)" d="m0 0h1l1 6 4 1 1 7 2 20v15l-3 19-4 5-1 13h-1z" fill="#F10426"/>
<path transform="translate(2007,266)" d="m0 0h40l-2 4-3-1-5 5-4-1-1-4h-19l-5-1 3 6-1 5-4 3h-2l-1 7h-2v3h-2l-1 13-4 2v9l-2 11h-2l1 3h-2v2h-2l2 2 3 1-5 2-2 8-2-1 1-2h-2l-1 6-3 2 3-10 16-47 8-22z" fill="#F20426"/>
<path transform="translate(1650,394)" d="m0 0h3v2h7l2 1v3l3 1v2h10l18 2 19-2 13-2 2-2 3 1-10 7-11 4-5 1h-22l-15-4-11-7z" fill="#F20527"/>
<path transform="translate(272,205)" d="m0 0h2v54l-3 17-2 6h-3l1-17-1-2 3-19h4l-1-10-2 3-2 6-3 3v-2h-2l1-9-2-1 5-12 4-16z" fill="#B01730"/>
<path transform="translate(224,70)" d="m0 0 3 1-4 5-4 1-5 4-6 2 3 1 6-3 3 1-4 4h-2v2l-17 10-9 3-5-2-3 1v5h-2v2l-6 2-4-1-1-5 29-15 13-8z" fill="#F10426"/>
<path transform="translate(125,326)" d="m0 0 7 1-1 5-8 2v-3l-5 2-3 3h-2l-1 4-1 2-10 3-5 2-3 5-12 7-2-1v-7l16-10 27-14z" fill="#F10426"/>
<path transform="translate(170,406)" d="m0 0 5 2 5 4 1 4-2 4-9 6-31 11-15 8-3 3-5 2 4 4 6 3-2 1-23-11 4-1 7-1 10-4 16-8 10-4 18-5 5-3h3l2-4-1-6z" fill="#AF1730"/>
<path transform="translate(43,328)" d="m0 0 6 4 13 10 1 11-1 3h-2l-2 4-9 11-3 2 2-5 4-7 1-4v-7l-5-13-5-7z" fill="#B11426"/>
<path transform="translate(244,455)" d="m0 0 5 5 9 14 7 14 6 19 3 16v6l-2-2-2-10-4-9-4-16-7-14-6-9-5-7z" fill="#C71229"/>
<path transform="translate(225,272)" d="m0 0v3l-7 7-5 3-3 4-5 6-2 3-11 2-4 1-2-3 5-5 16-9 11-7z" fill="#F10527"/>
<path transform="translate(1769,377)" d="m0 0h1v32l-1 1h-29l-3-8 1-4 1 3 9 2 5 2h8l2 2 1-2 4-2z" fill="#F1304B"/>
<path transform="translate(2e3 292)" d="m0 0 1 4-1 9-4 2v9l-2 11h-2l1 3h-2v2h-2l2 2 3 1-5 2-2 8-2-1 1-2h-2l-1 6-3 2 3-10 16-47z" fill="#F00526"/>
<path transform="translate(1402,208)" d="m0 0 12 2-1 2-8 2-1 4-1 158h-1z" fill="#DE1021"/>
<path transform="translate(1538,263)" d="m0 0h18l16 4 12 6 6 5-3 1-8-4v-2l-5-1-4-3-10-3h-14l-14 1-3 2-11 2v2l-9 1 3-3 15-6z" fill="#F00526"/>
<path transform="translate(269,244)" d="m0 0h4l1 15-3 17-2 6h-3l1-17-1-2z" fill="#B21528"/>
<path transform="translate(1306,216)" d="m0 0h72v36h-5l3-1v-33l-70-1z" fill="#F20426"/>
<path transform="translate(678,273)" d="m0 0h5v7l-18 4-3-1 1-4 6-2v-2z" fill="#B21426"/>
<path transform="translate(1361,313)" d="m0 0h1l1 21h-82l4-3 6 1h64l6 1z" fill="#F20426"/>
<path transform="translate(1731,357)" d="m0 0 2 4-3 9-3 2-2 5-5 3h-5l1-2h2l2-7 6-5z" fill="#F20628"/>
<path transform="translate(1279,300)" d="m0 0h84v4h-2v-2h-28l-54-1z" fill="#F20426"/>
<path transform="translate(244,455)" d="m0 0 5 5 9 14 2 7-1 4-8-14-7-9z" fill="#BC142E"/>
<path transform="translate(939,268)" d="m0 0 4 2v5l2 1-5 1v2l-9 3-3-4 6-7z" fill="#B01426"/>
<path transform="translate(1804,268)" d="m0 0h30l1 1-1 7h-6l-2-1v-5l-21-1v22h-1z" fill="#F30427"/>
<path transform="translate(1880,266)" d="m0 0h8l1 1v37l-1 1h-7l3-2 3-1v-28l-5-2-4-5z" fill="#F20426"/>
<path transform="translate(173,379)" d="m0 0h2l-1 3-17 9h-3l-1 5-2-3 1-2-3-1 16-8z" fill="#B21426"/>
<path transform="translate(274,538)" d="m0 0h1v42l-4-1-1-9 1-6 2 1z" fill="#DE0F21"/>
<path transform="translate(272,1)" d="m0 0 3 1v33l-2 1-1-25-1-8z" fill="#CD1128"/>
<path transform="translate(1591,372)" d="m0 0 3 3 10 22v4l-12 5v-2l9-4-1-4-4-10-4-8v-2h-5v-2z" fill="#F00526"/>
<path transform="translate(1950,405)" d="m0 0 3 3-3 9v3l-1 2h-2v2l-4 1v-2l-7-2v-1l7-1 3-1 2-5 1-7z" fill="#F00829"/>
<path transform="translate(43,328)" d="m0 0 5 3 4 7 3 4 1 4v9l-2 1-2-10-4-9-5-7z" fill="#AF1730"/>
<path transform="translate(1452,375)" d="m0 0h7v30h-1l-1-6-1-21h-8v-2z" fill="#E90D27"/>
<path transform="translate(269,244)" d="m0 0h4l1 15h-3l-4-2z" fill="#B11425"/>
<path transform="translate(466,228)" d="m0 0 3 1-1 3 1 7-6 3-1-2 1-3h-2l-1-5 4-1v-2z" fill="#B11426"/>
<path transform="translate(1948,310)" d="m0 0h2l13 38-1 4-5-12-5-17-4-11z" fill="#EF0526"/>
<path transform="translate(1593,282)" d="m0 0 5 4 6 10 6 14 2 9v5l-2-4-5-16-7-14-5-6z" fill="#F00526"/>
<path transform="translate(143,393)" d="m0 0 2 1-3 3-16 8-7 4-3-1 11-7z" fill="#991D24"/>
<path transform="translate(1841,369)" d="m0 0h1v38h-6l3-5 1-1z" fill="#F30427"/>
<path transform="translate(2,500)" d="m0 0 1 3 4-1-2 13h-3z" fill="#F00A2B"/>
<path transform="translate(1855,272)" d="m0 0h2v2h2l-1 3-5 2-6 2h-3l9-8z" fill="#F11433"/>
<path transform="translate(259,478)" d="m0 0 3 3 6 16v3h-2l-3-9-4-10z" fill="#E40C22"/>
<path transform="translate(260,485)" d="m0 0 2 2 3 6 1 7h3l2 8h-3l-4-8-2-8-2-3z" fill="#BB1931"/>
<path transform="translate(1575,312)" d="m0 0 4 2 2 4-2 9-3-1z" fill="#EF0B2B"/>
<path transform="translate(270,537)" d="m0 0h1v15l-3 7-3-3 1-5 3-2z" fill="#961F24"/>
<path transform="translate(173,379)" d="m0 0h2l-1 3-9 5-4-1 4-4z" fill="#B41427"/>
<path transform="translate(13,289)" d="m0 0 2 4 3 7-7-1-2 3 1-7z" fill="#A6192B"/>
<path transform="translate(1591,372)" d="m0 0 3 3 5 11-1 2-3-4-3-6v-2h-5v-2z" fill="#F20426"/>
<path transform="translate(244,455)" d="m0 0 5 5 1 7-4-2-2-3z" fill="#C1192F"/>
<path transform="translate(1679,368)" d="m0 0 5 2 8 4 8 2v2l-8-1-10-5z" fill="#F20B2C"/>
<path transform="translate(272,205)" d="m0 0 2 1-1 13-2 1-2-5 2-9z" fill="#E10C24"/>
<path transform="translate(2,308)" d="m0 0h1v5h2l1 6-2 6h-1l-1-7z" fill="#E90924"/>
<path transform="translate(1638,266)" d="m0 0h2v2l3 1v2l4 1-1 3-5-1-2 2z" fill="#DD0F22"/>
<path transform="translate(272,57)" d="m0 0h1v8l-2 4-2-3 1-7z" fill="#B31428"/>
<path transform="translate(1330,329)" d="m0 0h15l3 2-2 1-10-1-6-1z" fill="#F30427"/>
<path transform="translate(1517,364)" d="m0 0 5 5 7 6v2l-5-2v-2h-2v-2h-2l-3-5z" fill="#F20426"/>
<path transform="translate(4,452)" d="m0 0h1l2 10-2 4h-2v-9z" fill="#B4152B"/>
<path transform="translate(1648,297)" d="m0 0h3l1 9h-2l1 4h-2z" fill="#F30427"/>
<path transform="translate(1569,298)" d="m0 0 8 6 1 5-3-2v-3l-6-2z" fill="#F30427"/>
<path transform="translate(128,121)" d="m0 0h2v2l-4 4-6-1 4-3z" fill="#EE0625"/>
</svg>
