<?xml version="1.0" encoding="UTF-8" standalone="no"?><svg xmlns="http://www.w3.org/2000/svg" xmlns:xlink="http://www.w3.org/1999/xlink" data-name="Graphical Memphis 37" fill="#8a648d" height="381.9" preserveAspectRatio="xMidYMid meet" version="1" viewBox="0.0 0.0 381.9 381.9" width="381.9" zoomAndPan="magnify"><g id="change1_1"><path d="M7.34,134.75c0-.52-.11-1.01-.31-1.46-.47,1.5-.92,3.01-1.36,4.53,1-.65,1.66-1.78,1.66-3.07Z"/></g><g id="change1_2"><path d="M7.34,153.48c0-2.03-1.64-3.67-3.67-3.67-.36,0-.71,.07-1.04,.17-.45,2.1-.88,4.21-1.27,6.33,.63,.52,1.43,.84,2.31,.84,2.03,0,3.67-1.64,3.67-3.67Z"/></g><g id="change1_3"><path d="M3.67,168.54c-2.03,0-3.67,1.64-3.67,3.67s1.64,3.67,3.67,3.67,3.67-1.64,3.67-3.67-1.64-3.67-3.67-3.67Z"/></g><g id="change1_4"><path d="M3.67,187.26c-2.03,0-3.67,1.64-3.67,3.67s1.64,3.67,3.67,3.67,3.67-1.64,3.67-3.67-1.64-3.67-3.67-3.67Z"/></g><g id="change1_5"><path d="M3.67,213.32c2.03,0,3.67-1.64,3.67-3.67s-1.64-3.67-3.67-3.67-3.67,1.64-3.67,3.67,1.64,3.67,3.67,3.67Z"/></g><g id="change1_6"><path d="M3.67,232.05c2.03,0,3.67-1.64,3.67-3.67s-1.64-3.67-3.67-3.67c-.88,0-1.67,.32-2.31,.84,.39,2.12,.81,4.23,1.27,6.33,.33,.1,.67,.17,1.04,.17Z"/></g><g id="change1_7"><path d="M5.67,244.04c.43,1.52,.89,3.03,1.36,4.53,.2-.45,.31-.94,.31-1.46,0-1.29-.66-2.41-1.66-3.07Z"/></g><g id="change1_8"><path d="M22.39,100.97c2.03,0,3.67-1.64,3.67-3.67,0-1.33-.72-2.49-1.78-3.13-1.22,2.1-2.4,4.23-3.55,6.38,.5,.26,1.06,.41,1.66,.41Z"/></g><g id="change1_9"><path d="M22.39,112.36c-2.03,0-3.67,1.64-3.67,3.67s1.64,3.67,3.67,3.67,3.67-1.64,3.67-3.67-1.64-3.67-3.67-3.67Z"/></g><g id="change1_10"><path d="M22.39,131.08c-2.03,0-3.67,1.64-3.67,3.67s1.64,3.67,3.67,3.67,3.67-1.64,3.67-3.67-1.64-3.67-3.67-3.67Z"/></g><g id="change1_11"><path d="M22.39,149.81c-2.03,0-3.67,1.64-3.67,3.67s1.64,3.67,3.67,3.67,3.67-1.64,3.67-3.67-1.64-3.67-3.67-3.67Z"/></g><g id="change1_12"><path d="M22.39,168.54c-2.03,0-3.67,1.64-3.67,3.67s1.64,3.67,3.67,3.67,3.67-1.64,3.67-3.67-1.64-3.67-3.67-3.67Z"/></g><g id="change1_13"><path d="M22.39,187.26c-2.03,0-3.67,1.64-3.67,3.67s1.64,3.67,3.67,3.67,3.67-1.64,3.67-3.67-1.64-3.67-3.67-3.67Z"/></g><g id="change1_14"><path d="M22.39,205.99c-2.03,0-3.67,1.64-3.67,3.67s1.64,3.67,3.67,3.67,3.67-1.64,3.67-3.67-1.64-3.67-3.67-3.67Z"/></g><g id="change1_15"><path d="M22.39,224.71c-2.03,0-3.67,1.64-3.67,3.67s1.64,3.67,3.67,3.67,3.67-1.64,3.67-3.67-1.64-3.67-3.67-3.67Z"/></g><g id="change1_16"><path d="M22.39,243.44c-2.03,0-3.67,1.64-3.67,3.67s1.64,3.67,3.67,3.67,3.67-1.64,3.67-3.67-1.64-3.67-3.67-3.67Z"/></g><g id="change1_17"><path d="M22.39,262.17c-2.03,0-3.67,1.64-3.67,3.67s1.64,3.67,3.67,3.67,3.67-1.64,3.67-3.67-1.64-3.67-3.67-3.67Z"/></g><g id="change1_18"><path d="M26.06,284.56c0-2.03-1.64-3.67-3.67-3.67-.6,0-1.16,.16-1.66,.41,1.14,2.15,2.33,4.28,3.55,6.38,1.06-.64,1.78-1.8,1.78-3.13Z"/></g><g id="change1_19"><path d="M41.12,74.9c-2.03,0-3.67,1.64-3.67,3.67s1.64,3.67,3.67,3.67,3.67-1.64,3.67-3.67-1.64-3.67-3.67-3.67Z"/></g><g id="change1_20"><path d="M41.12,100.97c2.03,0,3.67-1.64,3.67-3.67s-1.64-3.67-3.67-3.67-3.67,1.64-3.67,3.67,1.64,3.67,3.67,3.67Z"/></g><g id="change1_21"><path d="M41.12,119.69c2.03,0,3.67-1.64,3.67-3.67s-1.64-3.67-3.67-3.67-3.67,1.64-3.67,3.67,1.64,3.67,3.67,3.67Z"/></g><g id="change1_22"><path d="M41.12,138.42c2.03,0,3.67-1.64,3.67-3.67s-1.64-3.67-3.67-3.67-3.67,1.64-3.67,3.67,1.64,3.67,3.67,3.67Z"/></g><g id="change1_23"><path d="M41.12,157.15c2.03,0,3.67-1.64,3.67-3.67s-1.64-3.67-3.67-3.67-3.67,1.64-3.67,3.67,1.64,3.67,3.67,3.67Z"/></g><g id="change1_24"><path d="M41.12,175.87c2.03,0,3.67-1.64,3.67-3.67s-1.64-3.67-3.67-3.67-3.67,1.64-3.67,3.67,1.64,3.67,3.67,3.67Z"/></g><g id="change1_25"><path d="M41.12,194.6c2.03,0,3.67-1.64,3.67-3.67s-1.64-3.67-3.67-3.67-3.67,1.64-3.67,3.67,1.64,3.67,3.67,3.67Z"/></g><g id="change1_26"><path d="M41.12,213.32c2.03,0,3.67-1.64,3.67-3.67s-1.64-3.67-3.67-3.67-3.67,1.64-3.67,3.67,1.64,3.67,3.67,3.67Z"/></g><g id="change1_27"><path d="M41.12,232.05c2.03,0,3.67-1.64,3.67-3.67s-1.64-3.67-3.67-3.67-3.67,1.64-3.67,3.67,1.64,3.67,3.67,3.67Z"/></g><g id="change1_28"><path d="M41.12,250.78c2.03,0,3.67-1.64,3.67-3.67s-1.64-3.67-3.67-3.67-3.67,1.64-3.67,3.67,1.64,3.67,3.67,3.67Z"/></g><g id="change1_29"><path d="M41.12,269.5c2.03,0,3.67-1.64,3.67-3.67s-1.64-3.67-3.67-3.67-3.67,1.64-3.67,3.67,1.64,3.67,3.67,3.67Z"/></g><g id="change1_30"><path d="M41.12,288.23c2.03,0,3.67-1.64,3.67-3.67s-1.64-3.67-3.67-3.67-3.67,1.64-3.67,3.67,1.64,3.67,3.67,3.67Z"/></g><g id="change1_31"><path d="M41.12,306.96c2.03,0,3.67-1.64,3.67-3.67s-1.64-3.67-3.67-3.67-3.67,1.64-3.67,3.67,1.64,3.67,3.67,3.67Z"/></g><g id="change1_32"><path d="M59.85,56.18c-2.03,0-3.67,1.64-3.67,3.67s1.64,3.67,3.67,3.67,3.67-1.64,3.67-3.67-1.64-3.67-3.67-3.67Z"/></g><g id="change1_33"><path d="M59.85,74.9c-2.03,0-3.67,1.64-3.67,3.67s1.64,3.67,3.67,3.67,3.67-1.64,3.67-3.67-1.64-3.67-3.67-3.67Z"/></g><g id="change1_34"><path d="M59.85,93.63c-2.03,0-3.67,1.64-3.67,3.67s1.64,3.67,3.67,3.67,3.67-1.64,3.67-3.67-1.64-3.67-3.67-3.67Z"/></g><g id="change1_35"><path d="M59.85,112.36c-2.03,0-3.67,1.64-3.67,3.67s1.64,3.67,3.67,3.67,3.67-1.64,3.67-3.67-1.64-3.67-3.67-3.67Z"/></g><g id="change1_36"><path d="M59.85,131.08c-2.03,0-3.67,1.64-3.67,3.67s1.64,3.67,3.67,3.67,3.67-1.64,3.67-3.67-1.64-3.67-3.67-3.67Z"/></g><g id="change1_37"><path d="M59.85,149.81c-2.03,0-3.67,1.64-3.67,3.67s1.64,3.67,3.67,3.67,3.67-1.64,3.67-3.67-1.64-3.67-3.67-3.67Z"/></g><g id="change1_38"><path d="M59.85,168.54c-2.03,0-3.67,1.64-3.67,3.67s1.64,3.67,3.67,3.67,3.67-1.64,3.67-3.67-1.64-3.67-3.67-3.67Z"/></g><g id="change1_39"><path d="M59.85,187.26c-2.03,0-3.67,1.64-3.67,3.67s1.64,3.67,3.67,3.67,3.67-1.64,3.67-3.67-1.64-3.67-3.67-3.67Z"/></g><g id="change1_40"><path d="M59.85,205.99c-2.03,0-3.67,1.64-3.67,3.67s1.64,3.67,3.67,3.67,3.67-1.64,3.67-3.67-1.64-3.67-3.67-3.67Z"/></g><g id="change1_41"><path d="M59.85,224.71c-2.03,0-3.67,1.64-3.67,3.67s1.64,3.67,3.67,3.67,3.67-1.64,3.67-3.67-1.64-3.67-3.67-3.67Z"/></g><g id="change1_42"><path d="M59.85,243.44c-2.03,0-3.67,1.64-3.67,3.67s1.64,3.67,3.67,3.67,3.67-1.64,3.67-3.67-1.64-3.67-3.67-3.67Z"/></g><g id="change1_43"><path d="M59.85,262.17c-2.03,0-3.67,1.64-3.67,3.67s1.64,3.67,3.67,3.67,3.67-1.64,3.67-3.67-1.64-3.67-3.67-3.67Z"/></g><g id="change1_44"><path d="M59.85,280.89c-2.03,0-3.67,1.64-3.67,3.67s1.64,3.67,3.67,3.67,3.67-1.64,3.67-3.67-1.64-3.67-3.67-3.67Z"/></g><g id="change1_45"><path d="M59.85,299.62c-2.03,0-3.67,1.64-3.67,3.67s1.64,3.67,3.67,3.67,3.67-1.64,3.67-3.67-1.64-3.67-3.67-3.67Z"/></g><g id="change1_46"><path d="M59.85,325.68c2.03,0,3.67-1.64,3.67-3.67s-1.64-3.67-3.67-3.67-3.67,1.64-3.67,3.67,1.64,3.67,3.67,3.67Z"/></g><g id="change1_47"><path d="M78.57,37.45c-2.03,0-3.67,1.64-3.67,3.67s1.64,3.67,3.67,3.67,3.67-1.64,3.67-3.67-1.64-3.67-3.67-3.67Z"/></g><g id="change1_48"><path d="M78.57,56.18c-2.03,0-3.67,1.64-3.67,3.67s1.64,3.67,3.67,3.67,3.67-1.64,3.67-3.67-1.64-3.67-3.67-3.67Z"/></g><g id="change1_49"><path d="M78.57,74.9c-2.03,0-3.67,1.64-3.67,3.67s1.64,3.67,3.67,3.67,3.67-1.64,3.67-3.67-1.64-3.67-3.67-3.67Z"/></g><g id="change1_50"><path d="M78.57,93.63c-2.03,0-3.67,1.64-3.67,3.67s1.64,3.67,3.67,3.67,3.67-1.64,3.67-3.67-1.64-3.67-3.67-3.67Z"/></g><g id="change1_51"><path d="M78.57,112.36c-2.03,0-3.67,1.64-3.67,3.67s1.64,3.67,3.67,3.67,3.67-1.64,3.67-3.67-1.64-3.67-3.67-3.67Z"/></g><g id="change1_52"><path d="M78.57,131.08c-2.03,0-3.67,1.64-3.67,3.67s1.64,3.67,3.67,3.67,3.67-1.64,3.67-3.67-1.64-3.67-3.67-3.67Z"/></g><g id="change1_53"><path d="M78.57,149.81c-2.03,0-3.67,1.64-3.67,3.67s1.64,3.67,3.67,3.67,3.67-1.64,3.67-3.67-1.64-3.67-3.67-3.67Z"/></g><g id="change1_54"><path d="M78.57,168.54c-2.03,0-3.67,1.64-3.67,3.67s1.64,3.67,3.67,3.67,3.67-1.64,3.67-3.67-1.64-3.67-3.67-3.67Z"/></g><g id="change1_55"><path d="M78.57,187.26c-2.03,0-3.67,1.64-3.67,3.67s1.64,3.67,3.67,3.67,3.67-1.64,3.67-3.67-1.64-3.67-3.67-3.67Z"/></g><g id="change1_56"><path d="M78.57,205.99c-2.03,0-3.67,1.64-3.67,3.67s1.64,3.67,3.67,3.67,3.67-1.64,3.67-3.67-1.64-3.67-3.67-3.67Z"/></g><g id="change1_57"><path d="M78.57,224.71c-2.03,0-3.67,1.64-3.67,3.67s1.64,3.67,3.67,3.67,3.67-1.64,3.67-3.67-1.64-3.67-3.67-3.67Z"/></g><g id="change1_58"><path d="M78.57,243.44c-2.03,0-3.67,1.64-3.67,3.67s1.64,3.67,3.67,3.67,3.67-1.64,3.67-3.67-1.64-3.67-3.67-3.67Z"/></g><g id="change1_59"><path d="M78.57,262.17c-2.03,0-3.67,1.64-3.67,3.67s1.64,3.67,3.67,3.67,3.67-1.64,3.67-3.67-1.64-3.67-3.67-3.67Z"/></g><g id="change1_60"><path d="M78.57,280.89c-2.03,0-3.67,1.64-3.67,3.67s1.64,3.67,3.67,3.67,3.67-1.64,3.67-3.67-1.64-3.67-3.67-3.67Z"/></g><g id="change1_61"><path d="M78.57,299.62c-2.03,0-3.67,1.64-3.67,3.67s1.64,3.67,3.67,3.67,3.67-1.64,3.67-3.67-1.64-3.67-3.67-3.67Z"/></g><g id="change1_62"><path d="M78.57,318.35c-2.03,0-3.67,1.64-3.67,3.67s1.64,3.67,3.67,3.67,3.67-1.64,3.67-3.67-1.64-3.67-3.67-3.67Z"/></g><g id="change1_63"><path d="M78.57,337.07c-2.03,0-3.67,1.64-3.67,3.67s1.64,3.67,3.67,3.67,3.67-1.64,3.67-3.67-1.64-3.67-3.67-3.67Z"/></g><g id="change1_64"><path d="M97.3,26.06c2.03,0,3.67-1.64,3.67-3.67,0-.6-.16-1.16-.41-1.66-2.15,1.14-4.28,2.33-6.38,3.55,.64,1.06,1.8,1.78,3.13,1.78Z"/></g><g id="change1_65"><path d="M97.3,37.45c-2.03,0-3.67,1.64-3.67,3.67s1.64,3.67,3.67,3.67,3.67-1.64,3.67-3.67-1.64-3.67-3.67-3.67Z"/></g><g id="change1_66"><path d="M97.3,56.18c-2.03,0-3.67,1.64-3.67,3.67s1.64,3.67,3.67,3.67,3.67-1.64,3.67-3.67-1.64-3.67-3.67-3.67Z"/></g><g id="change1_67"><path d="M97.3,74.9c-2.03,0-3.67,1.64-3.67,3.67s1.64,3.67,3.67,3.67,3.67-1.64,3.67-3.67-1.64-3.67-3.67-3.67Z"/></g><g id="change1_68"><path d="M97.3,93.63c-2.03,0-3.67,1.64-3.67,3.67s1.64,3.67,3.67,3.67,3.67-1.64,3.67-3.67-1.64-3.67-3.67-3.67Z"/></g><g id="change1_69"><path d="M97.3,112.36c-2.03,0-3.67,1.64-3.67,3.67s1.64,3.67,3.67,3.67,3.67-1.64,3.67-3.67-1.64-3.67-3.67-3.67Z"/></g><g id="change1_70"><path d="M97.3,131.08c-2.03,0-3.67,1.64-3.67,3.67s1.64,3.67,3.67,3.67,3.67-1.64,3.67-3.67-1.64-3.67-3.67-3.67Z"/></g><g id="change1_71"><path d="M97.3,149.81c-2.03,0-3.67,1.64-3.67,3.67s1.64,3.67,3.67,3.67,3.67-1.64,3.67-3.67-1.64-3.67-3.67-3.67Z"/></g><g id="change1_72"><path d="M97.3,168.54c-2.03,0-3.67,1.64-3.67,3.67s1.64,3.67,3.67,3.67,3.67-1.64,3.67-3.67-1.64-3.67-3.67-3.67Z"/></g><g id="change1_73"><path d="M97.3,187.26c-2.03,0-3.67,1.64-3.67,3.67s1.64,3.67,3.67,3.67,3.67-1.64,3.67-3.67-1.64-3.67-3.67-3.67Z"/></g><g id="change1_74"><path d="M97.3,205.99c-2.03,0-3.67,1.64-3.67,3.67s1.64,3.67,3.67,3.67,3.67-1.64,3.67-3.67-1.64-3.67-3.67-3.67Z"/></g><g id="change1_75"><path d="M97.3,224.71c-2.03,0-3.67,1.64-3.67,3.67s1.64,3.67,3.67,3.67,3.67-1.64,3.67-3.67-1.64-3.67-3.67-3.67Z"/></g><g id="change1_76"><path d="M97.3,243.44c-2.03,0-3.67,1.64-3.67,3.67s1.64,3.67,3.67,3.67,3.67-1.64,3.67-3.67-1.64-3.67-3.67-3.67Z"/></g><g id="change1_77"><path d="M97.3,262.17c-2.03,0-3.67,1.64-3.67,3.67s1.64,3.67,3.67,3.67,3.67-1.64,3.67-3.67-1.64-3.67-3.67-3.67Z"/></g><g id="change1_78"><path d="M97.3,280.89c-2.03,0-3.67,1.64-3.67,3.67s1.64,3.67,3.67,3.67,3.67-1.64,3.67-3.67-1.64-3.67-3.67-3.67Z"/></g><g id="change1_79"><path d="M97.3,299.62c-2.03,0-3.67,1.64-3.67,3.67s1.64,3.67,3.67,3.67,3.67-1.64,3.67-3.67-1.64-3.67-3.67-3.67Z"/></g><g id="change1_80"><path d="M97.3,318.35c-2.03,0-3.67,1.64-3.67,3.67s1.64,3.67,3.67,3.67,3.67-1.64,3.67-3.67-1.64-3.67-3.67-3.67Z"/></g><g id="change1_81"><path d="M97.3,337.07c-2.03,0-3.67,1.64-3.67,3.67s1.64,3.67,3.67,3.67,3.67-1.64,3.67-3.67-1.64-3.67-3.67-3.67Z"/></g><g id="change1_82"><path d="M97.3,355.8c-1.33,0-2.49,.72-3.13,1.78,2.1,1.22,4.23,2.4,6.38,3.55,.26-.5,.41-1.06,.41-1.66,0-2.03-1.64-3.67-3.67-3.67Z"/></g><g id="change1_83"><path d="M116.03,18.73c-2.03,0-3.67,1.64-3.67,3.67s1.64,3.67,3.67,3.67,3.67-1.64,3.67-3.67-1.64-3.67-3.67-3.67Z"/></g><g id="change1_84"><path d="M116.03,37.45c-2.03,0-3.67,1.64-3.67,3.67s1.64,3.67,3.67,3.67,3.67-1.64,3.67-3.67-1.64-3.67-3.67-3.67Z"/></g><g id="change1_85"><path d="M116.03,56.18c-2.03,0-3.67,1.64-3.67,3.67s1.64,3.67,3.67,3.67,3.67-1.64,3.67-3.67-1.64-3.67-3.67-3.67Z"/></g><g id="change1_86"><path d="M116.03,74.9c-2.03,0-3.67,1.64-3.67,3.67s1.64,3.67,3.67,3.67,3.67-1.64,3.67-3.67-1.64-3.67-3.67-3.67Z"/></g><g id="change1_87"><path d="M116.03,93.63c-2.03,0-3.67,1.64-3.67,3.67s1.64,3.67,3.67,3.67,3.67-1.64,3.67-3.67-1.64-3.67-3.67-3.67Z"/></g><g id="change1_88"><path d="M116.03,112.36c-2.03,0-3.67,1.64-3.67,3.67s1.64,3.67,3.67,3.67,3.67-1.64,3.67-3.67-1.64-3.67-3.67-3.67Z"/></g><g id="change1_89"><path d="M116.03,131.08c-2.03,0-3.67,1.64-3.67,3.67s1.64,3.67,3.67,3.67,3.67-1.64,3.67-3.67-1.64-3.67-3.67-3.67Z"/></g><g id="change1_90"><path d="M116.03,149.81c-2.03,0-3.67,1.64-3.67,3.67s1.64,3.67,3.67,3.67,3.67-1.64,3.67-3.67-1.64-3.67-3.67-3.67Z"/></g><g id="change1_91"><path d="M116.03,168.54c-2.03,0-3.67,1.64-3.67,3.67s1.64,3.67,3.67,3.67,3.67-1.64,3.67-3.67-1.64-3.67-3.67-3.67Z"/></g><g id="change1_92"><path d="M116.03,187.26c-2.03,0-3.67,1.64-3.67,3.67s1.64,3.67,3.67,3.67,3.67-1.64,3.67-3.67-1.64-3.67-3.67-3.67Z"/></g><g id="change1_93"><path d="M116.03,205.99c-2.03,0-3.67,1.64-3.67,3.67s1.64,3.67,3.67,3.67,3.67-1.64,3.67-3.67-1.64-3.67-3.67-3.67Z"/></g><g id="change1_94"><path d="M116.03,224.71c-2.03,0-3.67,1.64-3.67,3.67s1.64,3.67,3.67,3.67,3.67-1.64,3.67-3.67-1.64-3.67-3.67-3.67Z"/></g><g id="change1_95"><path d="M116.03,243.44c-2.03,0-3.67,1.64-3.67,3.67s1.64,3.67,3.67,3.67,3.67-1.64,3.67-3.67-1.64-3.67-3.67-3.67Z"/></g><g id="change1_96"><path d="M116.03,262.17c-2.03,0-3.67,1.64-3.67,3.67s1.64,3.67,3.67,3.67,3.67-1.64,3.67-3.67-1.64-3.67-3.67-3.67Z"/></g><g id="change1_97"><path d="M116.03,280.89c-2.03,0-3.67,1.64-3.67,3.67s1.64,3.67,3.67,3.67,3.67-1.64,3.67-3.67-1.64-3.67-3.67-3.67Z"/></g><g id="change1_98"><path d="M116.03,299.62c-2.03,0-3.67,1.64-3.67,3.67s1.64,3.67,3.67,3.67,3.67-1.64,3.67-3.67-1.64-3.67-3.67-3.67Z"/></g><g id="change1_99"><path d="M116.03,318.35c-2.03,0-3.67,1.64-3.67,3.67s1.64,3.67,3.67,3.67,3.67-1.64,3.67-3.67-1.64-3.67-3.67-3.67Z"/></g><g id="change1_100"><path d="M116.03,337.07c-2.03,0-3.67,1.64-3.67,3.67s1.64,3.67,3.67,3.67,3.67-1.64,3.67-3.67-1.64-3.67-3.67-3.67Z"/></g><g id="change1_101"><path d="M116.03,355.8c-2.03,0-3.67,1.64-3.67,3.67s1.64,3.67,3.67,3.67,3.67-1.64,3.67-3.67-1.64-3.67-3.67-3.67Z"/></g><g id="change1_102"><path d="M137.82,5.67c-1.52,.43-3.03,.89-4.53,1.36,.45,.2,.94,.31,1.46,.31,1.29,0,2.41-.66,3.07-1.66Z"/></g><g id="change1_103"><path d="M134.75,18.73c-2.03,0-3.67,1.64-3.67,3.67s1.64,3.67,3.67,3.67,3.67-1.64,3.67-3.67-1.64-3.67-3.67-3.67Z"/></g><g id="change1_104"><path d="M134.75,37.45c-2.03,0-3.67,1.64-3.67,3.67s1.64,3.67,3.67,3.67,3.67-1.64,3.67-3.67-1.64-3.67-3.67-3.67Z"/></g><g id="change1_105"><path d="M134.75,56.18c-2.03,0-3.67,1.64-3.67,3.67s1.64,3.67,3.67,3.67,3.67-1.64,3.67-3.67-1.64-3.67-3.67-3.67Z"/></g><g id="change1_106"><path d="M134.75,74.9c-2.03,0-3.67,1.64-3.67,3.67s1.64,3.67,3.67,3.67,3.67-1.64,3.67-3.67-1.64-3.67-3.67-3.67Z"/></g><g id="change1_107"><path d="M134.75,93.63c-2.03,0-3.67,1.64-3.67,3.67s1.64,3.67,3.67,3.67,3.67-1.64,3.67-3.67-1.64-3.67-3.67-3.67Z"/></g><g id="change1_108"><path d="M134.75,112.36c-2.03,0-3.67,1.64-3.67,3.67s1.64,3.67,3.67,3.67,3.67-1.64,3.67-3.67-1.64-3.67-3.67-3.67Z"/></g><g id="change1_109"><path d="M134.75,131.08c-2.03,0-3.67,1.64-3.67,3.67s1.64,3.67,3.67,3.67,3.67-1.64,3.67-3.67-1.64-3.67-3.67-3.67Z"/></g><g id="change1_110"><path d="M134.75,149.81c-2.03,0-3.67,1.64-3.67,3.67s1.64,3.67,3.67,3.67,3.67-1.64,3.67-3.67-1.64-3.67-3.67-3.67Z"/></g><g id="change1_111"><path d="M134.75,168.54c-2.03,0-3.67,1.64-3.67,3.67s1.64,3.67,3.67,3.67,3.67-1.64,3.67-3.67-1.64-3.67-3.67-3.67Z"/></g><g id="change1_112"><path d="M134.75,187.26c-2.03,0-3.67,1.64-3.67,3.67s1.64,3.67,3.67,3.67,3.67-1.64,3.67-3.67-1.64-3.67-3.67-3.67Z"/></g><g id="change1_113"><path d="M134.75,205.99c-2.03,0-3.67,1.64-3.67,3.67s1.64,3.67,3.67,3.67,3.67-1.64,3.67-3.67-1.64-3.67-3.67-3.67Z"/></g><g id="change1_114"><path d="M134.75,224.71c-2.03,0-3.67,1.64-3.67,3.67s1.64,3.67,3.67,3.67,3.67-1.64,3.67-3.67-1.64-3.67-3.67-3.67Z"/></g><g id="change1_115"><path d="M134.75,243.44c-2.03,0-3.67,1.64-3.67,3.67s1.64,3.67,3.67,3.67,3.67-1.64,3.67-3.67-1.64-3.67-3.67-3.67Z"/></g><g id="change1_116"><path d="M134.75,262.17c-2.03,0-3.67,1.64-3.67,3.67s1.64,3.67,3.67,3.67,3.67-1.64,3.67-3.67-1.64-3.67-3.67-3.67Z"/></g><g id="change1_117"><path d="M134.75,280.89c-2.03,0-3.67,1.64-3.67,3.67s1.64,3.67,3.67,3.67,3.67-1.64,3.67-3.67-1.64-3.67-3.67-3.67Z"/></g><g id="change1_118"><path d="M134.75,299.62c-2.03,0-3.67,1.64-3.67,3.67s1.64,3.67,3.67,3.67,3.67-1.64,3.67-3.67-1.64-3.67-3.67-3.67Z"/></g><g id="change1_119"><path d="M134.75,318.35c-2.03,0-3.67,1.64-3.67,3.67s1.64,3.67,3.67,3.67,3.67-1.64,3.67-3.67-1.64-3.67-3.67-3.67Z"/></g><g id="change1_120"><path d="M134.75,337.07c-2.03,0-3.67,1.64-3.67,3.67s1.64,3.67,3.67,3.67,3.67-1.64,3.67-3.67-1.64-3.67-3.67-3.67Z"/></g><g id="change1_121"><path d="M134.75,355.8c-2.03,0-3.67,1.64-3.67,3.67s1.64,3.67,3.67,3.67,3.67-1.64,3.67-3.67-1.64-3.67-3.67-3.67Z"/></g><g id="change1_122"><path d="M134.75,374.52c-.52,0-1.01,.11-1.46,.31,1.5,.47,3.01,.92,4.53,1.36-.65-1-1.78-1.66-3.07-1.66Z"/></g><g id="change1_123"><path d="M153.48,7.34c2.03,0,3.67-1.64,3.67-3.67,0-.88-.32-1.67-.84-2.31-2.12,.39-4.23,.81-6.33,1.27-.1,.33-.17,.68-.17,1.04,0,2.03,1.64,3.67,3.67,3.67Z"/></g><g id="change1_124"><path d="M153.48,18.73c-2.03,0-3.67,1.64-3.67,3.67s1.64,3.67,3.67,3.67,3.67-1.64,3.67-3.67-1.64-3.67-3.67-3.67Z"/></g><g id="change1_125"><path d="M153.48,37.45c-2.03,0-3.67,1.64-3.67,3.67s1.64,3.67,3.67,3.67,3.67-1.64,3.67-3.67-1.64-3.67-3.67-3.67Z"/></g><g id="change1_126"><path d="M153.48,56.18c-2.03,0-3.67,1.64-3.67,3.67s1.64,3.67,3.67,3.67,3.67-1.64,3.67-3.67-1.64-3.67-3.67-3.67Z"/></g><g id="change1_127"><path d="M153.48,74.9c-2.03,0-3.67,1.64-3.67,3.67s1.64,3.67,3.67,3.67,3.67-1.64,3.67-3.67-1.64-3.67-3.67-3.67Z"/></g><g id="change1_128"><path d="M153.48,93.63c-2.03,0-3.67,1.64-3.67,3.67s1.64,3.67,3.67,3.67,3.67-1.64,3.67-3.67-1.64-3.67-3.67-3.67Z"/></g><g id="change1_129"><path d="M153.48,112.36c-2.03,0-3.67,1.64-3.67,3.67s1.64,3.67,3.67,3.67,3.67-1.64,3.67-3.67-1.64-3.67-3.67-3.67Z"/></g><g id="change1_130"><path d="M153.48,131.08c-2.03,0-3.67,1.64-3.67,3.67s1.64,3.67,3.67,3.67,3.67-1.64,3.67-3.67-1.64-3.67-3.67-3.67Z"/></g><g id="change1_131"><path d="M153.48,149.81c-2.03,0-3.67,1.64-3.67,3.67s1.64,3.67,3.67,3.67,3.67-1.64,3.67-3.67-1.64-3.67-3.67-3.67Z"/></g><g id="change1_132"><path d="M153.48,168.54c-2.03,0-3.67,1.64-3.67,3.67s1.64,3.67,3.67,3.67,3.67-1.64,3.67-3.67-1.64-3.67-3.67-3.67Z"/></g><g id="change1_133"><path d="M153.48,187.26c-2.03,0-3.67,1.64-3.67,3.67s1.64,3.67,3.67,3.67,3.67-1.64,3.67-3.67-1.64-3.67-3.67-3.67Z"/></g><g id="change1_134"><path d="M153.48,205.99c-2.03,0-3.67,1.64-3.67,3.67s1.64,3.67,3.67,3.67,3.67-1.64,3.67-3.67-1.64-3.67-3.67-3.67Z"/></g><g id="change1_135"><path d="M153.48,224.71c-2.03,0-3.67,1.64-3.67,3.67s1.64,3.67,3.67,3.67,3.67-1.64,3.67-3.67-1.64-3.67-3.67-3.67Z"/></g><g id="change1_136"><path d="M153.48,243.44c-2.03,0-3.67,1.64-3.67,3.67s1.64,3.67,3.67,3.67,3.67-1.64,3.67-3.67-1.64-3.67-3.67-3.67Z"/></g><g id="change1_137"><path d="M153.48,262.17c-2.03,0-3.67,1.64-3.67,3.67s1.64,3.67,3.67,3.67,3.67-1.64,3.67-3.67-1.64-3.67-3.67-3.67Z"/></g><g id="change1_138"><path d="M153.48,280.89c-2.03,0-3.67,1.64-3.67,3.67s1.64,3.67,3.67,3.67,3.67-1.64,3.67-3.67-1.64-3.67-3.67-3.67Z"/></g><g id="change1_139"><path d="M153.48,299.62c-2.03,0-3.67,1.64-3.67,3.67s1.64,3.67,3.67,3.67,3.67-1.64,3.67-3.67-1.64-3.67-3.67-3.67Z"/></g><g id="change1_140"><path d="M153.48,318.35c-2.03,0-3.67,1.64-3.67,3.67s1.64,3.67,3.67,3.67,3.67-1.64,3.67-3.67-1.64-3.67-3.67-3.67Z"/></g><g id="change1_141"><path d="M153.48,337.07c-2.03,0-3.67,1.64-3.67,3.67s1.64,3.67,3.67,3.67,3.67-1.64,3.67-3.67-1.64-3.67-3.67-3.67Z"/></g><g id="change1_142"><path d="M153.48,355.8c-2.03,0-3.67,1.64-3.67,3.67s1.64,3.67,3.67,3.67,3.67-1.64,3.67-3.67-1.64-3.67-3.67-3.67Z"/></g><g id="change1_143"><path d="M153.48,374.52c-2.03,0-3.67,1.64-3.67,3.67,0,.36,.07,.71,.17,1.04,2.1,.45,4.21,.88,6.33,1.27,.52-.63,.84-1.43,.84-2.31,0-2.03-1.64-3.67-3.67-3.67Z"/></g><g id="change1_144"><path d="M172.2,0c-2.03,0-3.67,1.64-3.67,3.67s1.64,3.67,3.67,3.67,3.67-1.64,3.67-3.67-1.64-3.67-3.67-3.67Z"/></g><g id="change1_145"><path d="M172.2,18.73c-2.03,0-3.67,1.64-3.67,3.67s1.64,3.67,3.67,3.67,3.67-1.64,3.67-3.67-1.64-3.67-3.67-3.67Z"/></g><g id="change1_146"><path d="M172.2,37.45c-2.03,0-3.67,1.64-3.67,3.67s1.64,3.67,3.67,3.67,3.67-1.64,3.67-3.67-1.64-3.67-3.67-3.67Z"/></g><g id="change1_147"><path d="M172.2,56.18c-2.03,0-3.67,1.64-3.67,3.67s1.64,3.67,3.67,3.67,3.67-1.64,3.67-3.67-1.64-3.67-3.67-3.67Z"/></g><g id="change1_148"><path d="M172.2,74.9c-2.03,0-3.67,1.64-3.67,3.67s1.64,3.67,3.67,3.67,3.67-1.64,3.67-3.67-1.64-3.67-3.67-3.67Z"/></g><g id="change1_149"><path d="M172.2,93.63c-2.03,0-3.67,1.64-3.67,3.67s1.64,3.67,3.67,3.67,3.67-1.64,3.67-3.67-1.64-3.67-3.67-3.67Z"/></g><g id="change1_150"><path d="M172.2,112.36c-2.03,0-3.67,1.64-3.67,3.67s1.64,3.67,3.67,3.67,3.67-1.64,3.67-3.67-1.64-3.67-3.67-3.67Z"/></g><g id="change1_151"><path d="M172.2,131.08c-2.03,0-3.67,1.64-3.67,3.67s1.64,3.67,3.67,3.67,3.67-1.64,3.67-3.67-1.64-3.67-3.67-3.67Z"/></g><g id="change1_152"><path d="M172.2,149.81c-2.03,0-3.67,1.64-3.67,3.67s1.64,3.67,3.67,3.67,3.67-1.64,3.67-3.67-1.64-3.67-3.67-3.67Z"/></g><g id="change1_153"><path d="M172.2,168.54c-2.03,0-3.67,1.64-3.67,3.67s1.64,3.67,3.67,3.67,3.67-1.64,3.67-3.67-1.64-3.67-3.67-3.67Z"/></g><g id="change1_154"><path d="M172.2,187.26c-2.03,0-3.67,1.64-3.67,3.67s1.64,3.67,3.67,3.67,3.67-1.64,3.67-3.67-1.64-3.67-3.67-3.67Z"/></g><g id="change1_155"><path d="M172.2,205.99c-2.03,0-3.67,1.64-3.67,3.67s1.64,3.67,3.67,3.67,3.67-1.64,3.67-3.67-1.64-3.67-3.67-3.67Z"/></g><g id="change1_156"><path d="M172.2,224.71c-2.03,0-3.67,1.64-3.67,3.67s1.64,3.67,3.67,3.67,3.67-1.64,3.67-3.67-1.64-3.67-3.67-3.67Z"/></g><g id="change1_157"><path d="M172.2,243.44c-2.03,0-3.67,1.64-3.67,3.67s1.64,3.67,3.67,3.67,3.67-1.64,3.67-3.67-1.64-3.67-3.67-3.67Z"/></g><g id="change1_158"><path d="M172.2,262.17c-2.03,0-3.67,1.64-3.67,3.67s1.64,3.67,3.67,3.67,3.67-1.64,3.67-3.67-1.64-3.67-3.67-3.67Z"/></g><g id="change1_159"><path d="M172.2,280.89c-2.03,0-3.67,1.64-3.67,3.67s1.64,3.67,3.67,3.67,3.67-1.64,3.67-3.67-1.64-3.67-3.67-3.67Z"/></g><g id="change1_160"><path d="M172.2,299.62c-2.03,0-3.67,1.64-3.67,3.67s1.64,3.67,3.67,3.67,3.67-1.64,3.67-3.67-1.64-3.67-3.67-3.67Z"/></g><g id="change1_161"><path d="M172.2,318.35c-2.03,0-3.67,1.64-3.67,3.67s1.64,3.67,3.67,3.67,3.67-1.64,3.67-3.67-1.64-3.67-3.67-3.67Z"/></g><g id="change1_162"><path d="M172.2,337.07c-2.03,0-3.67,1.64-3.67,3.67s1.64,3.67,3.67,3.67,3.67-1.64,3.67-3.67-1.64-3.67-3.67-3.67Z"/></g><g id="change1_163"><path d="M172.2,355.8c-2.03,0-3.67,1.64-3.67,3.67s1.64,3.67,3.67,3.67,3.67-1.64,3.67-3.67-1.64-3.67-3.67-3.67Z"/></g><g id="change1_164"><path d="M172.2,374.52c-2.03,0-3.67,1.64-3.67,3.67s1.64,3.67,3.67,3.67,3.67-1.64,3.67-3.67-1.64-3.67-3.67-3.67Z"/></g><g id="change1_165"><path d="M190.93,0c-2.03,0-3.67,1.64-3.67,3.67s1.64,3.67,3.67,3.67,3.67-1.64,3.67-3.67-1.64-3.67-3.67-3.67Z"/></g><g id="change1_166"><path d="M190.93,18.73c-2.03,0-3.67,1.64-3.67,3.67s1.64,3.67,3.67,3.67,3.67-1.64,3.67-3.67-1.64-3.67-3.67-3.67Z"/></g><g id="change1_167"><path d="M190.93,37.45c-2.03,0-3.67,1.64-3.67,3.67s1.64,3.67,3.67,3.67,3.67-1.64,3.67-3.67-1.64-3.67-3.67-3.67Z"/></g><g id="change1_168"><path d="M190.93,56.18c-2.03,0-3.67,1.64-3.67,3.67s1.64,3.67,3.67,3.67,3.67-1.64,3.67-3.67-1.64-3.67-3.67-3.67Z"/></g><g id="change1_169"><path d="M190.93,74.9c-2.03,0-3.67,1.64-3.67,3.67s1.64,3.67,3.67,3.67,3.67-1.64,3.67-3.67-1.64-3.67-3.67-3.67Z"/></g><g id="change1_170"><path d="M190.93,93.63c-2.03,0-3.67,1.64-3.67,3.67s1.64,3.67,3.67,3.67,3.67-1.64,3.67-3.67-1.64-3.67-3.67-3.67Z"/></g><g id="change1_171"><path d="M190.93,112.36c-2.03,0-3.67,1.64-3.67,3.67s1.64,3.67,3.67,3.67,3.67-1.64,3.67-3.67-1.64-3.67-3.67-3.67Z"/></g><g id="change1_172"><path d="M190.93,131.08c-2.03,0-3.67,1.64-3.67,3.67s1.64,3.67,3.67,3.67,3.67-1.64,3.67-3.67-1.64-3.67-3.67-3.67Z"/></g><g id="change1_173"><path d="M190.93,149.81c-2.03,0-3.67,1.64-3.67,3.67s1.64,3.67,3.67,3.67,3.67-1.64,3.67-3.67-1.64-3.67-3.67-3.67Z"/></g><g id="change1_174"><path d="M190.93,168.54c-2.03,0-3.67,1.64-3.67,3.67s1.64,3.67,3.67,3.67,3.67-1.64,3.67-3.67-1.64-3.67-3.67-3.67Z"/></g><g id="change1_175"><path d="M190.93,187.26c-2.03,0-3.67,1.64-3.67,3.67s1.64,3.67,3.67,3.67,3.67-1.64,3.67-3.67-1.64-3.67-3.67-3.67Z"/></g><g id="change1_176"><path d="M190.93,205.99c-2.03,0-3.67,1.64-3.67,3.67s1.64,3.67,3.67,3.67,3.67-1.64,3.67-3.67-1.64-3.67-3.67-3.67Z"/></g><g id="change1_177"><path d="M190.93,224.71c-2.03,0-3.67,1.64-3.67,3.67s1.64,3.67,3.67,3.67,3.67-1.64,3.67-3.67-1.64-3.67-3.67-3.67Z"/></g><g id="change1_178"><path d="M190.93,243.44c-2.03,0-3.67,1.64-3.67,3.67s1.64,3.67,3.67,3.67,3.67-1.64,3.67-3.67-1.64-3.67-3.67-3.67Z"/></g><g id="change1_179"><path d="M190.93,262.17c-2.03,0-3.67,1.64-3.67,3.67s1.64,3.67,3.67,3.67,3.67-1.64,3.67-3.67-1.64-3.67-3.67-3.67Z"/></g><g id="change1_180"><path d="M190.93,280.89c-2.03,0-3.67,1.64-3.67,3.67s1.64,3.67,3.67,3.67,3.67-1.64,3.67-3.67-1.64-3.67-3.67-3.67Z"/></g><g id="change1_181"><path d="M190.93,299.62c-2.03,0-3.67,1.64-3.67,3.67s1.64,3.67,3.67,3.67,3.67-1.64,3.67-3.67-1.64-3.67-3.67-3.67Z"/></g><g id="change1_182"><path d="M190.93,318.35c-2.03,0-3.67,1.64-3.67,3.67s1.64,3.67,3.67,3.67,3.67-1.64,3.67-3.67-1.64-3.67-3.67-3.67Z"/></g><g id="change1_183"><path d="M190.93,337.07c-2.03,0-3.67,1.64-3.67,3.67s1.64,3.67,3.67,3.67,3.67-1.64,3.67-3.67-1.64-3.67-3.67-3.67Z"/></g><g id="change1_184"><path d="M190.93,355.8c-2.03,0-3.67,1.64-3.67,3.67s1.64,3.67,3.67,3.67,3.67-1.64,3.67-3.67-1.64-3.67-3.67-3.67Z"/></g><g id="change1_185"><path d="M190.93,374.52c-2.03,0-3.67,1.64-3.67,3.67s1.64,3.67,3.67,3.67,3.67-1.64,3.67-3.67-1.64-3.67-3.67-3.67Z"/></g><g id="change1_186"><path d="M209.66,0c-2.03,0-3.67,1.64-3.67,3.67s1.64,3.67,3.67,3.67,3.67-1.64,3.67-3.67-1.64-3.67-3.67-3.67Z"/></g><g id="change1_187"><path d="M209.66,18.73c-2.03,0-3.67,1.64-3.67,3.67s1.64,3.67,3.67,3.67,3.67-1.64,3.67-3.67-1.64-3.67-3.67-3.67Z"/></g><g id="change1_188"><path d="M209.66,37.45c-2.03,0-3.67,1.64-3.67,3.67s1.64,3.67,3.67,3.67,3.67-1.64,3.67-3.67-1.64-3.67-3.67-3.67Z"/></g><g id="change1_189"><path d="M209.66,56.18c-2.03,0-3.67,1.64-3.67,3.67s1.64,3.67,3.67,3.67,3.67-1.64,3.67-3.67-1.64-3.67-3.67-3.67Z"/></g><g id="change1_190"><path d="M209.66,74.9c-2.03,0-3.67,1.64-3.67,3.67s1.64,3.67,3.67,3.67,3.67-1.64,3.67-3.67-1.64-3.67-3.67-3.67Z"/></g><g id="change1_191"><path d="M209.66,93.63c-2.03,0-3.67,1.64-3.67,3.67s1.64,3.67,3.67,3.67,3.67-1.64,3.67-3.67-1.64-3.67-3.67-3.67Z"/></g><g id="change1_192"><path d="M209.66,112.36c-2.03,0-3.67,1.64-3.67,3.67s1.64,3.67,3.67,3.67,3.67-1.64,3.67-3.67-1.64-3.67-3.67-3.67Z"/></g><g id="change1_193"><path d="M209.66,131.08c-2.03,0-3.67,1.64-3.67,3.67s1.64,3.67,3.67,3.67,3.67-1.64,3.67-3.67-1.64-3.67-3.67-3.67Z"/></g><g id="change1_194"><path d="M209.66,149.81c-2.03,0-3.67,1.64-3.67,3.67s1.64,3.67,3.67,3.67,3.67-1.64,3.67-3.67-1.64-3.67-3.67-3.67Z"/></g><g id="change1_195"><path d="M209.66,168.54c-2.03,0-3.67,1.64-3.67,3.67s1.64,3.67,3.67,3.67,3.67-1.64,3.67-3.67-1.64-3.67-3.67-3.67Z"/></g><g id="change1_196"><path d="M209.66,187.26c-2.03,0-3.67,1.64-3.67,3.67s1.64,3.67,3.67,3.67,3.67-1.64,3.67-3.67-1.64-3.67-3.67-3.67Z"/></g><g id="change1_197"><path d="M209.66,205.99c-2.03,0-3.67,1.64-3.67,3.67s1.64,3.67,3.67,3.67,3.67-1.64,3.67-3.67-1.64-3.67-3.67-3.67Z"/></g><g id="change1_198"><path d="M209.66,224.71c-2.03,0-3.67,1.64-3.67,3.67s1.64,3.67,3.67,3.67,3.67-1.64,3.67-3.67-1.64-3.67-3.67-3.67Z"/></g><g id="change1_199"><path d="M209.66,243.44c-2.03,0-3.67,1.64-3.67,3.67s1.64,3.67,3.67,3.67,3.67-1.64,3.67-3.67-1.64-3.67-3.67-3.67Z"/></g><g id="change1_200"><path d="M209.66,262.17c-2.03,0-3.67,1.64-3.67,3.67s1.64,3.67,3.67,3.67,3.67-1.64,3.67-3.67-1.64-3.67-3.67-3.67Z"/></g><g id="change1_201"><path d="M209.66,280.89c-2.03,0-3.67,1.64-3.67,3.67s1.64,3.67,3.67,3.67,3.67-1.64,3.67-3.67-1.64-3.67-3.67-3.67Z"/></g><g id="change1_202"><path d="M209.66,299.62c-2.03,0-3.67,1.64-3.67,3.67s1.64,3.67,3.67,3.67,3.67-1.64,3.67-3.67-1.64-3.67-3.67-3.67Z"/></g><g id="change1_203"><path d="M209.66,318.35c-2.03,0-3.67,1.64-3.67,3.67s1.64,3.67,3.67,3.67,3.67-1.64,3.67-3.67-1.64-3.67-3.67-3.67Z"/></g><g id="change1_204"><path d="M209.66,337.07c-2.03,0-3.67,1.64-3.67,3.67s1.64,3.67,3.67,3.67,3.67-1.64,3.67-3.67-1.64-3.67-3.67-3.67Z"/></g><g id="change1_205"><path d="M209.66,355.8c-2.03,0-3.67,1.64-3.67,3.67s1.64,3.67,3.67,3.67,3.67-1.64,3.67-3.67-1.64-3.67-3.67-3.67Z"/></g><g id="change1_206"><path d="M209.66,374.52c-2.03,0-3.67,1.64-3.67,3.67s1.64,3.67,3.67,3.67,3.67-1.64,3.67-3.67-1.64-3.67-3.67-3.67Z"/></g><g id="change1_207"><path d="M228.38,7.34c2.03,0,3.67-1.64,3.67-3.67,0-.36-.07-.71-.17-1.04-2.1-.45-4.21-.88-6.33-1.27-.52,.63-.84,1.43-.84,2.31,0,2.03,1.64,3.67,3.67,3.67Z"/></g><g id="change1_208"><path d="M228.38,18.73c-2.03,0-3.67,1.64-3.67,3.67s1.64,3.67,3.67,3.67,3.67-1.64,3.67-3.67-1.64-3.67-3.67-3.67Z"/></g><g id="change1_209"><path d="M228.38,37.45c-2.03,0-3.67,1.64-3.67,3.67s1.64,3.67,3.67,3.67,3.67-1.64,3.67-3.67-1.64-3.67-3.67-3.67Z"/></g><g id="change1_210"><path d="M228.38,56.18c-2.03,0-3.67,1.64-3.67,3.67s1.64,3.67,3.67,3.67,3.67-1.64,3.67-3.67-1.64-3.67-3.67-3.67Z"/></g><g id="change1_211"><path d="M228.38,74.9c-2.03,0-3.67,1.64-3.67,3.67s1.64,3.67,3.67,3.67,3.67-1.64,3.67-3.67-1.64-3.67-3.67-3.67Z"/></g><g id="change1_212"><path d="M228.38,93.63c-2.03,0-3.67,1.64-3.67,3.67s1.64,3.67,3.67,3.67,3.67-1.64,3.67-3.67-1.64-3.67-3.67-3.67Z"/></g><g id="change1_213"><path d="M228.38,112.36c-2.03,0-3.67,1.64-3.67,3.67s1.64,3.67,3.67,3.67,3.67-1.64,3.67-3.67-1.64-3.67-3.67-3.67Z"/></g><g id="change1_214"><path d="M228.38,131.08c-2.03,0-3.67,1.64-3.67,3.67s1.64,3.67,3.67,3.67,3.67-1.64,3.67-3.67-1.64-3.67-3.67-3.67Z"/></g><g id="change1_215"><path d="M228.38,149.81c-2.03,0-3.67,1.64-3.67,3.67s1.64,3.67,3.67,3.67,3.67-1.64,3.67-3.67-1.64-3.67-3.67-3.67Z"/></g><g id="change1_216"><path d="M228.38,168.54c-2.03,0-3.67,1.64-3.67,3.67s1.64,3.67,3.67,3.67,3.67-1.64,3.67-3.67-1.64-3.67-3.67-3.67Z"/></g><g id="change1_217"><path d="M228.38,187.26c-2.03,0-3.67,1.64-3.67,3.67s1.64,3.67,3.67,3.67,3.67-1.64,3.67-3.67-1.64-3.67-3.67-3.67Z"/></g><g id="change1_218"><path d="M228.38,205.99c-2.03,0-3.67,1.64-3.67,3.67s1.64,3.67,3.67,3.67,3.67-1.64,3.67-3.67-1.64-3.67-3.67-3.67Z"/></g><g id="change1_219"><path d="M228.38,224.71c-2.03,0-3.67,1.64-3.67,3.67s1.64,3.67,3.67,3.67,3.67-1.64,3.67-3.67-1.64-3.67-3.67-3.67Z"/></g><g id="change1_220"><path d="M228.38,243.44c-2.03,0-3.67,1.64-3.67,3.67s1.64,3.67,3.67,3.67,3.67-1.64,3.67-3.67-1.64-3.67-3.67-3.67Z"/></g><g id="change1_221"><path d="M228.38,262.17c-2.03,0-3.67,1.64-3.67,3.67s1.64,3.67,3.67,3.67,3.67-1.64,3.67-3.67-1.64-3.67-3.67-3.67Z"/></g><g id="change1_222"><path d="M228.38,280.89c-2.03,0-3.67,1.64-3.67,3.67s1.64,3.67,3.67,3.67,3.67-1.64,3.67-3.67-1.64-3.67-3.67-3.67Z"/></g><g id="change1_223"><path d="M228.38,299.62c-2.03,0-3.67,1.64-3.67,3.67s1.64,3.67,3.67,3.67,3.67-1.64,3.67-3.67-1.64-3.67-3.67-3.67Z"/></g><g id="change1_224"><path d="M228.38,318.35c-2.03,0-3.67,1.64-3.67,3.67s1.64,3.67,3.67,3.67,3.67-1.64,3.67-3.67-1.64-3.67-3.67-3.67Z"/></g><g id="change1_225"><path d="M228.38,337.07c-2.03,0-3.67,1.64-3.67,3.67s1.64,3.67,3.67,3.67,3.67-1.64,3.67-3.67-1.64-3.67-3.67-3.67Z"/></g><g id="change1_226"><path d="M228.38,355.8c-2.03,0-3.67,1.64-3.67,3.67s1.64,3.67,3.67,3.67,3.67-1.64,3.67-3.67-1.64-3.67-3.67-3.67Z"/></g><g id="change1_227"><path d="M228.38,374.52c-2.03,0-3.67,1.64-3.67,3.67,0,.88,.32,1.67,.84,2.31,2.12-.39,4.23-.81,6.33-1.27,.1-.33,.17-.67,.17-1.04,0-2.03-1.64-3.67-3.67-3.67Z"/></g><g id="change1_228"><path d="M247.11,7.34c.52,0,1.01-.11,1.46-.31-1.5-.47-3.01-.92-4.53-1.36,.65,1,1.78,1.66,3.07,1.66Z"/></g><g id="change1_229"><path d="M247.11,18.73c-2.03,0-3.67,1.64-3.67,3.67s1.64,3.67,3.67,3.67,3.67-1.64,3.67-3.67-1.64-3.67-3.67-3.67Z"/></g><g id="change1_230"><path d="M247.11,37.45c-2.03,0-3.67,1.64-3.67,3.67s1.64,3.67,3.67,3.67,3.67-1.64,3.67-3.67-1.64-3.67-3.67-3.67Z"/></g><g id="change1_231"><path d="M247.11,56.18c-2.03,0-3.67,1.64-3.67,3.67s1.64,3.67,3.67,3.67,3.67-1.64,3.67-3.67-1.64-3.67-3.67-3.67Z"/></g><g id="change1_232"><path d="M247.11,74.9c-2.03,0-3.67,1.64-3.67,3.67s1.64,3.67,3.67,3.67,3.67-1.64,3.67-3.67-1.64-3.67-3.67-3.67Z"/></g><g id="change1_233"><path d="M247.11,93.63c-2.03,0-3.67,1.64-3.67,3.67s1.64,3.67,3.67,3.67,3.67-1.64,3.67-3.67-1.64-3.67-3.67-3.67Z"/></g><g id="change1_234"><path d="M247.11,112.36c-2.03,0-3.67,1.64-3.67,3.67s1.64,3.67,3.67,3.67,3.67-1.64,3.67-3.67-1.64-3.67-3.67-3.67Z"/></g><g id="change1_235"><path d="M247.11,131.08c-2.03,0-3.67,1.64-3.67,3.67s1.64,3.67,3.67,3.67,3.67-1.64,3.67-3.67-1.64-3.67-3.67-3.67Z"/></g><g id="change1_236"><path d="M247.11,149.81c-2.03,0-3.67,1.64-3.67,3.67s1.64,3.67,3.67,3.67,3.67-1.64,3.67-3.67-1.64-3.67-3.67-3.67Z"/></g><g id="change1_237"><path d="M247.11,168.54c-2.03,0-3.67,1.64-3.67,3.67s1.64,3.67,3.67,3.67,3.67-1.64,3.67-3.67-1.64-3.67-3.67-3.67Z"/></g><g id="change1_238"><path d="M247.11,187.26c-2.03,0-3.67,1.64-3.67,3.67s1.64,3.67,3.67,3.67,3.67-1.64,3.67-3.67-1.64-3.67-3.67-3.67Z"/></g><g id="change1_239"><path d="M247.11,205.99c-2.03,0-3.67,1.64-3.67,3.67s1.64,3.67,3.67,3.67,3.67-1.64,3.67-3.67-1.64-3.67-3.67-3.67Z"/></g><g id="change1_240"><path d="M247.11,224.71c-2.03,0-3.67,1.64-3.67,3.67s1.64,3.67,3.67,3.67,3.67-1.64,3.67-3.67-1.64-3.67-3.67-3.67Z"/></g><g id="change1_241"><path d="M247.11,243.44c-2.03,0-3.67,1.64-3.67,3.67s1.64,3.67,3.67,3.67,3.67-1.64,3.67-3.67-1.64-3.67-3.67-3.67Z"/></g><g id="change1_242"><path d="M247.11,262.17c-2.03,0-3.67,1.64-3.67,3.67s1.64,3.67,3.67,3.67,3.67-1.64,3.67-3.67-1.64-3.67-3.67-3.67Z"/></g><g id="change1_243"><path d="M247.11,280.89c-2.03,0-3.67,1.64-3.67,3.67s1.64,3.67,3.67,3.67,3.67-1.64,3.67-3.67-1.64-3.67-3.67-3.67Z"/></g><g id="change1_244"><path d="M247.11,299.62c-2.03,0-3.67,1.64-3.67,3.67s1.64,3.67,3.67,3.67,3.67-1.64,3.67-3.67-1.64-3.67-3.67-3.67Z"/></g><g id="change1_245"><path d="M247.11,318.35c-2.03,0-3.67,1.64-3.67,3.67s1.64,3.67,3.67,3.67,3.67-1.64,3.67-3.67-1.64-3.67-3.67-3.67Z"/></g><g id="change1_246"><path d="M247.11,337.07c-2.03,0-3.67,1.64-3.67,3.67s1.64,3.67,3.67,3.67,3.67-1.64,3.67-3.67-1.64-3.67-3.67-3.67Z"/></g><g id="change1_247"><path d="M247.11,355.8c-2.03,0-3.67,1.64-3.67,3.67s1.64,3.67,3.67,3.67,3.67-1.64,3.67-3.67-1.64-3.67-3.67-3.67Z"/></g><g id="change1_248"><path d="M244.04,376.19c1.52-.43,3.03-.89,4.53-1.36-.45-.2-.94-.31-1.46-.31-1.29,0-2.41,.66-3.07,1.66Z"/></g><g id="change1_249"><path d="M265.83,18.73c-2.03,0-3.67,1.64-3.67,3.67s1.64,3.67,3.67,3.67,3.67-1.64,3.67-3.67-1.64-3.67-3.67-3.67Z"/></g><g id="change1_250"><path d="M265.83,37.45c-2.03,0-3.67,1.64-3.67,3.67s1.64,3.67,3.67,3.67,3.67-1.64,3.67-3.67-1.64-3.67-3.67-3.67Z"/></g><g id="change1_251"><path d="M265.83,56.18c-2.03,0-3.67,1.64-3.67,3.67s1.64,3.67,3.67,3.67,3.67-1.64,3.67-3.67-1.64-3.67-3.67-3.67Z"/></g><g id="change1_252"><path d="M265.83,74.9c-2.03,0-3.67,1.64-3.67,3.67s1.64,3.67,3.67,3.67,3.67-1.64,3.67-3.67-1.64-3.67-3.67-3.67Z"/></g><g id="change1_253"><path d="M265.83,93.63c-2.03,0-3.67,1.64-3.67,3.67s1.64,3.67,3.67,3.67,3.67-1.64,3.67-3.67-1.64-3.67-3.67-3.67Z"/></g><g id="change1_254"><path d="M265.83,112.36c-2.03,0-3.67,1.64-3.67,3.67s1.64,3.67,3.67,3.67,3.67-1.64,3.67-3.67-1.64-3.67-3.67-3.67Z"/></g><g id="change1_255"><path d="M265.83,131.08c-2.03,0-3.67,1.64-3.67,3.67s1.64,3.67,3.67,3.67,3.67-1.64,3.67-3.67-1.64-3.67-3.67-3.67Z"/></g><g id="change1_256"><path d="M265.83,149.81c-2.03,0-3.67,1.64-3.67,3.67s1.64,3.67,3.67,3.67,3.67-1.64,3.67-3.67-1.64-3.67-3.67-3.67Z"/></g><g id="change1_257"><path d="M265.83,168.54c-2.03,0-3.67,1.64-3.67,3.67s1.64,3.67,3.67,3.67,3.67-1.64,3.67-3.67-1.64-3.67-3.67-3.67Z"/></g><g id="change1_258"><path d="M265.83,187.26c-2.03,0-3.67,1.64-3.67,3.67s1.64,3.67,3.67,3.67,3.67-1.64,3.67-3.67-1.64-3.67-3.67-3.67Z"/></g><g id="change1_259"><path d="M265.83,205.99c-2.03,0-3.67,1.64-3.67,3.67s1.64,3.67,3.67,3.67,3.67-1.64,3.67-3.67-1.64-3.67-3.67-3.67Z"/></g><g id="change1_260"><path d="M265.83,224.71c-2.03,0-3.67,1.64-3.67,3.67s1.64,3.67,3.67,3.67,3.67-1.64,3.67-3.67-1.64-3.67-3.67-3.67Z"/></g><g id="change1_261"><path d="M265.83,243.44c-2.03,0-3.67,1.64-3.67,3.67s1.64,3.67,3.67,3.67,3.67-1.64,3.67-3.67-1.64-3.67-3.67-3.67Z"/></g><g id="change1_262"><path d="M265.83,262.17c-2.03,0-3.67,1.64-3.67,3.67s1.64,3.67,3.67,3.67,3.67-1.64,3.67-3.67-1.64-3.67-3.67-3.67Z"/></g><g id="change1_263"><path d="M265.83,280.89c-2.03,0-3.67,1.64-3.67,3.67s1.64,3.67,3.67,3.67,3.67-1.64,3.67-3.67-1.64-3.67-3.67-3.67Z"/></g><g id="change1_264"><path d="M265.83,299.62c-2.03,0-3.67,1.64-3.67,3.67s1.64,3.67,3.67,3.67,3.67-1.64,3.67-3.67-1.64-3.67-3.67-3.67Z"/></g><g id="change1_265"><path d="M265.83,318.35c-2.03,0-3.67,1.64-3.67,3.67s1.64,3.67,3.67,3.67,3.67-1.64,3.67-3.67-1.64-3.67-3.67-3.67Z"/></g><g id="change1_266"><path d="M265.83,337.07c-2.03,0-3.67,1.64-3.67,3.67s1.64,3.67,3.67,3.67,3.67-1.64,3.67-3.67-1.64-3.67-3.67-3.67Z"/></g><g id="change1_267"><path d="M265.83,355.8c-2.03,0-3.67,1.64-3.67,3.67s1.64,3.67,3.67,3.67,3.67-1.64,3.67-3.67-1.64-3.67-3.67-3.67Z"/></g><g id="change1_268"><path d="M280.89,22.39c0,2.03,1.64,3.67,3.67,3.67,1.33,0,2.49-.72,3.13-1.78-2.1-1.22-4.23-2.4-6.38-3.55-.26,.5-.41,1.06-.41,1.66Z"/></g><g id="change1_269"><path d="M284.56,37.45c-2.03,0-3.67,1.64-3.67,3.67s1.64,3.67,3.67,3.67,3.67-1.64,3.67-3.67-1.64-3.67-3.67-3.67Z"/></g><g id="change1_270"><path d="M284.56,56.18c-2.03,0-3.67,1.64-3.67,3.67s1.64,3.67,3.67,3.67,3.67-1.64,3.67-3.67-1.64-3.67-3.67-3.67Z"/></g><g id="change1_271"><path d="M284.56,74.9c-2.03,0-3.67,1.64-3.67,3.67s1.64,3.67,3.67,3.67,3.67-1.64,3.67-3.67-1.64-3.67-3.67-3.67Z"/></g><g id="change1_272"><path d="M284.56,93.63c-2.03,0-3.67,1.64-3.67,3.67s1.64,3.67,3.67,3.67,3.67-1.64,3.67-3.67-1.64-3.67-3.67-3.67Z"/></g><g id="change1_273"><path d="M284.56,112.36c-2.03,0-3.67,1.64-3.67,3.67s1.64,3.67,3.67,3.67,3.67-1.64,3.67-3.67-1.64-3.67-3.67-3.67Z"/></g><g id="change1_274"><path d="M284.56,131.08c-2.03,0-3.67,1.64-3.67,3.67s1.64,3.67,3.67,3.67,3.67-1.64,3.67-3.67-1.64-3.67-3.67-3.67Z"/></g><g id="change1_275"><path d="M284.56,149.81c-2.03,0-3.67,1.64-3.67,3.67s1.64,3.67,3.67,3.67,3.67-1.64,3.67-3.67-1.64-3.67-3.67-3.67Z"/></g><g id="change1_276"><path d="M284.56,168.54c-2.03,0-3.67,1.64-3.67,3.67s1.64,3.67,3.67,3.67,3.67-1.64,3.67-3.67-1.64-3.67-3.67-3.67Z"/></g><g id="change1_277"><path d="M284.56,187.26c-2.03,0-3.67,1.64-3.67,3.67s1.64,3.67,3.67,3.67,3.67-1.64,3.67-3.67-1.64-3.67-3.67-3.67Z"/></g><g id="change1_278"><path d="M284.56,205.99c-2.03,0-3.67,1.64-3.67,3.67s1.64,3.67,3.67,3.67,3.67-1.64,3.67-3.67-1.64-3.67-3.67-3.67Z"/></g><g id="change1_279"><path d="M284.56,224.71c-2.03,0-3.67,1.64-3.67,3.67s1.64,3.67,3.67,3.67,3.67-1.64,3.67-3.67-1.64-3.67-3.67-3.67Z"/></g><g id="change1_280"><path d="M284.56,243.44c-2.03,0-3.67,1.64-3.67,3.67s1.64,3.67,3.67,3.67,3.67-1.64,3.67-3.67-1.64-3.67-3.67-3.67Z"/></g><g id="change1_281"><path d="M284.56,262.17c-2.03,0-3.67,1.64-3.67,3.67s1.64,3.67,3.67,3.67,3.67-1.64,3.67-3.67-1.64-3.67-3.67-3.67Z"/></g><g id="change1_282"><path d="M284.56,280.89c-2.03,0-3.67,1.64-3.67,3.67s1.64,3.67,3.67,3.67,3.67-1.64,3.67-3.67-1.64-3.67-3.67-3.67Z"/></g><g id="change1_283"><path d="M284.56,299.62c-2.03,0-3.67,1.64-3.67,3.67s1.64,3.67,3.67,3.67,3.67-1.64,3.67-3.67-1.64-3.67-3.67-3.67Z"/></g><g id="change1_284"><path d="M284.56,318.35c-2.03,0-3.67,1.64-3.67,3.67s1.64,3.67,3.67,3.67,3.67-1.64,3.67-3.67-1.64-3.67-3.67-3.67Z"/></g><g id="change1_285"><path d="M284.56,337.07c-2.03,0-3.67,1.64-3.67,3.67s1.64,3.67,3.67,3.67,3.67-1.64,3.67-3.67-1.64-3.67-3.67-3.67Z"/></g><g id="change1_286"><path d="M284.56,355.8c-2.03,0-3.67,1.64-3.67,3.67,0,.6,.16,1.16,.41,1.66,2.15-1.14,4.28-2.33,6.38-3.55-.64-1.06-1.8-1.78-3.13-1.78Z"/></g><g id="change1_287"><path d="M303.29,44.79c2.03,0,3.67-1.64,3.67-3.67s-1.64-3.67-3.67-3.67-3.67,1.64-3.67,3.67,1.64,3.67,3.67,3.67Z"/></g><g id="change1_288"><path d="M303.29,63.51c2.03,0,3.67-1.64,3.67-3.67s-1.64-3.67-3.67-3.67-3.67,1.64-3.67,3.67,1.64,3.67,3.67,3.67Z"/></g><g id="change1_289"><path d="M303.29,82.24c2.03,0,3.67-1.64,3.67-3.67s-1.64-3.67-3.67-3.67-3.67,1.64-3.67,3.67,1.64,3.67,3.67,3.67Z"/></g><g id="change1_290"><path d="M303.29,100.97c2.03,0,3.67-1.64,3.67-3.67s-1.64-3.67-3.67-3.67-3.67,1.64-3.67,3.67,1.64,3.67,3.67,3.67Z"/></g><g id="change1_291"><path d="M303.29,119.69c2.03,0,3.67-1.64,3.67-3.67s-1.64-3.67-3.67-3.67-3.67,1.64-3.67,3.67,1.64,3.67,3.67,3.67Z"/></g><g id="change1_292"><path d="M303.29,138.42c2.03,0,3.67-1.64,3.67-3.67s-1.64-3.67-3.67-3.67-3.67,1.64-3.67,3.67,1.64,3.67,3.67,3.67Z"/></g><g id="change1_293"><path d="M303.29,157.15c2.03,0,3.67-1.64,3.67-3.67s-1.64-3.67-3.67-3.67-3.67,1.64-3.67,3.67,1.64,3.67,3.67,3.67Z"/></g><g id="change1_294"><path d="M303.29,175.87c2.03,0,3.67-1.64,3.67-3.67s-1.64-3.67-3.67-3.67-3.67,1.64-3.67,3.67,1.64,3.67,3.67,3.67Z"/></g><g id="change1_295"><path d="M303.29,194.6c2.03,0,3.67-1.64,3.67-3.67s-1.64-3.67-3.67-3.67-3.67,1.64-3.67,3.67,1.64,3.67,3.67,3.67Z"/></g><g id="change1_296"><path d="M303.29,213.32c2.03,0,3.67-1.64,3.67-3.67s-1.64-3.67-3.67-3.67-3.67,1.64-3.67,3.67,1.64,3.67,3.67,3.67Z"/></g><g id="change1_297"><path d="M303.29,232.05c2.03,0,3.67-1.64,3.67-3.67s-1.64-3.67-3.67-3.67-3.67,1.64-3.67,3.67,1.64,3.67,3.67,3.67Z"/></g><g id="change1_298"><path d="M303.29,250.78c2.03,0,3.67-1.64,3.67-3.67s-1.64-3.67-3.67-3.67-3.67,1.64-3.67,3.67,1.64,3.67,3.67,3.67Z"/></g><g id="change1_299"><path d="M303.29,269.5c2.03,0,3.67-1.64,3.67-3.67s-1.64-3.67-3.67-3.67-3.67,1.64-3.67,3.67,1.64,3.67,3.67,3.67Z"/></g><g id="change1_300"><path d="M303.29,288.23c2.03,0,3.67-1.64,3.67-3.67s-1.64-3.67-3.67-3.67-3.67,1.64-3.67,3.67,1.64,3.67,3.67,3.67Z"/></g><g id="change1_301"><path d="M303.29,306.96c2.03,0,3.67-1.64,3.67-3.67s-1.64-3.67-3.67-3.67-3.67,1.64-3.67,3.67,1.64,3.67,3.67,3.67Z"/></g><g id="change1_302"><path d="M303.29,325.68c2.03,0,3.67-1.64,3.67-3.67s-1.64-3.67-3.67-3.67-3.67,1.64-3.67,3.67,1.64,3.67,3.67,3.67Z"/></g><g id="change1_303"><path d="M303.29,344.41c2.03,0,3.67-1.64,3.67-3.67s-1.64-3.67-3.67-3.67-3.67,1.64-3.67,3.67,1.64,3.67,3.67,3.67Z"/></g><g id="change1_304"><path d="M322.01,56.18c-2.03,0-3.67,1.64-3.67,3.67s1.64,3.67,3.67,3.67,3.67-1.64,3.67-3.67-1.64-3.67-3.67-3.67Z"/></g><g id="change1_305"><path d="M322.01,82.24c2.03,0,3.67-1.64,3.67-3.67s-1.64-3.67-3.67-3.67-3.67,1.64-3.67,3.67,1.64,3.67,3.67,3.67Z"/></g><g id="change1_306"><path d="M322.01,100.97c2.03,0,3.67-1.64,3.67-3.67s-1.64-3.67-3.67-3.67-3.67,1.64-3.67,3.67,1.64,3.67,3.67,3.67Z"/></g><g id="change1_307"><path d="M322.01,119.69c2.03,0,3.67-1.64,3.67-3.67s-1.64-3.67-3.67-3.67-3.67,1.64-3.67,3.67,1.64,3.67,3.67,3.67Z"/></g><g id="change1_308"><path d="M322.01,138.42c2.03,0,3.67-1.64,3.67-3.67s-1.64-3.67-3.67-3.67-3.67,1.64-3.67,3.67,1.64,3.67,3.67,3.67Z"/></g><g id="change1_309"><path d="M322.01,157.15c2.03,0,3.67-1.64,3.67-3.67s-1.64-3.67-3.67-3.67-3.67,1.64-3.67,3.67,1.64,3.67,3.67,3.67Z"/></g><g id="change1_310"><path d="M322.01,175.87c2.03,0,3.67-1.64,3.67-3.67s-1.64-3.67-3.67-3.67-3.67,1.64-3.67,3.67,1.64,3.67,3.67,3.67Z"/></g><g id="change1_311"><path d="M322.01,194.6c2.03,0,3.67-1.64,3.67-3.67s-1.64-3.67-3.67-3.67-3.67,1.64-3.67,3.67,1.64,3.67,3.67,3.67Z"/></g><g id="change1_312"><path d="M322.01,213.32c2.03,0,3.67-1.64,3.67-3.67s-1.64-3.67-3.67-3.67-3.67,1.64-3.67,3.67,1.64,3.67,3.67,3.67Z"/></g><g id="change1_313"><path d="M322.01,232.05c2.03,0,3.67-1.64,3.67-3.67s-1.64-3.67-3.67-3.67-3.67,1.64-3.67,3.67,1.64,3.67,3.67,3.67Z"/></g><g id="change1_314"><path d="M322.01,250.78c2.03,0,3.67-1.64,3.67-3.67s-1.64-3.67-3.67-3.67-3.67,1.64-3.67,3.67,1.64,3.67,3.67,3.67Z"/></g><g id="change1_315"><path d="M322.01,269.5c2.03,0,3.67-1.64,3.67-3.67s-1.64-3.67-3.67-3.67-3.67,1.64-3.67,3.67,1.64,3.67,3.67,3.67Z"/></g><g id="change1_316"><path d="M322.01,288.23c2.03,0,3.67-1.64,3.67-3.67s-1.64-3.67-3.67-3.67-3.67,1.64-3.67,3.67,1.64,3.67,3.67,3.67Z"/></g><g id="change1_317"><path d="M322.01,306.96c2.03,0,3.67-1.64,3.67-3.67s-1.64-3.67-3.67-3.67-3.67,1.64-3.67,3.67,1.64,3.67,3.67,3.67Z"/></g><g id="change1_318"><path d="M322.01,325.68c2.03,0,3.67-1.64,3.67-3.67s-1.64-3.67-3.67-3.67-3.67,1.64-3.67,3.67,1.64,3.67,3.67,3.67Z"/></g><g id="change1_319"><path d="M340.74,74.9c-2.03,0-3.67,1.64-3.67,3.67s1.64,3.67,3.67,3.67,3.67-1.64,3.67-3.67-1.64-3.67-3.67-3.67Z"/></g><g id="change1_320"><path d="M340.74,93.63c-2.03,0-3.67,1.64-3.67,3.67s1.64,3.67,3.67,3.67,3.67-1.64,3.67-3.67-1.64-3.67-3.67-3.67Z"/></g><g id="change1_321"><path d="M340.74,112.36c-2.03,0-3.67,1.64-3.67,3.67s1.64,3.67,3.67,3.67,3.67-1.64,3.67-3.67-1.64-3.67-3.67-3.67Z"/></g><g id="change1_322"><path d="M340.74,131.08c-2.03,0-3.67,1.64-3.67,3.67s1.64,3.67,3.67,3.67,3.67-1.64,3.67-3.67-1.64-3.67-3.67-3.67Z"/></g><g id="change1_323"><path d="M340.74,149.81c-2.03,0-3.67,1.64-3.67,3.67s1.64,3.67,3.67,3.67,3.67-1.64,3.67-3.67-1.64-3.67-3.67-3.67Z"/></g><g id="change1_324"><path d="M340.74,168.54c-2.03,0-3.67,1.64-3.67,3.67s1.64,3.67,3.67,3.67,3.67-1.64,3.67-3.67-1.64-3.67-3.67-3.67Z"/></g><g id="change1_325"><path d="M340.74,187.26c-2.03,0-3.67,1.64-3.67,3.67s1.64,3.67,3.67,3.67,3.67-1.64,3.67-3.67-1.64-3.67-3.67-3.67Z"/></g><g id="change1_326"><path d="M340.74,205.99c-2.03,0-3.67,1.64-3.67,3.67s1.64,3.67,3.67,3.67,3.67-1.64,3.67-3.67-1.64-3.67-3.67-3.67Z"/></g><g id="change1_327"><path d="M340.74,224.71c-2.03,0-3.67,1.64-3.67,3.67s1.64,3.67,3.67,3.67,3.67-1.64,3.67-3.67-1.64-3.67-3.67-3.67Z"/></g><g id="change1_328"><path d="M340.74,243.44c-2.03,0-3.67,1.64-3.67,3.67s1.64,3.67,3.67,3.67,3.67-1.64,3.67-3.67-1.64-3.67-3.67-3.67Z"/></g><g id="change1_329"><path d="M340.74,262.17c-2.03,0-3.67,1.64-3.67,3.67s1.64,3.67,3.67,3.67,3.67-1.64,3.67-3.67-1.64-3.67-3.67-3.67Z"/></g><g id="change1_330"><path d="M340.74,280.89c-2.03,0-3.67,1.64-3.67,3.67s1.64,3.67,3.67,3.67,3.67-1.64,3.67-3.67-1.64-3.67-3.67-3.67Z"/></g><g id="change1_331"><path d="M340.74,306.96c2.03,0,3.67-1.64,3.67-3.67s-1.64-3.67-3.67-3.67-3.67,1.64-3.67,3.67,1.64,3.67,3.67,3.67Z"/></g><g id="change1_332"><path d="M355.8,97.3c0,2.03,1.64,3.67,3.67,3.67,.6,0,1.16-.16,1.66-.41-1.14-2.15-2.33-4.28-3.55-6.38-1.06,.64-1.78,1.8-1.78,3.13Z"/></g><g id="change1_333"><path d="M359.47,112.36c-2.03,0-3.67,1.64-3.67,3.67s1.64,3.67,3.67,3.67,3.67-1.64,3.67-3.67-1.64-3.67-3.67-3.67Z"/></g><g id="change1_334"><path d="M359.47,131.08c-2.03,0-3.67,1.64-3.67,3.67s1.64,3.67,3.67,3.67,3.67-1.64,3.67-3.67-1.64-3.67-3.67-3.67Z"/></g><g id="change1_335"><path d="M359.47,149.81c-2.03,0-3.67,1.64-3.67,3.67s1.64,3.67,3.67,3.67,3.67-1.64,3.67-3.67-1.64-3.67-3.67-3.67Z"/></g><g id="change1_336"><path d="M359.47,168.54c-2.03,0-3.67,1.64-3.67,3.67s1.64,3.67,3.67,3.67,3.67-1.64,3.67-3.67-1.64-3.67-3.67-3.67Z"/></g><g id="change1_337"><path d="M359.47,187.26c-2.03,0-3.67,1.64-3.67,3.67s1.64,3.67,3.67,3.67,3.67-1.64,3.67-3.67-1.64-3.67-3.67-3.67Z"/></g><g id="change1_338"><path d="M359.47,205.99c-2.03,0-3.67,1.64-3.67,3.67s1.64,3.67,3.67,3.67,3.67-1.64,3.67-3.67-1.64-3.67-3.67-3.67Z"/></g><g id="change1_339"><path d="M359.47,224.71c-2.03,0-3.67,1.64-3.67,3.67s1.64,3.67,3.67,3.67,3.67-1.64,3.67-3.67-1.64-3.67-3.67-3.67Z"/></g><g id="change1_340"><path d="M359.47,243.44c-2.03,0-3.67,1.64-3.67,3.67s1.64,3.67,3.67,3.67,3.67-1.64,3.67-3.67-1.64-3.67-3.67-3.67Z"/></g><g id="change1_341"><path d="M359.47,262.17c-2.03,0-3.67,1.64-3.67,3.67s1.64,3.67,3.67,3.67,3.67-1.64,3.67-3.67-1.64-3.67-3.67-3.67Z"/></g><g id="change1_342"><path d="M355.8,284.56c0,1.33,.72,2.49,1.78,3.13,1.22-2.1,2.4-4.23,3.55-6.38-.5-.26-1.06-.41-1.66-.41-2.03,0-3.67,1.64-3.67,3.67Z"/></g><g id="change1_343"><path d="M376.19,137.82c-.43-1.52-.89-3.03-1.36-4.53-.2,.45-.31,.94-.31,1.46,0,1.29,.66,2.41,1.66,3.07Z"/></g><g id="change1_344"><path d="M378.19,149.81c-2.03,0-3.67,1.64-3.67,3.67s1.64,3.67,3.67,3.67c.88,0,1.67-.32,2.31-.84-.39-2.12-.81-4.23-1.27-6.33-.33-.1-.67-.17-1.04-.17Z"/></g><g id="change1_345"><path d="M378.19,168.54c-2.03,0-3.67,1.64-3.67,3.67s1.64,3.67,3.67,3.67,3.67-1.64,3.67-3.67-1.64-3.67-3.67-3.67Z"/></g><g id="change1_346"><path d="M378.19,187.26c-2.03,0-3.67,1.64-3.67,3.67s1.64,3.67,3.67,3.67,3.67-1.64,3.67-3.67-1.64-3.67-3.67-3.67Z"/></g><g id="change1_347"><path d="M378.19,205.99c-2.03,0-3.67,1.64-3.67,3.67s1.64,3.67,3.67,3.67,3.67-1.64,3.67-3.67-1.64-3.67-3.67-3.67Z"/></g><g id="change1_348"><path d="M374.52,228.38c0,2.03,1.64,3.67,3.67,3.67,.36,0,.71-.07,1.04-.17,.45-2.1,.88-4.21,1.27-6.33-.63-.52-1.43-.84-2.31-.84-2.03,0-3.67,1.64-3.67,3.67Z"/></g><g id="change1_349"><path d="M374.52,247.11c0,.52,.11,1.01,.31,1.46,.47-1.5,.92-3.01,1.36-4.53-1,.66-1.66,1.78-1.66,3.07Z"/></g></svg>