<?xml version="1.0" encoding="UTF-8"?>
<svg version="1.1" viewBox="0 0 2048 935" width="628" height="287" xmlns="http://www.w3.org/2000/svg">
<path transform="translate(371,6)" d="m0 0h34l26 2 32 5 30 7 30 10 24 10 17 8 24 14 24 16 13 10 11 9 12 11 10 9 9 9 7 8 12 14 15 20 13 20 11 19 8 15 12 28 11 33 6 24 4 22 3 24 1 14v44l-2 23-4 26-7 30-6 20-10 27-14 29-9 17-12 19-13 18-9 11-12 14-12 13-9 9-8 7-10 9-17 13-14 10-19 12-24 13-19 9-26 10-26 8-26 6-24 4-18 2-16 1h-37l-31-3-25-4-32-8-27-9-26-11-16-8-22-12-18-12-19-14-13-11-10-9-8-7-13-13-7-8-12-14-12-16-14-21-11-19-12-23-11-27-10-31-7-30-4-26-2-23v-47l3-31 5-28 8-30 7-21 11-26 8-17 13-23 14-21 12-16 11-13 12-14 17-17 8-7 14-12 19-14 15-10 22-13 28-14 28-11 22-7 30-7 24-4 18-2z" fill="#B61930"/>
<path transform="translate(395,349)" d="m0 0h12l13 3 12 6 9 7 9 10 6 12 2 8v18l-4 13-6 11-6 7-12 9-16 6-25 7-23 8-16 7-14 10-15 14-13 13-10 13-9 17-7 24-8 36-6 15-7 9-7 7-12 7-9 3-6 1h-13l-12-3-12-6-12-11-6-8-5-10-3-12v-11l3-12 7-14 9-10 7-6 12-6 30-7 23-6 22-8 15-10 14-12 7-7 8-10 8-13 5-10 4-12 5-26 5-30 5-12 8-11 10-9 12-6z" fill="#FDFDFD"/>
<path transform="translate(374,161)" d="m0 0h8l14 3 12 6 9 7 7 8 5 8 5 16 7 31 6 19 6 15 7 11 9 11 9 10 11 10 14 9 17 8 23 5 36 6 14 5 11 7 8 8 8 14 3 10v20l-4 13-6 10-9 10-7 6-10 5-11 3h-13l-10-2-12-5-10-8-7-7-8-14-10-35-7-20-8-18-10-13-18-20-8-7-10-9-18-10-21-7-41-9-13-5-11-8-8-8-7-12-4-16v-9l4-16 6-11 11-12 9-6 8-4z" fill="#FDFDFD"/>
<path transform="translate(1776,415)" d="m0 0h44l7 10 12 19 42 66 12 19 13 20 1 1v-133l1-2h39l1 1v201h-42l-11-17-24-38-15-24-14-22-15-24-9-14-1-1-1 140h-41v-201z" fill="#B61930"/>
<path transform="translate(1263,415)" d="m0 0h95l17 2 11 3 14 7 10 9 7 10 4 11 2 8v20l-3 11-5 10-9 10-9 6-10 5h-2l4 10 15 28 12 22 15 28v2h-47l-6-10-8-16-20-39-8-15-2-1-34-1v82h-43zm43 32v57h21l26-1 16-5 7-6 3-6 1-5v-12l-4-10-9-8-9-3-6-1z" fill="#B61930"/>
<path transform="translate(1466,415)" d="m0 0h80l14 1 19 4 15 6 11 7 10 9 9 11 8 16 4 13 3 18v33l-4 21-6 16-7 12-9 10-10 9-15 8-21 6-15 2h-86zm43 33-1 3v132l1 1h40l15-4 11-6 9-9 6-10 5-17 1-8v-28l-3-15-4-11-6-10-7-7-11-6-13-4-8-1z" fill="#B61930"/>
<path transform="translate(1119,415)" d="m0 0h53l3 8 22 70 22 71 12 39 4 11v3h-43l-7-23-5-18v-2h-70l-1 6-9 31-3 6h-42l2-9 14-45 8-25 17-53 18-57 4-12zm26 41-24 80-1 5h50l-2-10-16-57-5-17z" fill="#B61930"/>
<path transform="translate(900,415)" d="m0 0h89l18 2 16 4 14 7 10 9 6 8 5 12 2 14v9l-2 14-5 12-7 9-10 9-13 6-16 4-21 2-39 1-3 3-1 77h-43l-1-9v-144zm43 32v57h41l13-2 9-4 7-6 3-7v-19l-4-8-7-6-12-4-8-1z" fill="#B61930"/>
<path transform="translate(1356,204)" d="m0 0h45l3 7 20 66 9 31v2l2-1 9-30 14-46 8-25 2-4h45l1 1v155h-28l-1-10v-100l1-9h-2l-2 9-16 51-18 58-1 1-23 1-3-2-15-47-15-49-7-21v118h-29v-155z" fill="#7F8383"/>
<path transform="translate(1203,204)" d="m0 0h78l14 3 10 4 9 7 6 8 4 9 2 11v8l-2 11-4 8-9 10-14 7 2 6 12 23 12 22 9 16-1 2h-36l-14-27-12-23-6-12-27-1v62l-1 1h-32l-1-1v-153zm33 25v43h31l14-3 6-4 4-5 1-3v-13l-4-8-5-4-9-3z" fill="#808484"/>
<path transform="translate(901,204)" d="m0 0h32l1 1v61h65l-1-6v-47l1-9h32l1 1v155h-33v-66h-65v66h-33l-1-2v-153z" fill="#808484"/>
<path transform="translate(1066,204)" d="m0 0h112l1 8v17l-1 1h-79v36h57l1 1v23l-1 1h-57v44h82v25l-106 1-9-1-1-7v-148z" fill="#818585"/>
<path transform="translate(1547,204)" d="m0 0h113l1 1v25h-81v36h58v25h-58l1 43 82 1v25h-116z" fill="#7F8383"/>
<path transform="translate(208,339)" d="m0 0h21l12 3 14 8 10 9 7 9 5 10 4 15v16l-4 14-6 11-6 7-10 7-11 5-10 2h-15l-16-4-11-6-10-9-7-8-8-16-3-13v-12l3-13 6-12 9-10 6-5 12-6z" fill="#FDFDFD"/>
<path transform="translate(565,161)" d="m0 0 16 1 12 4 11 7 10 10 7 14 2 7 1 14-3 16-8 16-9 10-7 6-16 8-13 3h-14l-15-4-8-4-9-7-7-8-6-12-3-12v-13l3-14 7-14 11-12 9-7 16-7z" fill="#FDFDFD"/>
<path transform="translate(224,161)" d="m0 0 15 1 12 4 11 7 7 7 6 10 4 14v18l-3 12-7 14-8 10-10 8-14 7-13 3h-15l-13-3-11-6-8-7-7-11-5-13-1-6v-11l3-14 8-16 9-10 8-7 16-8z" fill="#FDFDFD"/>
<path transform="translate(1734,202)" d="m0 0 21 2 15 6 9 6 11 11 5 9v2l-24 7-6 1-8-11-10-6-6-2h-14l-9 3-6 7-1 8 4 6 5 4 15 7 25 9 16 8 11 8 6 7 4 8 2 9-1 14-3 10-6 10-9 8-11 5-11 3-21 2-17-2-15-5-12-7-10-9-8-11-1-4 25-11h3l7 11 8 7 8 4 11 2 13-1 10-4 5-5 2-5v-8l-3-6-7-6-15-7-24-9-17-8-9-7-8-9-4-10v-14l4-12 6-8 8-7 14-7 9-2z" fill="#7F8383"/>
<path transform="translate(2e3 415)" d="m0 0h43v202h-43z" fill="#B61930"/>
<path transform="translate(1677,415)" d="m0 0h42l1 1v201h-43z" fill="#B71930"/>
<path transform="translate(903,680)" d="m0 0h17l4 9 18 52 5 19 2-3 6-20 15-41 6-16h17l1 1 6 94v7h-13l-1-5-3-46-1-23-1-7-13 38-14 38-2 4h-10l-5-12-16-47-6-21v-2h-2l1 6-4 69-1 8h-13l1-20 5-73z" fill="#7F8383"/>
<path transform="translate(1230,854)" d="m0 0 12 1 6 4 5 6v2l8-7 8-5 11-1 9 2 8 7 4 8 2 8v50h-14l-1-49-3-8-6-5h-10l-6 4-4 6-1 34v17l-1 1h-13l-1-50-4-8-5-4h-10l-6 4-4 6-1 3-1 49h-14v-73h12l1 9 8-7 6-3z" fill="#808484"/>
<path transform="translate(1032,827)" d="m0 0h28l10 3 9 6 4 6 2 7-1 10-6 10-8 5 9 6 7 8 2 5v14l-5 10-9 8-13 4-10 1h-15l-12-1v-100l1-1zm9 10-3 1-1 8v23l1 1h18l9-4 4-5 1-2v-12l-5-6-6-3-7-1zm-3 44-1 1v33l1 4h19l8-3 5-4 3-5 1-10-3-8-6-5-8-3z" fill="#7F8383"/>
<path transform="translate(1162,675)" d="m0 0h14l1 1v106h-12l-1-4 1-6-5 3-7 6-11 3-12-1-8-4-7-7-6-12-2-16 2-12 6-12 8-8 8-4 13-1 9 2 6 4 2 2zm-23 43-8 4-6 7-3 10v15l4 10 8 7 3 1h11l7-4 6-7 1-3v-26l-3-6-8-7-3-1z" fill="#808484"/>
<path transform="translate(1931,675)" d="m0 0h14l1 106-1 1h-11l-1-1-1-9-7 7-9 4-11 1-11-3-10-9-6-12-1-4v-20l4-11 6-9 8-6 5-2 10-1 12 2 9 6zm-24 43-6 3-5 5-4 8-2 10 1 12 5 9 7 6 3 1h11l8-5 6-9 1-7v-14l-3-9-6-7-7-3z" fill="#7F8383"/>
<path transform="translate(1646,679)" d="m0 0h21l11 4 1 2-4 10-9-3-6-1h-10l-8 4-4 6v9l3 5 10 6 15 7 9 6 4 5 3 7 1 10-2 9-5 8-7 6-12 4h-20l-15-4-1-4 2-9 5 1 9 3 5 1h11l8-3 5-5 2-5-1-9-4-6-10-6-12-5-8-5-8-9-2-6v-12l5-10 8-7z" fill="#7F8383"/>
<path transform="translate(1403,707)" d="m0 0 14 1 9 6 6 10 2 13v45h-15l-1-52-5-8-4-2h-11l-7 4-5 9-1 49h-14v-74h10l2 1 1 9 8-7 6-3z" fill="#7F8383"/>
<path transform="translate(1483,707)" d="m0 0 15 1 8 4 6 8 3 10 1 51-1 1h-11l-1-1v-7l-10 7-10 3-11-1-6-3-6-7-3-9 2-12 6-8 11-6 15-3 10-1-2-9-5-5-2-1h-15l-11 4-3-6v-4l9-4zm7 38-10 3-6 4-3 8 2 8 4 4 5 2 9-2 7-5 4-8v-14z" fill="#808484"/>
<path transform="translate(1994,708)" d="m0 0h21l8 4 6 7 4 8 2 9v11l-1 1h-51l3 11 4 6 5 4 9 3h9l12-3h4l1 10-8 3-5 1h-20l-11-4-8-7-4-6-3-8-1-6v-12l3-12 6-10 7-6zm7 9-8 3-6 7-4 10 1 1h38l-1-8-5-8-5-4z" fill="#7F8383"/>
<path transform="translate(1048,708)" d="m0 0h20l8 4 7 8 4 9 1 4v15h-52l4 12 5 7 8 4 4 1h10l12-3 4 1 1 9-13 4-13 1-12-2-8-4-7-6-6-12-1-4v-20l4-11 6-8 7-6zm7 9-7 2-7 7-4 8v4h38l1-2-4-11-4-5-3-2z" fill="#7F8383"/>
<path transform="translate(1729,707)" d="m0 0 14 1 8 4 6 7 3 8 1 55h-12v-8l-10 7-10 3h-7l-9-3-7-7-3-8v-9l5-10 7-6 11-4 10-2 10-1-1-8-5-6-2-1h-15l-8 3-5-1-1-8 8-4zm15 37-16 3-6 3-4 5-1 2v8l4 6 7 3 6-1 8-5 4-5 1-3v-15z" fill="#808484"/>
<path transform="translate(1410,855)" d="m0 0h19l8 4 5 5 4 6 3 9 1 5v10l-1 1-51 1 3 10 4 6 6 5 7 2h12l9-2h5l1 9-7 3-5 1h-21l-11-4-6-4-6-9-3-7-1-5v-15l4-13 7-10 8-6zm7 9-9 3-7 8-3 7v3h39l-2-10-6-8-8-3z" fill="#7F8383"/>
<path transform="translate(1134,855)" d="m0 0h19l10 5 6 8 4 11 1 7v9h-52l3 12 7 8 9 4h13l13-3 2 6-1 5-12 3h-20l-11-4-7-5-6-10-3-10v-15l2-9 5-9 6-7 6-4zm6 9-8 3-6 7-4 8v3h39l-2-9-4-7-6-4z" fill="#808484"/>
<path transform="translate(918,855)" d="m0 0h18l8 3 8 8 4 9 2 12v8h-52l3 12 7 8 6 3 4 1h13l12-3 2 5v5l-7 3-6 1h-20l-11-4-8-7-6-10-2-8v-15l4-13 6-9 7-6zm6 9-8 3-6 7-4 8v3h38l1-3-4-11-6-5-6-2z" fill="#7F8383"/>
<path transform="translate(1615,855)" d="m0 0h20l10 5 6 9 2 7 1 53h-12l-1-3-1-4-10 7-13 2-10-2-8-7-3-7v-12l4-8 8-7 11-4 20-3-2-9-5-5-2-1h-14l-8 3-4 1-3-9 6-4zm15 37-12 3-7 6-2 5 1 7 5 6 5 2 8-1 8-6 3-4 1-6v-9l-1-3z" fill="#7F8383"/>
<path transform="translate(1840,708)" d="m0 0h10l2 1v73h-12v-10l-10 8-7 3-11 1-10-3-5-4-4-6-3-9-1-53h15l1 51 4 8 6 3h8l8-4 4-5 2-5 1-48z" fill="#808484"/>
<path transform="translate(1487,855)" d="m0 0h20l7 3 1 3-3 8-9-3-6-1-9 3-2 3v7l6 5 17 8 7 8 2 6v7l-4 9-8 7-6 2-10 1-14-2-6-3-1-2 3-9 4 1 8 3h13l5-4 1-2v-7l-4-5-16-7-9-8-3-8 1-9 6-9 6-4z" fill="#808484"/>
<path transform="translate(1281,707)" d="m0 0 15 1 7 3 1 2-4 9-10-3h-9l-9 3-7 6-4 9-1 10 2 10 6 9 6 4 4 1h13l10-2 2 6-1 5-10 3h-20l-12-5-8-8-5-10-2-11 1-13 4-10 6-8 6-5 8-4z" fill="#808484"/>
<path transform="translate(1557,835)" d="m0 0h2v21h19v10l-2 1h-16v42l2 7 7 3h8l1 9-3 2h-17l-7-4-4-7-1-4v-48h-10l-2-1v-10l11-1v-15l1-2z" fill="#818585"/>
<path transform="translate(1716,854)" d="m0 0 3 1 1 11-1 1-10 2-5 3-4 5-2 5-1 7-1 40h-13l-1-73h12l1 3v8l9-10 4-2z" fill="#7F8383"/>
<path transform="translate(1328,708)" d="m0 0 13 1v73h-14l-1-73z" fill="#7F8383"/>
<path transform="translate(1207,708)" d="m0 0h12l1 1v73h-13l-1-73z" fill="#808484"/>
<path transform="translate(1547,763)" d="m0 0h14l-3 9-8 21-4 7h-10l3-11 5-23z" fill="#808484"/>
<path transform="translate(1326,883)" d="m0 0h38v10h-38z" fill="#7F8383"/>
<path transform="translate(1828,677)" d="m0 0h15l-3 5-10 11-5 6-3 1h-7v-3l10-17z" fill="#838787"/>
<path transform="translate(1331,680)" d="m0 0 7 1 4 4v7l-3 4-8 1-5-4-1-7 4-5z" fill="#808484"/>
<path transform="translate(1210,680)" d="m0 0 8 1 4 5-1 8-4 3-9-1-3-5 1-7z" fill="#808484"/>
</svg>
