<?xml version="1.0" encoding="UTF-8"?>
<svg version="1.1" viewBox="0 0 2048 1365" width="1162" height="775" xmlns="http://www.w3.org/2000/svg">
<path transform="translate(554,444)" d="m0 0h34l8 16 15 31 13 28 16 33 13 28 14 29 9 19 1 1 14-29 13-28 19-40 10-22 8-16 13-28 10-21 1-1h34l2 1v339l-6 2h-31l-3-2-1-232-8 16-16 34-18 38-19 40-16 34-5 9-4-1-14-29-13-28-15-31-13-28-16-33-10-22-1 233-5 2h-32l-3-2v-338z" fill="#FDFDFD"/>
<path transform="translate(856,444)" d="m0 0h91l17 4 16 7 11 7 11 9 9 9 11 15 8 15 6 18 3 16 1 18-2 23-4 16-7 16-6 11-9 12-14 15-13 11-5 3h-2l29 49 17 29 16 27 4 7v4l-2 1h-48l-6-9-15-27-24-42-13-23-3-5v-2h-34v106l-2 2h-40l-2-2v-338zm43 48v138h39l14-3 14-7 10-9 8-9 8-16 3-12 1-17-2-14-3-10-8-15-11-12-10-7-11-5-10-2z" fill="#FDFDFD"/>
<path transform="translate(1362,452)" d="m0 0h19l16 3 15 6 12 7 13 11 10 11 9 13 8 16 5 14 3 14 1 8v130l-3 17-5 16-8 17-10 14-9 10-7 7-13 9-12 6-17 5-8 1h-20l-15-3-14-5-15-9-12-11-7-7-11-15-8-16-6-18-3-16v-135l4-20 6-16 8-15 9-12 9-10 10-9 13-8 11-5 15-4zm8 45-14 2-12 5-11 8-10 11-8 14-4 11-2 11v121l3 15 6 14 8 11 11 11 12 7 9 3 6 1h15l12-3 12-6 12-11 8-10 7-15 3-11 1-7v-119l-4-18-8-16-9-11-8-7-12-7-11-3z" fill="#BB2426"/>
<path transform="translate(1164,448)" d="m0 0h18l15 3 12 5 12 7 12 11 9 10 10 16 6 15 4 17 1 8v25l-3 17-6 18-9 17-10 13-11 12-9 10-10 9-11 10-11 9-11 10-11 9-14 13-5 5-8 9-5 11 134 1v44h-180l2-17 6-29 6-19 7-16 7-12 11-12 11-10 11-9 11-10 11-9 12-11 8-7 9-9 9-11 8-10 7-14 4-16v-18l-4-16-6-11-6-7v-2l-4-2-10-7-13-4h-14l-10 3-9 5-10 9-6 10-5 14-5 27-5-1-33-14 1-12 5-20 8-19 7-11 9-11 11-10 11-7 11-5 11-3z" fill="#BB2426"/>
<path transform="translate(1561,448)" d="m0 0h18l15 3 15 6 13 9 14 14 9 13 8 16 5 17 2 14v25l-3 18-5 15-8 16-8 11-9 11-14 15-13 12-14 12-10 9-11 9-12 11-8 7-11 11-6 10-2 5 134 1v44h-180l3-22 5-24 8-24 8-16 7-11 12-12 11-9 10-9 11-9 10-9 8-7 10-9 10-10 9-11 9-12 5-11 3-9 1-6v-20l-3-12-8-16-7-8-10-7-10-4-5-1h-13l-9 2-11 6-10 9-7 12-6 21-2 16-1 2-5-1-33-14 1-11 5-20 5-13 8-15 8-10 8-9 12-9 16-8 11-3z" fill="#BB2426"/>
<path transform="translate(1777,452)" d="m0 0h34v197h24l1 1v43h-25v89h-38l-1-1v-88h-116l9-19 18-36 10-19 43-86 10-19zm-6 103-11 20-8 16-23 45-6 11v2h49l1-94z" fill="#BB2426"/>
<path transform="translate(448,444)" d="m0 0h45l1 1v280l-3 15-7 16-7 9-8 8-14 9-15 5-5 1h-23l-15-4-12-6-11-9-9-10-8-15-4-14-1-6v-13l34-12 5 1 6 21 6 12 5 4 6 2h16l10-5 4-8 2-12 1-269z" fill="#FDFDFD"/>
<path transform="translate(329,420)" d="m0 0h30l24 4 17 5 18 8 8 5v36l-4-2-18-10-15-6-18-5-14-2h-23l-18 3-16 5-18 8-16 10-11 9-10 10-9 13-8 15-6 16-5 22-1 24 2 20 4 15 6 15 10 17 11 14 11 12 13 10 16 9 12 5 18 5 17 2 3 1 7 29v5l-16-1-20-3-15-4-17-7-21-12-16-12-15-15-11-14-10-15-9-17-7-19-4-18-2-16v-13l4-27 6-24 7-19 9-17 9-12 9-10 11-11 17-13 14-9 16-8 21-7z" fill="#6640A4"/>
<path transform="translate(333,358)" d="m0 0h14l25 3 20 5 17 6 19 9 18 11 8 6-5 5-11 10-5 3-21-12-19-8-17-5-17-3h-34l-20 4-18 6-19 9-16 10-12 9-4-1-14-11-6-4 2-4 17-13 17-11 16-8 20-8 25-6z" fill="#D5272A"/>
<path transform="translate(156,479)" d="m0 0 5 5 13 14-2 6-9 17-8 21-5 20-2 17v16l3 22 5 18 9 21 10 17 14 19v4l-15 21-7-6-13-17-10-15-9-17-8-20-6-25-2-18v-20l3-22 6-23 6-16 8-16 7-13z" fill="#D5272A"/>
<path transform="translate(341,497)" d="m0 0h18l14 3 13 5 12 7 9 8-5 4-13 9-4-1-11-6-11-4-5-1h-16l-11 3-12 6-5-2-7-7-7-6 5-4 12-7 14-5z" fill="#D5272A"/>
<path transform="translate(387,632)" d="m0 0 5 2 11 8 4 4-14 11-16 8-13 4h-29l-15-4-14-7-5-5 12-11 4-4 6 2 10 4 9 2h15l11-3 14-7z" fill="#D5272A"/>
<path transform="translate(281,532)" d="m0 0 16 16-2 4-6 13-3 17 1 12 4 13 5 9 1 4-7 7-7 6h-4l-9-15-6-17-1-5v-25l4-15 8-16z" fill="#D5272A"/>
<path transform="translate(133,823)" d="m0 0h10l9 16 4-5 6-11h10l-2 6-11 19 1 5 10 17 5 9v2h-9l-7-10-6-11-4 5-8 14-2 2h-9l2-6 14-24-1-5-12-21z" fill="#FDFDFD"/>
<path transform="translate(514,821)" d="m0 0 5 1 15 26 4 7 4-5 14-25 3-4 5 1v53l-1 4-4-1-1-45-13 23-6 9-4-4-15-26-1-2-1 45-4 1-1-1v-56z" fill="#FDFDFD"/>
<path transform="translate(515,903)" d="m0 0 4 2 8 13 11 19 4-5 16-28 4-1 2 1v56l-5 1-1-45-17 29-3 2-6-9-12-21-1-2-1 46-5-1v-56z" fill="#FDFDFD"/>
<path transform="translate(1360,903)" d="m0 0 4 1 16 28 4 5 14-24 5-9h6v56l-5 1-1-45-16 27-2 4-4-2-15-26-2-4-1 46-5-1v-56z" fill="#FDFDFD"/>
<path transform="translate(1718,903)" d="m0 0 4 2 10 17 8 14v2l3-3 15-26 3-5 4-1 2 2v31l-1 25h-4v-46h-2l-2 6-13 22-3 4h-2l-15-26-3-5-1 45h-5v-57z" fill="#FDFDFD"/>
<path transform="translate(969,903)" d="m0 0h14l8 3 9 8 4 7 1 4v15l-5 10-7 7-10 4h-15l-10-5-7-7-4-9-1-11 3-10 6-8 8-6zm0 5-8 4-7 8-3 9 1 10 4 8 8 7 9 3 11-1 8-5 6-7 2-5v-14l-4-8-8-7-5-2z" fill="#FDFDFD"/>
<path transform="translate(1183,840)" d="m0 0h12l6 3 3 2v-2l4-1 1 8v18l-1 9-4 6-6 5-7 2-9-1-7-4-2-2 1-4 4 1 5 3 8 1 7-3 4-5-9 4h-7l-8-3-7-8-2-5v-9l4-8 7-6zm1 5-6 4-4 8 1 9 5 6 8 3 9-2 6-6 1-3v-8l-3-6-5-4-2-1z" fill="#FDFDFD"/>
<path transform="translate(1235,903)" d="m0 0h8l7 2 4 5v9l-1 4 7 6 3 7v10l-4 8-8 6-4 1h-14l-1-2v-55zm3 5-1 3v9l1 1h8l4-4-1-6-4-3zm-1 18v30h11l6-4 4-8v-7l-4-7-7-4z" fill="#FDFDFD"/>
<path transform="translate(422,821)" d="m0 0 5 1v56l-4 1-2-4-7 4-9 1-9-3-7-8-2-6v-7l3-7 5-6 6-3 7-1 8 2 6 4zm-20 24-6 4-3 5-1 8 3 7 5 4 2 1h11l8-7 1-3v-9l-4-6-3-3-3-1z" fill="#FDFDFD"/>
<path transform="translate(823,821)" d="m0 0 5 1v56l-4 1-1-5-8 5-9 1-9-3-7-8-2-6v-7l3-8 8-7 3-1h12l6 3 3 2zm-20 24-6 4-4 8 1 9 6 7 2 1h12l7-6 2-5v-7l-3-6-5-4-2-1z" fill="#FDFDFD"/>
<path transform="translate(823,904)" d="m0 0h5v56l-5 1-1-4-7 4-10 1-8-3-5-5-4-8v-8l3-7 4-5 8-4h10l8 4 1 1zm-19 23-7 4-4 8 1 9 6 7 5 2 10-1 5-4 3-6v-8l-4-7-7-4z" fill="#FDFDFD"/>
<path transform="translate(1030,821)" d="m0 0h4v58l-4-1-2-3-7 4-9 1-8-3-5-4-4-7v-12l3-6 5-5 5-3 8-1 9 3 3 2 1-22zm-21 24-7 6-2 4v10l7 8 2 1h11l6-4 3-5v-11l-4-6-5-3z" fill="#FDFDFD"/>
<path transform="translate(422,904)" d="m0 0h5v56l-5 1-1-4-6 4-11 1-8-3-7-8-2-5v-7l3-8 4-5 8-4h10l8 4 1 1zm-19 23-7 4-3 5-1 8 3 7 6 5 9 1 7-3 4-5 1-3v-8l-3-6-5-4-3-1z" fill="#FDFDFD"/>
<path transform="translate(1680,903)" d="m0 0h11l9 3 5 4 4 8v9l-4 8-6 5h-3l11 18 1 3h-5l-8-11-5-8-9-1v20l-5-1v-56zm2 5-1 1v28h11l7-3 4-5 1-3v-7l-3-6-5-4-4-1z" fill="#FDFDFD"/>
<path transform="translate(1277,903)" d="m0 0h9l9 3 5 4 4 8v9l-4 8-5 4-4 1 10 16 2 5h-5l-8-11-5-8h-8l-1 19h-4l-1-4v-53zm0 5-1 1v28h11l7-3 4-5 1-2v-8l-3-6-5-4-3-1z" fill="#FDFDFD"/>
<path transform="translate(908,821)" d="m0 0h16l8 3 5 5 3 5v12l-4 7-5 4-3 2 11 17-1 3-4-1-8-11-4-7-9-1v19l-5 1zm5 5-1 28 1 1h8l9-3 4-5 1-2v-10l-4-6-6-3z" fill="#FDFDFD"/>
<path transform="translate(1799,903)" d="m0 0h14l12 6 1 3-4 2-10-5h-13l-8 4-6 7-2 5v15l5 8 6 5 9 3 11-1 6-2 1-19 5 1v18l-5 5-8 3h-15l-10-5-7-7-4-9-1-10 2-9 6-9 6-5z" fill="#FDFDFD"/>
<path transform="translate(1460,903)" d="m0 0 16 2 9 6 5 6 4 11v8l-3 10-9 10-9 4-5 1h-9v-57zm4 5v48l9-1 8-4 6-8 1-3v-16l-5-8-6-5-10-3z" fill="#FDFDFD"/>
<path transform="translate(732,839)" d="m0 0 9 2 4 3 7-1v35l-4 1-2-4-7 4-9 1-9-3-7-8-2-7 1-9 4-7 5-4 4-2zm-5 6-6 4-3 5-1 8 4 8 6 4h11l6-4 3-6v-9l-4-6-3-3-3-1z" fill="#FDFDFD"/>
<path transform="translate(1255,839)" d="m0 0 9 2 4 3 7-1v35l-4 1-2-4-7 4-9 1-8-3-6-5-3-6-1-9 3-8 5-6 6-3zm-5 6-6 4-3 5-1 7 3 8 5 4 2 1h11l6-4 3-5v-10l-4-6-5-4z" fill="#FDFDFD"/>
<path transform="translate(450,840)" d="m0 0h13l6 4 7-1v35l-3 1-2-1-1-3-7 4-8 1-9-3-6-5-3-5-1-10 3-8 4-5zm1 5-6 4-3 5v11l4 6 5 3h11l7-5 2-4v-10l-4-6-5-4z" fill="#FDFDFD"/>
<path transform="translate(959,840)" d="m0 0h13l6 4 7-1v35h-4l-2-3-7 4-9 1-8-3-6-5-4-10 1-9 5-8zm1 5-6 4-3 5v11l4 6 5 3h11l7-5 2-4v-10l-3-5-6-5z" fill="#FDFDFD"/>
<path transform="translate(727,922)" d="m0 0h10l8 4 6-1 1 1v34l-4 1-2-4-6 4-11 1-8-3-7-8-2-6 1-10 6-9zm1 5-6 4-4 5-1 8 3 7 6 5 9 1 7-3 4-5 1-2v-9l-3-6-5-4-3-1z" fill="#FDFDFD"/>
<path transform="translate(452,922)" d="m0 0h9l7 3h4 4v35l-4 1-2-4-6 4-11 1-8-3-7-8-2-6 1-10 4-6 5-5zm0 5-6 4-3 3-1 3v11l6 7 5 2 10-1 6-5 2-4v-10l-4-6-6-4z" fill="#FDFDFD"/>
<path transform="translate(1203,903)" d="m0 0h2l9 24 11 30v4l-5-1-7-19-19-1-1 6-6 15h-4l1-7 18-50zm0 13-6 16v3h14l-3-10-3-9z" fill="#FCFCFC"/>
<path transform="translate(1328,903)" d="m0 0h3l20 56v2h-5l-7-19v-2h-19l-3 10-4 10-4 1-1-3 16-44zm1 13-4 10-3 9h14l-1-6-4-12z" fill="#FDFDFD"/>
<path transform="translate(357,839)" d="m0 0 10 2 5 3 5-1v35h-4v-4l-9 5-8 1-9-3-5-4-4-8v-11l3-6 8-7zm-5 6-7 6-2 4v9l3 5 6 5h11l6-4 3-4 1-8-3-7-5-5-2-1z" fill="#FDFDFD"/>
<path transform="translate(353,922)" d="m0 0h10l10 5v-2h4v36h-4v-5l-8 5-10 1-9-3-6-7-2-4v-12l5-8 5-4zm1 5-6 3-4 5-1 2v10l4 6 4 3 10 1 6-3 5-6 1-8-3-7-6-5-2-1z" fill="#FDFDFD"/>
<path transform="translate(1037,903)" d="m0 0h14l12 6v4l-3 1-10-5h-13l-8 4-6 7-3 9 1 11 5 8 7 6 8 2 11-1 9-5 3 3-5 5-8 3h-15l-10-5-7-7-4-9-1-10 2-9 6-9 7-6z" fill="#FDFDFD"/>
<path transform="translate(1505,903)" d="m0 0h26l1 5-24 1v20l24 1-1 5h-24l1 14-1 7h25v5h-29v-57z" fill="#FDFDFD"/>
<path transform="translate(1075,903)" d="m0 0h2l1 40 2 7 6 5h11l5-3 3-6 1-42 4-1 1 1v42l-3 7-5 5-6 3h-11l-7-4-4-5-2-4v-44z" fill="#FDFDFD"/>
<path transform="translate(911,903)" d="m0 0h11l8 2 8 7 2 5v11l-3 6-7 6-3 1h-14l-1 20h-4v-57zm2 5-1 28 1 1h11l6-3 4-4 1-3v-9l-3-5-5-4-3-1z" fill="#FDFDFD"/>
<path transform="translate(648,839)" d="m0 0 9 2 6 4-1 4-21 21v2l2 1h11l6-4 5 1-3 5-7 4-9 1-8-3-6-5-3-6-1-7 2-8 4-6 8-5zm-5 6-6 4-3 5v12h4l18-18v-2l-3-1z" fill="#FDFDFD"/>
<path transform="translate(1420,903)" d="m0 0h28l1 5-24 1v20l24 1v5h-25v21h25v5h-29z" fill="#FDFDFD"/>
<path transform="translate(855,839)" d="m0 0 10 2 6 5-4 6-18 18h-2v2l4 1h11l6-4 4 1-2 4-5 4-7 2-9-1-6-4-5-6-2-5v-9l4-8 7-6zm-4 6-6 4-3 4-1 3v7l2 4 4-2 17-17v-2l-3-1z" fill="#FDFDFD"/>
<path transform="translate(851,922)" d="m0 0h10l8 4 2 4-23 23 2 2 9 1 7-3 4-2 2 1-2 4-4 4-7 2-10-1-7-4-5-8-1-3v-9l4-8 8-6zm1 5-7 4-4 8v7l2 4 7-6 14-14-1-2-3-1z" fill="#FDFDFD"/>
<path transform="translate(1581,922)" d="m0 0h10l8 4 2 4-23 23 2 2 9 1 7-3 4-2 2 1-1 4-7 5-11 1-8-3-7-8-2-6 1-10 5-8 6-4zm1 5-6 4-4 5-1 8 2 6 5-3 7-8 9-9-1-2-3-1z" fill="#FDFDFD"/>
<path transform="translate(643,922)" d="m0 0h11l6 3 3 3-2 4-21 21 2 2 10 1 10-5 3 3-7 6-7 2-10-1-6-4-5-6-2-10 2-8 7-8zm1 5-6 4-4 5v12l1 2 4-2 11-12 6-7-4-2z" fill="#FDFDFD"/>
<path transform="translate(1073,840)" d="m0 0h13l8 5 5 7 1 9-2 8-6 7-6 3-9 1-8-3-5-4-4-8v-11l3-6 8-7zm1 5-7 6-2 4v10l4 6 5 3h11l6-4 3-5v-11l-4-6-5-3z" fill="#FDFDFD"/>
<path transform="translate(1135,840)" d="m0 0h13l9 6 4 7 1 8-3 9-5 6-6 3-9 1-8-3-6-5-4-10 1-9 6-9zm1 5-6 4-3 5-1 7 3 7 5 5 2 1h11l6-4 3-5v-11l-7-8-2-1z" fill="#FDFDFD"/>
<path transform="translate(241,840)" d="m0 0h13l8 5 5 8v13l-4 7-6 5-11 2-9-3-6-5-3-6v-13l5-8zm1 5-7 6-2 4v10l4 6 5 3h11l6-4 3-5v-11l-4-6-5-3z" fill="#FDFDFD"/>
<path transform="translate(1647,903)" d="m0 0h9l6 4 2 5-5 1-4-4h-7l-3 4v6l5 4 11 6 5 4 3 6v10l-3 6-6 5-2 1h-12l-5-3-5-6-1-6 4-1 4 8 6 3 9-1 5-6v-9l-4-6-15-8-4-5-1-9 4-6z" fill="#FDFDFD"/>
<path transform="translate(243,922)" d="m0 0h10l6 3 5 5 3 5v14l-4 6-6 5-7 2-10-1-6-4-5-6-1-3v-12l3-6 7-6zm0 5-6 4-4 6v10l4 6 4 3 10 1 6-3 4-4 1-3v-11l-6-7-4-2z" fill="#FDFDFD"/>
<path transform="translate(1131,903)" d="m0 0h8l5 3 3 4-1 3-4-1-3-3h-7l-3 2-1 6 2 4 15 8 6 7 1 2v12l-3 5-6 5-2 1h-12l-6-4-4-5-1-6 4-1 5 8 6 3 8-1 5-5 1-7-3-7-5-4-12-6-4-6v-10l4-5z" fill="#FDFDFD"/>
<path transform="translate(147,905)" d="m0 0h9v58h-9z" fill="#FDFDFD"/>
<path transform="translate(310,923)" d="m0 0h8l6 4 3 4 1 3v27h-5l-1-27-5-5h-8l-4 4-1 28-5-1v-35z" fill="#FDFDFD"/>
<path transform="translate(602,923)" d="m0 0h7l6 3 4 5 1 3v27h-5l-1-27-5-5h-8l-3 1-1 3-1 28-5-1v-34l1-1z" fill="#FDFDFD"/>
<path transform="translate(308,841)" d="m0 0h11l6 4 3 6v27h-5l-1-26-4-5-6-1-6 3-1 2-1 27-3 1-2-1v-35z" fill="#FDFDFD"/>
<path transform="translate(600,841)" d="m0 0h11l6 4 3 7v26l-4 1-1-1-1-26-4-5-6-1-6 3-1 2-1 27-2 1-3-1v-35z" fill="#FDFDFD"/>
<path transform="translate(214,821)" d="m0 0 5 1v49l-3 5-5 3-9-1-4-4-1-6h4l3 5h9z" fill="#FDFDFD"/>
<path transform="translate(214,904)" d="m0 0h5v49l-3 5-4 3h-8l-6-5-1-6h4l3 5 5 1 3-1 1-2z" fill="#FDFDFD"/>
<path transform="translate(1109,821)" d="m0 0h4v57l-4 1-1-1v-56z" fill="#FDFDFD"/>
<path transform="translate(703,924)" d="m0 0 3 1v4l-5 3h-2l-2 5-1 2-1 22-5-1v-34l5-1 1 3z" fill="#FDFDFD"/>
<path transform="translate(289,924)" d="m0 0 3 1v4l-7 4-3 6-1 22-5-1v-34l5-1 1 3z" fill="#FDFDFD"/>
<path transform="translate(288,842)" d="m0 0 4 1-1 4-6 4-3 6-1 21-4 1-1-1v-35h5v3z" fill="#FDFDFD"/>
<path transform="translate(702,842)" d="m0 0 4 1-1 4-6 4-3 6-1 21-3 1-2-1v-35h5l1 3z" fill="#FDFDFD"/>
<path transform="translate(1045,843)" d="m0 0h5l1 1v22l-1 12-4 1-1-1z" fill="#FDFDFD"/>
<path transform="translate(674,925)" d="m0 0h5v36l-5-1z" fill="#FDFDFD"/>
<path transform="translate(575,925)" d="m0 0h5v36l-5-1z" fill="#FDFDFD"/>
<path transform="translate(1223,842)" d="m0 0 2 1v35l-4 1-1-1v-35z" fill="#FDFDFD"/>
<path transform="translate(677,842)" d="m0 0 2 1v35l-2 1-3-1v-35z" fill="#FDFDFD"/>
<path transform="translate(575,843)" d="m0 0h5v35h-5z" fill="#FDFDFD"/>
<path transform="translate(1047,830)" d="m0 0 5 3-1 5-4 1-3-2v-5z" fill="#FDFDFD"/>
<path transform="translate(1220,831)" d="m0 0h5l2 2-1 4-4 2-4-4z" fill="#FDFDFD"/>
<path transform="translate(674,831)" d="m0 0h5l2 2-1 4-4 2-3-2v-5z" fill="#FDFDFD"/>
<path transform="translate(576,913)" d="m0 0 5 1 1 4-3 3-4-1-1-5z" fill="#FDFDFD"/>
<path transform="translate(575,831)" d="m0 0h5l2 4-3 4-5-2v-5z" fill="#FDFDFD"/>
<path transform="translate(675,913)" d="m0 0 5 1 1 4-3 3-5-2-1-3z" fill="#FDFDFD"/>
</svg>
