<?xml version="1.0" encoding="UTF-8"?>
<svg version="1.1" viewBox="0 0 1000 850" width="1000" height="850" xmlns="http://www.w3.org/2000/svg">
<path transform="translate(434,186)" d="m0 0h17l16 4 12 5 11 8 8 7 4-2 10-9 15-8 13-4 7-1h16l17 4 16 8 10 8 10 10 8 13 6 14 4 16 1 8v27l-4 20-8 20-9 14-8 10-12 13-14 13-11 9-15 12-16 11-13 8-15 7-6 2h-11l-13-5-18-10-17-12-14-11-13-11-12-11-16-16-11-15-8-16-5-13-3-13-1-10v-19l2-15 4-15 8-17 9-12 8-8 10-7 12-6 13-4z" fill="#E62B46"/>
<path transform="translate(464,246)" d="m0 0h14l11 4 8 6h3l10-7 10-3h14l11 4 8 6 7 8 5 11 2 10v11l-3 12-7 13-11 12-10 9-17 12-16 8h-9l-16-8-16-12-14-12-9-11-6-12-2-7v-19l3-10 6-11 9-8 10-5z" fill="#A0242E"/>
<path transform="translate(406,470)" d="m0 0h15l3 4 19 50 8 21v2h2l3-10 21-55 4-10 2-2h15l6 4 4 8 2 26 4 70v13h-21l-1-4-4-72-1-3-14 36-11 28-1 1h-18l-12-29-14-36-1 4-4 72-1 3h-21v-12l5-87 2-13 4-6z" fill="#595858"/>
<path transform="translate(133,470)" d="m0 0h21l16 5 11 7 4 3-2 4-8 5-3 1h-7l-13-5-5-1h-7l-9 3-3 3-1 3v9l5 6 12 5 18 6 11 6 7 8 4 11v12l-3 10-4 6-9 8-10 4-12 2h-10l-14-2-18-6-5-3 2-5 8-7 5-2 10 2 14 3 12-1 6-3 3-6v-10l-5-6-12-5-17-5-10-5-6-5-4-6-3-11v-8l3-11 6-8 8-6 10-4z" fill="#595858"/>
<path transform="translate(234,496)" d="m0 0h10l17 3 10 3 1 1 1 88h-18l-3-9-8 7-11 4h-11l-9-2-8-5-8-9-4-11-1-5v-24l3-12 6-12 9-9 10-5zm-5 17-6 4-5 6-3 8-1 4v25l3 9 4 5 6 3h10l8-4 4-6 1-3v-49l-4-2z" fill="#5A5959"/>
<path transform="translate(560,496)" d="m0 0h12l17 3 9 3 1 1 1 87h-19l-2-8-8 7-7 3-5 1h-9l-12-3-8-6-6-8-4-11-1-6v-21l4-16 6-10 8-8 10-5 6-2zm1 16-9 3-7 8-4 13v23l4 11 7 6 3 1h9l8-4 4-5 1-3v-51l-10-2z" fill="#595858"/>
<path transform="translate(315,494)" d="m0 0h17l12 4 9 7 6 10 3 10 1 7v15l-2 12-4 11-6 8-8 7-12 5-6 1h-10l-12-3-8-5-8-9-5-13-2-14v-9l2-13 5-13 9-10 9-5zm3 16-8 4-5 8-2 8v22l3 12 4 6 6 4h11l6-4 5-8 2-9v-22l-2-9-5-8-4-3-3-1z" fill="#595858"/>
<path transform="translate(782,494)" d="m0 0h13l11 3 8 5 8 9 4 10 2 12v14l-2 12-5 13-9 10-7 5-9 3-6 1h-9l-10-2-10-5-8-9-4-8-3-12v-24l3-12 5-9 5-6 11-7zm3 16-8 3-5 6-3 7-1 6v19l3 13 6 8 4 2h11l6-4 5-8 2-8v-24l-3-10-4-6-5-3z" fill="#595858"/>
<path transform="translate(861,494)" d="m0 0h13l12 3 11 6 4 5-7 6-2 1h-9l-12-4h-7l-6 3-2 4 1 8 8 5 18 6 9 6 6 7 2 7v10l-3 9-7 8-10 5-10 2h-10l-16-3-10-4-3-2 2-6 7-6h10l9 3h11l6-4 1-9-2-4-8-4-18-6-8-5-5-6-2-5v-14l4-9 7-7 8-4z" fill="#595858"/>
<path transform="translate(703,494)" d="m0 0h14l12 4 6 4 6 5 2 3-1 4-6 4-9 1-8-5-3-1h-12l-6 4-4 5-3 10v20l3 10 4 6 7 4h10l8-4 3-2h8l7 4 2 2-1 4-8 8-11 5-9 2h-8l-13-3-10-6-8-9-5-11-2-9v-21l3-12 6-11 7-7 9-5z" fill="#595858"/>
<path transform="translate(652,496)" d="m0 0 12 2 3 2-1 10-2 9-10-3h-7l-6 3-4 5-2 7-1 60h-21l-1-1v-79l4-7 7-4 6-1 1 11 9-9 7-4z" fill="#5A5959"/>
<path transform="translate(634,292)" d="m0 0 1 2-4 20-8 20-9 14-8 10-12 13-14 13-11 9-15 12-16 11-13 8-15 7-6 2h-11l-13-5-18-10-17-12-14-11-13-11-12-11-16-16-11-15-8-16-5-13-3-14h2l7 19 9 17 10 13 12 13 12 11 11 9 15 12 27 18 16 8 8 3h13l13-5 15-8 16-11 12-9 14-11 10-9 8-7 12-12 10-13 8-14 6-14 4-16z" fill="#A32530"/>
<path transform="translate(220,470)" d="m0 0h14l10 3h13l5-1 1 1 1 11-5 3-3 1h-11l-12-3h-13l-7 2-1-1-1-11 6-4z" fill="#5B5A5A"/>
<path transform="translate(329,633)" d="m0 0h6l7 14v2h2l2-6 5-10h6l1 30-5 1-2-19-6 11h-4l-6-11-2 19-5-1z" fill="#A6A6A5"/>
<path transform="translate(495,633)" d="m0 0h5l7 10 6 10 1-20h5v30l-5 1-7-10-6-10-1 20-5-1z" fill="#A7A7A6"/>
<path transform="translate(700,633)" d="m0 0h5l7 10 6 10 1-20h5v30l-5 1-7-10-6-10-1 20-5-1z" fill="#A6A6A5"/>
<path transform="translate(399,633)" d="m0 0h15l5 3 2 4v16l-3 5-7 3h-12zm5 4v22h9l3-3v-15l-4-4z" fill="#A3A3A2"/>
<path transform="translate(584,633)" d="m0 0h15l6 5 1 3v15l-4 6-6 2h-12zm5 4v22h9l3-4v-14l-4-4z" fill="#A7A7A7"/>
<path transform="translate(200,633)" d="m0 0h15l6 5 1 3v15l-4 6-6 2h-12zm5 4v22h9l3-3v-15l-4-4z" fill="#A2A2A1"/>
<path transform="translate(741,633)" d="m0 0h10l6 5 1 3v15l-4 6-4 2h-7l-6-3-2-3v-19l4-5zm2 4-3 3v17l4 3h5l4-4v-15l-3-4z" fill="#A3A3A2"/>
<path transform="translate(369,633)" d="m0 0h19v4h-13v9h11v4h-11v9h12l1 4-1 1h-17l-1-1z" fill="#B2B2B1"/>
<path transform="translate(164,633)" d="m0 0h5l1 22 3 4 7-1 1-1 1-24h5v25l-5 5-3 1h-7l-5-3-2-2-1-4z" fill="#ABABAA"/>
<path transform="translate(882,633)" d="m0 0h6l4 10 6 18v3h-5l-2-5v-3h-11l-2 7-5 1 1-7zm3 5-4 13h8l-2-10z" fill="#A6A6A6"/>
<path transform="translate(643,633)" d="m0 0h6l9 27v4l-5-1-2-6-11-1-1 6-1 2h-5l3-12 6-18zm2 5-3 10v3h8l-4-13z" fill="#A5A5A4"/>
<path transform="translate(139,633)" d="m0 0h6l4 10 6 19v2h-5l-2-5v-3l-11 1-3 7h-4l1-7zm3 5-4 13h8l-2-10z" fill="#A6A6A5"/>
<path transform="translate(538,633)" d="m0 0h7l9 28v3l-5-1-2-7h-11l-2 7-5 1 2-9zm3 5-4 13h9l-4-13z" fill="#A4A4A3"/>
<path transform="translate(673,633)" d="m0 0h13l2 1-1 4h-14v18l3 3h8v-9h-6l1-4h9v16l-5 2h-8l-6-3-2-4v-17l3-5z" fill="#A2A2A1"/>
<path transform="translate(233,633)" d="m0 0h19v4h-14v9h12v4h-12v9h13l1 4-1 1h-17l-1-1z" fill="#A7A7A6"/>
<path transform="translate(281,633)" d="m0 0h18v4h-13v9h12v4h-12v9h13v5h-18z" fill="#A7A7A6"/>
<path transform="translate(772,633)" d="m0 0h12l1 5h-11v5l10 5 3 3v7l-2 4-4 2h-9l-4-1v-5l11 1 2-1v-5l-12-7-1-1v-8z" fill="#A0A09F"/>
<path transform="translate(106,633)" d="m0 0h12l1 5h-11v5l10 5 3 3v7l-2 4-4 2h-9l-4-1v-5l11 1 2-1v-5l-12-7-1-1v-8z" fill="#A0A09F"/>
<path transform="translate(455,633)" d="m0 0h12v4l-10 1-2 2v16l3 3h9v4l-2 1h-8l-5-3-3-4v-17l3-5z" fill="#A2A2A1"/>
<path transform="translate(851,633)" d="m0 0h12v4l-10 1-2 2v16l3 3h9v4l-2 1h-8l-5-3-3-5v-16l4-6z" fill="#A2A2A1"/>
<path transform="translate(795,633)" d="m0 0h23v4h-9v27l-5-1v-26h-9z" fill="#9E9E9D"/>
<path transform="translate(432,633)" d="m0 0h6v30l-5 1-1-1z" fill="#BEBEBE"/>
<path transform="translate(829,633)" d="m0 0h5v30l-5 1z" fill="#B2B2B1"/>
<path transform="translate(617,633)" d="m0 0h5v31l-5-1z" fill="#9F9F9E"/>
<path transform="translate(478,633)" d="m0 0h5v31l-5-1z" fill="#9F9F9E"/>
<path transform="translate(634,292)" d="m0 0 1 2-3 16-2-1 1-7 2-9z" fill="#A82C38"/>
<path transform="translate(746,623)" d="m0 0h4l-2 5-2 2h-3l1-5z" fill="#B0B0AF"/>
<path transform="translate(176,623)" d="m0 0h3l-1 4-2 3h-4l2-5z" fill="#B4B4B3"/>
</svg>
