<?xml version="1.0" encoding="UTF-8"?> <svg xmlns="http://www.w3.org/2000/svg" width="641" height="182" viewBox="0 0 641 182" fill="none"><path d="M66.6337 16.5799C56.2684 35.2918 54.6738 38.0812 43.2834 58.0716C38.7273 66.091 33.7155 74.9239 32.2348 77.8295C30.6401 80.7351 27.9064 85.384 26.1979 88.2896C19.9332 98.6334 0 134.779 0 135.709C0 136.173 4.44225 135.709 10.0235 134.43C23.692 131.525 56.2684 131.176 72.3289 133.965C110.942 140.59 145.113 155.35 171.767 176.852C175.64 179.99 178.829 182.314 178.829 181.965C178.829 181.617 177.69 179.408 176.437 176.968C175.07 174.527 172.678 170.227 171.083 167.321C169.603 164.416 166.869 159.767 165.16 156.861C163.452 153.956 156.959 142.682 150.922 131.873C144.772 120.948 135.09 103.98 129.509 94.1007C123.927 84.2217 117.776 73.1806 115.84 69.6939C114.018 66.2072 112.081 62.7205 111.626 62.1394C111.17 61.442 109.689 59.1176 108.436 56.9093C107.183 54.7011 99.6658 41.3354 91.8064 27.2724C83.9471 13.2095 77.4545 1.35469 77.4545 0.889801C77.4545 -2.01578 74.7209 1.93581 66.6337 16.5799Z" fill="#E1353C"></path><path d="M177.69 18.4395C168.692 19.8342 164.591 23.6695 161.971 33.1998C158.327 46.1006 161.288 49.7035 176.779 51.2144C190.106 52.6091 190.22 52.6091 190.22 56.7931C190.22 61.442 186.574 63.8094 179.627 63.8827C168.308 64.002 169.5 58.0715 169.5 58.0715L157 58C157 58 157 57.9999 156 63.5C155.637 65.5 156.194 68.2451 159.5 71C162.19 73.2415 165 74.5 170.856 75.1563C181.971 76.4021 192.953 74.1103 197.054 70.9723C201.496 67.6018 203.888 62.488 204.571 54.4686C205.597 44.241 204.116 43.0788 189.081 41.2192C182.816 40.5219 177.007 39.2434 176.323 38.5461C174.387 36.5703 176.323 31.3402 179.513 30.178C186.119 27.6211 195.2 28.5 194.5 32C194.466 32.1733 194 34.5 194 34.5H207L208 29C208.5 24.5 205.938 21.5775 205.938 21.5775C203.546 18.6719 202.521 18.4395 193.067 17.9746C187.486 17.7421 180.538 17.9746 177.69 18.4395Z" fill="black" fill-opacity="0.7"></path><path d="M359.936 18.4394C350.482 20.0666 346.381 23.0884 342.509 30.7591C340.117 35.5242 337.041 49.9359 336.358 59.4662C335.788 66.9045 339 70 339 70C339 70 341.5 74 350 74.5C364.721 75.3659 376.452 74.5 381 68.5C384.5 63.8827 389 43.5436 389 43.5436C389 43.5436 382.147 43.4274 376.452 43.5436C366.428 43.5436 366.5 43.5436 366.5 43.5436L364 53.5H372.5C372.5 53.5 372.5 63.5 361.075 63.8827C351.057 64.2182 349.684 61.2095 352.532 47.0303C355.721 31.6889 357.999 29.0157 368.593 29.0157C377 29.0157 376.452 32 375.768 34.8269H391L392 28C392.5 21 384 19.5 375.768 18.0908C369.92 17.0896 362.783 17.9746 359.936 18.4394Z" fill="black" fill-opacity="0.7"></path><path d="M217.5 18.5557C217.5 18.5 214.139 32.5025 214.139 32.5025C214.139 32.5025 210.139 50.6888 209 56.5C204.982 77 205.5 74.8077 205.5 74.8077C207.683 74.8077 218.089 74.8077 219 74.8077C219.5 74.8077 219.265 74.8077 220.859 67.6018C221.657 63.9989 222.5 60.396 223 60.396C224.822 59.1175 234.072 59.0013 237.603 60.396C240.565 61.5582 240.5 61.5 239.5 67.6018L238 74.8077L245 74.8077C248 74.8077 250.5 74.8077 251.613 74.8077C251.613 74.8077 254.386 63.8827 254.5 60.396C254.5 59.2338 253.936 57.2433 252 55.5L248.196 52.6091L252 51C257.353 48.2106 260.498 42.2652 261.523 32.1538C262.207 24.8317 259.131 21.5775 259.131 21.5775C255.5 18 255.828 18.5557 236.806 18.5557C226.327 18.5557 217.5 18.5557 217.5 18.5557ZM245.918 31.8051C247.741 34.0134 246.488 40.9868 243.754 44.4734C241.932 46.6817 240.565 47.0304 233.845 47.0304H225.5L227.5 38L229.5 30.178C229.5 30.178 229.174 30.178 236.92 30.178C242.159 30.178 245.007 30.6429 245.918 31.8051Z" fill="black" fill-opacity="0.7"></path><path d="M270 18.5557C269.772 20.0666 267.941 29.0003 266.649 35.4081C263 53.5 259.369 72.0943 259 74.9999L272 75L273.255 68.183C273.939 64.9287 275.533 56.0958 276.786 48.7737C278.153 41.4517 279.658 34.4298 280 33.5C280 33.5 282.215 46.7927 286.5 74.9999L300 75L324 33.5C324 33.5 323.942 33.316 318.931 54.0038C316.425 64.2314 314 74.535 314 74.9999C317.759 74.9999 327.5 75.1161 327.5 74.9999C327.5 74.7675 329.068 68.6479 330.321 62.6043C331.574 56.5607 333.396 47.7277 334.308 42.9626C335.333 38.1974 336.586 32.1538 337.155 29.5969C337.725 27.04 338.408 23.5533 338.864 21.6937L339.433 18.5557H315.741L297.858 52.9577C298.542 53.1902 297.175 52.7253 297.858 52.9577L293 18.5557H270Z" fill="black" fill-opacity="0.7"></path><path d="M194.371 118.3C192.811 118.3 191.491 118.08 190.411 117.64C189.331 117.2 188.521 116.61 187.981 115.87C187.441 115.11 187.171 114.27 187.171 113.35C187.171 113.07 187.181 112.86 187.201 112.72C187.221 112.54 187.291 112.39 187.411 112.27C187.531 112.15 187.681 112.09 187.861 112.09H189.511C189.871 112.09 190.091 112.29 190.171 112.69C190.171 113.51 190.531 114.23 191.251 114.85C191.971 115.45 193.051 115.75 194.491 115.75C196.171 115.75 197.511 115.45 198.511 114.85C199.511 114.25 200.121 113.43 200.341 112.39C200.381 112.25 200.401 112.05 200.401 111.79C200.401 111.27 200.211 110.83 199.831 110.47C199.471 110.11 198.941 109.79 198.241 109.51C197.541 109.23 196.511 108.87 195.151 108.43C193.331 107.87 192.001 107.22 191.161 106.48C190.321 105.72 189.901 104.73 189.901 103.51C189.901 102.99 189.951 102.52 190.051 102.1C190.411 100.46 191.301 99.15 192.721 98.17C194.141 97.19 195.981 96.7 198.241 96.7C199.641 96.7 200.841 96.94 201.841 97.42C202.861 97.9 203.631 98.51 204.151 99.25C204.671 99.99 204.931 100.75 204.931 101.53C204.931 101.65 204.911 101.85 204.871 102.13C204.791 102.53 204.571 102.73 204.211 102.73H202.501C202.101 102.73 201.891 102.54 201.871 102.16C201.931 101.32 201.601 100.63 200.881 100.09C200.181 99.53 199.261 99.25 198.121 99.25C196.761 99.25 195.611 99.51 194.671 100.03C193.751 100.55 193.181 101.32 192.961 102.34C192.901 102.58 192.871 102.81 192.871 103.03C192.871 103.77 193.221 104.37 193.921 104.83C194.641 105.27 195.901 105.76 197.701 106.3C199.721 106.9 201.181 107.58 202.081 108.34C203.001 109.08 203.461 110.07 203.461 111.31C203.461 111.63 203.411 112.06 203.311 112.6C202.911 114.46 201.941 115.88 200.401 116.86C198.881 117.82 196.871 118.3 194.371 118.3ZM213.784 118.3C211.624 118.3 209.904 117.78 208.624 116.74C207.364 115.68 206.734 114.13 206.734 112.09C206.734 111.57 206.804 110.89 206.944 110.05C207.264 108.29 207.634 106.6 208.054 104.98C208.714 102.24 209.864 100.18 211.504 98.8C213.164 97.4 215.274 96.7 217.834 96.7C219.994 96.7 221.704 97.24 222.964 98.32C224.224 99.4 224.854 100.96 224.854 103C224.854 103.62 224.794 104.28 224.674 104.98C224.374 106.6 224.014 108.29 223.594 110.05C222.914 112.81 221.744 114.88 220.084 116.26C218.424 117.62 216.324 118.3 213.784 118.3ZM213.904 115.75C215.544 115.75 216.944 115.27 218.104 114.31C219.284 113.35 220.124 111.88 220.624 109.9C220.944 108.58 221.284 106.98 221.644 105.1C221.764 104.38 221.824 103.74 221.824 103.18C221.824 101.84 221.474 100.85 220.774 100.21C220.094 99.57 219.074 99.25 217.714 99.25C216.054 99.25 214.644 99.73 213.484 100.69C212.324 101.65 211.504 103.12 211.024 105.1C210.624 106.7 210.274 108.3 209.974 109.9C209.854 110.62 209.794 111.26 209.794 111.82C209.794 113.16 210.134 114.15 210.814 114.79C211.514 115.43 212.544 115.75 213.904 115.75ZM234.147 118.3C231.827 118.3 230.067 117.75 228.867 116.65C227.667 115.55 227.067 114.03 227.067 112.09C227.067 111.47 227.127 110.83 227.247 110.17C227.487 108.73 227.867 106.95 228.387 104.83C229.027 102.27 230.147 100.28 231.747 98.86C233.367 97.42 235.507 96.7 238.167 96.7C239.767 96.7 241.117 96.95 242.217 97.45C243.317 97.95 244.137 98.63 244.677 99.49C245.237 100.33 245.517 101.27 245.517 102.31C245.517 102.67 245.487 103.03 245.427 103.39C245.367 103.81 245.167 104.02 244.827 104.02H243.117C242.637 104.02 242.407 103.79 242.427 103.33C242.447 103.21 242.457 103.02 242.457 102.76C242.457 101.54 242.067 100.65 241.287 100.09C240.507 99.53 239.427 99.25 238.047 99.25C236.367 99.25 234.947 99.72 233.787 100.66C232.627 101.6 231.817 103.04 231.357 104.98C230.937 106.62 230.577 108.3 230.277 110.02C230.157 110.68 230.097 111.28 230.097 111.82C230.097 114.44 231.487 115.75 234.267 115.75C235.747 115.75 237.007 115.44 238.047 114.82C239.107 114.2 239.967 113.15 240.627 111.67C240.727 111.41 240.837 111.23 240.957 111.13C241.097 111.03 241.267 110.98 241.467 110.98H243.177C243.357 110.98 243.497 111.03 243.597 111.13C243.677 111.21 243.717 111.31 243.717 111.43C243.717 111.47 243.707 111.52 243.687 111.58C243.127 113.5 242.067 115.1 240.507 116.38C238.967 117.66 236.847 118.3 234.147 118.3ZM246.988 118C246.788 118 246.628 117.94 246.508 117.82C246.408 117.68 246.378 117.51 246.418 117.31L250.618 97.69C250.658 97.49 250.748 97.33 250.888 97.21C251.048 97.07 251.228 97 251.428 97H253.048C253.248 97 253.408 97.06 253.528 97.18C253.608 97.28 253.648 97.4 253.648 97.54C253.648 97.58 253.638 97.63 253.618 97.69L249.418 117.31C249.378 117.51 249.278 117.68 249.118 117.82C248.978 117.94 248.808 118 248.608 118H246.988ZM255.191 118C254.991 118 254.841 117.93 254.741 117.79C254.661 117.71 254.621 117.6 254.621 117.46C254.621 117.42 254.631 117.37 254.651 117.31L258.821 97.72C258.861 97.5 258.951 97.33 259.091 97.21C259.251 97.07 259.431 97 259.631 97H272.051C272.251 97 272.401 97.06 272.501 97.18C272.581 97.28 272.621 97.4 272.621 97.54C272.621 97.6 272.611 97.66 272.591 97.72L272.351 98.86C272.311 99.06 272.211 99.23 272.051 99.37C271.911 99.49 271.731 99.55 271.511 99.55H261.311L259.901 106.12H269.441C269.661 106.12 269.821 106.19 269.921 106.33C270.001 106.43 270.041 106.55 270.041 106.69C270.041 106.73 270.031 106.78 270.011 106.84L269.771 107.95C269.731 108.15 269.631 108.32 269.471 108.46C269.311 108.58 269.131 108.64 268.931 108.64H259.391L257.921 115.45H268.361C268.581 115.45 268.741 115.51 268.841 115.63C268.921 115.73 268.961 115.85 268.961 115.99C268.961 116.03 268.951 116.08 268.931 116.14L268.661 117.31C268.621 117.51 268.521 117.68 268.361 117.82C268.221 117.94 268.051 118 267.851 118H255.191ZM273.355 118C273.155 118 273.005 117.93 272.905 117.79C272.825 117.71 272.785 117.6 272.785 117.46C272.785 117.42 272.795 117.37 272.815 117.31L276.985 97.72C277.025 97.5 277.115 97.33 277.255 97.21C277.415 97.07 277.595 97 277.795 97H284.275C286.635 97 288.465 97.54 289.765 98.62C291.085 99.68 291.745 101.21 291.745 103.21C291.745 103.79 291.685 104.43 291.565 105.13C291.165 107.05 290.825 108.62 290.545 109.84C290.085 111.76 289.465 113.31 288.685 114.49C287.925 115.67 286.895 116.55 285.595 117.13C284.315 117.71 282.675 118 280.675 118H273.355ZM280.705 115.45C282.745 115.45 284.285 115.02 285.325 114.16C286.365 113.28 287.125 111.8 287.605 109.72C288.005 108.06 288.325 106.57 288.565 105.25C288.705 104.57 288.775 103.93 288.775 103.33C288.775 102.05 288.385 101.1 287.605 100.48C286.845 99.86 285.625 99.55 283.945 99.55H279.535L276.145 115.45H280.705ZM291.647 118C291.467 118 291.327 117.95 291.227 117.85C291.127 117.73 291.077 117.59 291.077 117.43C291.077 117.31 291.107 117.19 291.167 117.07L302.717 97.66C302.997 97.22 303.357 97 303.797 97H306.077C306.557 97 306.827 97.22 306.887 97.66L310.187 117.07C310.207 117.13 310.217 117.21 310.217 117.31C310.217 117.53 310.157 117.7 310.037 117.82C309.937 117.94 309.797 118 309.617 118H308.087C307.647 118 307.397 117.78 307.337 117.34L306.557 113.23H296.717L294.137 117.49C294.037 117.65 293.907 117.78 293.747 117.88C293.607 117.96 293.447 118 293.267 118H291.647ZM306.257 110.65L304.457 100L298.127 110.65H306.257ZM313.843 118C313.643 118 313.493 117.93 313.393 117.79C313.313 117.71 313.273 117.6 313.273 117.46C313.273 117.42 313.283 117.37 313.303 117.31L317.473 97.72C317.513 97.5 317.603 97.33 317.743 97.21C317.903 97.07 318.083 97 318.283 97H324.763C327.123 97 328.953 97.54 330.253 98.62C331.573 99.68 332.233 101.21 332.233 103.21C332.233 103.79 332.173 104.43 332.053 105.13C331.653 107.05 331.313 108.62 331.033 109.84C330.573 111.76 329.953 113.31 329.173 114.49C328.413 115.67 327.383 116.55 326.083 117.13C324.803 117.71 323.163 118 321.163 118H313.843ZM321.193 115.45C323.233 115.45 324.773 115.02 325.813 114.16C326.853 113.28 327.613 111.8 328.093 109.72C328.493 108.06 328.813 106.57 329.053 105.25C329.193 104.57 329.263 103.93 329.263 103.33C329.263 102.05 328.873 101.1 328.093 100.48C327.333 99.86 326.113 99.55 324.433 99.55H320.023L316.633 115.45H321.193ZM334.527 118C334.327 118 334.177 117.93 334.077 117.79C333.997 117.71 333.957 117.6 333.957 117.46C333.957 117.42 333.967 117.37 333.987 117.31L338.157 97.72C338.197 97.5 338.287 97.33 338.427 97.21C338.587 97.07 338.767 97 338.967 97H351.387C351.587 97 351.737 97.06 351.837 97.18C351.917 97.28 351.957 97.4 351.957 97.54C351.957 97.6 351.947 97.66 351.927 97.72L351.687 98.86C351.647 99.06 351.547 99.23 351.387 99.37C351.247 99.49 351.067 99.55 350.847 99.55H340.647L339.237 106.12H348.777C348.997 106.12 349.157 106.19 349.257 106.33C349.337 106.43 349.377 106.55 349.377 106.69C349.377 106.73 349.367 106.78 349.347 106.84L349.107 107.95C349.067 108.15 348.967 108.32 348.807 108.46C348.647 108.58 348.467 108.64 348.267 108.64H338.727L337.257 115.45H347.697C347.917 115.45 348.077 115.51 348.177 115.63C348.257 115.73 348.297 115.85 348.297 115.99C348.297 116.03 348.287 116.08 348.267 116.14L347.997 117.31C347.957 117.51 347.857 117.68 347.697 117.82C347.557 117.94 347.387 118 347.187 118H334.527ZM360.191 118C359.991 118 359.841 117.93 359.741 117.79C359.661 117.71 359.621 117.6 359.621 117.46C359.621 117.42 359.631 117.37 359.651 117.31L363.821 97.72C363.861 97.5 363.951 97.33 364.091 97.21C364.251 97.07 364.431 97 364.631 97H371.111C373.471 97 375.301 97.54 376.601 98.62C377.921 99.68 378.581 101.21 378.581 103.21C378.581 103.79 378.521 104.43 378.401 105.13C378.001 107.05 377.661 108.62 377.381 109.84C376.921 111.76 376.301 113.31 375.521 114.49C374.761 115.67 373.731 116.55 372.431 117.13C371.151 117.71 369.511 118 367.511 118H360.191ZM367.541 115.45C369.581 115.45 371.121 115.02 372.161 114.16C373.201 113.28 373.961 111.8 374.441 109.72C374.841 108.06 375.161 106.57 375.401 105.25C375.541 104.57 375.611 103.93 375.611 103.33C375.611 102.05 375.221 101.1 374.441 100.48C373.681 99.86 372.461 99.55 370.781 99.55H366.371L362.981 115.45H367.541ZM380.874 118C380.674 118 380.524 117.93 380.424 117.79C380.344 117.71 380.304 117.6 380.304 117.46C380.304 117.42 380.314 117.37 380.334 117.31L384.504 97.72C384.544 97.5 384.634 97.33 384.774 97.21C384.934 97.07 385.114 97 385.314 97H397.734C397.934 97 398.084 97.06 398.184 97.18C398.264 97.28 398.304 97.4 398.304 97.54C398.304 97.6 398.294 97.66 398.274 97.72L398.034 98.86C397.994 99.06 397.894 99.23 397.734 99.37C397.594 99.49 397.414 99.55 397.194 99.55H386.994L385.584 106.12H395.124C395.344 106.12 395.504 106.19 395.604 106.33C395.684 106.43 395.724 106.55 395.724 106.69C395.724 106.73 395.714 106.78 395.694 106.84L395.454 107.95C395.414 108.15 395.314 108.32 395.154 108.46C394.994 108.58 394.814 108.64 394.614 108.64H385.074L383.604 115.45H394.044C394.264 115.45 394.424 115.51 394.524 115.63C394.604 115.73 394.644 115.85 394.644 115.99C394.644 116.03 394.634 116.08 394.614 116.14L394.344 117.31C394.304 117.51 394.204 117.68 394.044 117.82C393.904 117.94 393.734 118 393.534 118H380.874ZM211.021 154C210.821 154 210.671 153.93 210.571 153.79C210.491 153.71 210.451 153.6 210.451 153.46C210.451 153.42 210.461 153.37 210.481 153.31L214.651 133.72C214.691 133.5 214.791 133.33 214.951 133.21C215.111 133.07 215.291 133 215.491 133H222.811C224.771 133 226.291 133.4 227.371 134.2C228.451 135 228.991 136.16 228.991 137.68C228.991 138.18 228.931 138.72 228.811 139.3C228.491 140.82 227.851 142.07 226.891 143.05C225.951 144.03 224.751 144.71 223.291 145.09L226.231 153.07C226.251 153.11 226.261 153.16 226.261 153.22C226.261 153.42 226.181 153.6 226.021 153.76C225.861 153.92 225.681 154 225.481 154H224.041C223.741 154 223.521 153.93 223.381 153.79C223.261 153.65 223.151 153.45 223.051 153.19L220.321 145.57H215.071L213.421 153.31C213.381 153.51 213.271 153.68 213.091 153.82C212.931 153.94 212.751 154 212.551 154H211.021ZM220.561 143.02C223.541 143.02 225.291 141.77 225.811 139.27C225.891 138.93 225.931 138.58 225.931 138.22C225.931 136.42 224.671 135.52 222.151 135.52H217.201L215.611 143.02H220.561ZM228.249 154C228.069 154 227.929 153.95 227.829 153.85C227.729 153.73 227.679 153.59 227.679 153.43C227.679 153.31 227.709 153.19 227.769 153.07L239.319 133.66C239.599 133.22 239.959 133 240.399 133H242.679C243.159 133 243.429 133.22 243.489 133.66L246.789 153.07C246.809 153.13 246.819 153.21 246.819 153.31C246.819 153.53 246.759 153.7 246.639 153.82C246.539 153.94 246.399 154 246.219 154H244.689C244.249 154 243.999 153.78 243.939 153.34L243.159 149.23H233.319L230.739 153.49C230.639 153.65 230.509 153.78 230.349 153.88C230.209 153.96 230.049 154 229.869 154H228.249ZM242.859 146.65L241.059 136L234.729 146.65H242.859ZM250.445 154C250.245 154 250.095 153.93 249.995 153.79C249.915 153.71 249.875 153.6 249.875 153.46C249.875 153.42 249.885 153.37 249.905 153.31L254.075 133.72C254.115 133.5 254.205 133.33 254.345 133.21C254.505 133.07 254.685 133 254.885 133H261.365C263.725 133 265.555 133.54 266.855 134.62C268.175 135.68 268.835 137.21 268.835 139.21C268.835 139.79 268.775 140.43 268.655 141.13C268.255 143.05 267.915 144.62 267.635 145.84C267.175 147.76 266.555 149.31 265.775 150.49C265.015 151.67 263.985 152.55 262.685 153.13C261.405 153.71 259.765 154 257.765 154H250.445ZM257.795 151.45C259.835 151.45 261.375 151.02 262.415 150.16C263.455 149.28 264.215 147.8 264.695 145.72C265.095 144.06 265.415 142.57 265.655 141.25C265.795 140.57 265.865 139.93 265.865 139.33C265.865 138.05 265.475 137.1 264.695 136.48C263.935 135.86 262.715 135.55 261.035 135.55H256.625L253.235 151.45H257.795ZM271.158 154C270.958 154 270.798 153.94 270.678 153.82C270.578 153.68 270.548 153.51 270.588 153.31L274.788 133.69C274.828 133.49 274.918 133.33 275.058 133.21C275.218 133.07 275.398 133 275.598 133H277.218C277.418 133 277.578 133.06 277.698 133.18C277.778 133.28 277.818 133.4 277.818 133.54C277.818 133.58 277.808 133.63 277.788 133.69L273.588 153.31C273.548 153.51 273.448 153.68 273.288 153.82C273.148 153.94 272.978 154 272.778 154H271.158ZM286.441 154.3C284.281 154.3 282.561 153.78 281.281 152.74C280.021 151.68 279.391 150.13 279.391 148.09C279.391 147.57 279.461 146.89 279.601 146.05C279.921 144.29 280.291 142.6 280.711 140.98C281.371 138.24 282.521 136.18 284.161 134.8C285.821 133.4 287.931 132.7 290.491 132.7C292.651 132.7 294.361 133.24 295.621 134.32C296.881 135.4 297.511 136.96 297.511 139C297.511 139.62 297.451 140.28 297.331 140.98C297.031 142.6 296.671 144.29 296.251 146.05C295.571 148.81 294.401 150.88 292.741 152.26C291.081 153.62 288.981 154.3 286.441 154.3ZM286.561 151.75C288.201 151.75 289.601 151.27 290.761 150.31C291.941 149.35 292.781 147.88 293.281 145.9C293.601 144.58 293.941 142.98 294.301 141.1C294.421 140.38 294.481 139.74 294.481 139.18C294.481 137.84 294.131 136.85 293.431 136.21C292.751 135.57 291.731 135.25 290.371 135.25C288.711 135.25 287.301 135.73 286.141 136.69C284.981 137.65 284.161 139.12 283.681 141.1C283.281 142.7 282.931 144.3 282.631 145.9C282.511 146.62 282.451 147.26 282.451 147.82C282.451 149.16 282.791 150.15 283.471 150.79C284.171 151.43 285.201 151.75 286.561 151.75ZM299.663 154C299.463 154 299.313 153.93 299.213 153.79C299.133 153.71 299.093 153.6 299.093 153.46C299.093 153.42 299.103 153.37 299.123 153.31L303.293 133.69C303.333 133.49 303.423 133.33 303.563 133.21C303.723 133.07 303.903 133 304.103 133H305.693C305.893 133 306.053 133.06 306.173 133.18C306.253 133.28 306.293 133.4 306.293 133.54C306.293 133.58 306.283 133.63 306.263 133.69L302.483 151.39H312.443C312.663 151.39 312.823 151.45 312.923 151.57C313.003 151.67 313.043 151.79 313.043 151.93C313.043 151.99 313.033 152.05 313.013 152.11L312.773 153.31C312.733 153.51 312.633 153.68 312.473 153.82C312.313 153.94 312.133 154 311.933 154H299.663ZM322.944 154.3C320.784 154.3 319.064 153.78 317.784 152.74C316.524 151.68 315.894 150.13 315.894 148.09C315.894 147.57 315.964 146.89 316.104 146.05C316.424 144.29 316.794 142.6 317.214 140.98C317.874 138.24 319.024 136.18 320.664 134.8C322.324 133.4 324.434 132.7 326.994 132.7C329.154 132.7 330.864 133.24 332.124 134.32C333.384 135.4 334.014 136.96 334.014 139C334.014 139.62 333.954 140.28 333.834 140.98C333.534 142.6 333.174 144.29 332.754 146.05C332.074 148.81 330.904 150.88 329.244 152.26C327.584 153.62 325.484 154.3 322.944 154.3ZM323.064 151.75C324.704 151.75 326.104 151.27 327.264 150.31C328.444 149.35 329.284 147.88 329.784 145.9C330.104 144.58 330.444 142.98 330.804 141.1C330.924 140.38 330.984 139.74 330.984 139.18C330.984 137.84 330.634 136.85 329.934 136.21C329.254 135.57 328.234 135.25 326.874 135.25C325.214 135.25 323.804 135.73 322.644 136.69C321.484 137.65 320.664 139.12 320.184 141.1C319.784 142.7 319.434 144.3 319.134 145.9C319.014 146.62 318.954 147.26 318.954 147.82C318.954 149.16 319.294 150.15 319.974 150.79C320.674 151.43 321.704 151.75 323.064 151.75ZM343.517 154.3C341.257 154.3 339.537 153.77 338.357 152.71C337.197 151.63 336.617 150.13 336.617 148.21C336.617 147.61 336.677 146.97 336.797 146.29C337.137 144.47 337.537 142.59 337.997 140.65C338.617 138.19 339.807 136.25 341.567 134.83C343.327 133.41 345.507 132.7 348.107 132.7C349.727 132.7 351.067 132.98 352.127 133.54C353.187 134.08 353.957 134.76 354.437 135.58C354.937 136.38 355.187 137.17 355.187 137.95C355.187 138.19 355.177 138.36 355.157 138.46C355.137 138.64 355.047 138.79 354.887 138.91C354.747 139.01 354.577 139.06 354.377 139.06H352.607C352.427 139.06 352.297 139.03 352.217 138.97C352.137 138.89 352.077 138.74 352.037 138.52C351.937 137.6 351.527 136.83 350.807 136.21C350.087 135.57 348.997 135.25 347.537 135.25C344.097 135.25 341.907 137.1 340.967 140.8C340.527 142.7 340.147 144.48 339.827 146.14C339.727 146.78 339.677 147.31 339.677 147.73C339.677 149.11 340.057 150.13 340.817 150.79C341.577 151.43 342.667 151.75 344.087 151.75C345.747 151.75 347.177 151.29 348.377 150.37C349.577 149.43 350.367 148.05 350.747 146.23L351.017 144.97H346.517C346.317 144.97 346.167 144.9 346.067 144.76C345.987 144.68 345.947 144.57 345.947 144.43C345.947 144.37 345.957 144.31 345.977 144.25L346.187 143.29C346.227 143.09 346.327 142.92 346.487 142.78C346.647 142.64 346.827 142.57 347.027 142.57H353.807C354.007 142.57 354.157 142.63 354.257 142.75C354.337 142.85 354.377 142.97 354.377 143.11C354.377 143.17 354.367 143.23 354.347 143.29L353.747 146.17C353.407 147.81 352.757 149.24 351.797 150.46C350.857 151.68 349.677 152.63 348.257 153.31C346.837 153.97 345.257 154.3 343.517 154.3ZM356.617 154C356.417 154 356.257 153.94 356.137 153.82C356.037 153.68 356.007 153.51 356.047 153.31L360.247 133.69C360.287 133.49 360.377 133.33 360.517 133.21C360.677 133.07 360.857 133 361.057 133H362.677C362.877 133 363.037 133.06 363.157 133.18C363.237 133.28 363.277 133.4 363.277 133.54C363.277 133.58 363.267 133.63 363.247 133.69L359.047 153.31C359.007 153.51 358.907 153.68 358.747 153.82C358.607 153.94 358.437 154 358.237 154H356.617ZM362.81 154C362.63 154 362.49 153.95 362.39 153.85C362.29 153.73 362.24 153.59 362.24 153.43C362.24 153.31 362.27 153.19 362.33 153.07L373.88 133.66C374.16 133.22 374.52 133 374.96 133H377.24C377.72 133 377.99 133.22 378.05 133.66L381.35 153.07C381.37 153.13 381.38 153.21 381.38 153.31C381.38 153.53 381.32 153.7 381.2 153.82C381.1 153.94 380.96 154 380.78 154H379.25C378.81 154 378.56 153.78 378.5 153.34L377.72 149.23H367.88L365.3 153.49C365.2 153.65 365.07 153.78 364.91 153.88C364.77 153.96 364.61 154 364.43 154H362.81ZM377.42 146.65L375.62 136L369.29 146.65H377.42ZM391.597 154C391.397 154 391.247 153.93 391.147 153.79C391.067 153.71 391.027 153.6 391.027 153.46C391.027 153.42 391.037 153.37 391.057 153.31L395.227 133.72C395.267 133.5 395.357 133.33 395.497 133.21C395.657 133.07 395.837 133 396.037 133H402.517C404.877 133 406.707 133.54 408.007 134.62C409.327 135.68 409.987 137.21 409.987 139.21C409.987 139.79 409.927 140.43 409.807 141.13C409.407 143.05 409.067 144.62 408.787 145.84C408.327 147.76 407.707 149.31 406.927 150.49C406.167 151.67 405.137 152.55 403.837 153.13C402.557 153.71 400.917 154 398.917 154H391.597ZM398.947 151.45C400.987 151.45 402.527 151.02 403.567 150.16C404.607 149.28 405.367 147.8 405.847 145.72C406.247 144.06 406.567 142.57 406.807 141.25C406.947 140.57 407.017 139.93 407.017 139.33C407.017 138.05 406.627 137.1 405.847 136.48C405.087 135.86 403.867 135.55 402.187 135.55H397.777L394.387 151.45H398.947ZM412.281 154C412.081 154 411.931 153.93 411.831 153.79C411.751 153.71 411.711 153.6 411.711 153.46C411.711 153.42 411.721 153.37 411.741 153.31L415.911 133.72C415.951 133.5 416.041 133.33 416.181 133.21C416.341 133.07 416.521 133 416.721 133H429.141C429.341 133 429.491 133.06 429.591 133.18C429.671 133.28 429.711 133.4 429.711 133.54C429.711 133.6 429.701 133.66 429.681 133.72L429.441 134.86C429.401 135.06 429.301 135.23 429.141 135.37C429.001 135.49 428.821 135.55 428.601 135.55H418.401L416.991 142.12H426.531C426.751 142.12 426.911 142.19 427.011 142.33C427.091 142.43 427.131 142.55 427.131 142.69C427.131 142.73 427.121 142.78 427.101 142.84L426.861 143.95C426.821 144.15 426.721 144.32 426.561 144.46C426.401 144.58 426.221 144.64 426.021 144.64H416.481L415.011 151.45H425.451C425.671 151.45 425.831 151.51 425.931 151.63C426.011 151.73 426.051 151.85 426.051 151.99C426.051 152.03 426.041 152.08 426.021 152.14L425.751 153.31C425.711 153.51 425.611 153.68 425.451 153.82C425.311 153.94 425.141 154 424.941 154H412.281ZM438.005 154C437.805 154 437.645 153.94 437.525 153.82C437.425 153.68 437.395 153.51 437.435 153.31L441.605 133.72C441.645 133.5 441.745 133.33 441.905 133.21C442.065 133.07 442.245 133 442.445 133H443.975C444.315 133 444.545 133.16 444.665 133.48L448.415 145.6L457.385 133.48C457.585 133.16 457.855 133 458.195 133H459.695C459.915 133 460.075 133.07 460.175 133.21C460.255 133.31 460.295 133.43 460.295 133.57C460.295 133.61 460.285 133.66 460.265 133.72L456.095 153.31C456.055 153.51 455.955 153.68 455.795 153.82C455.635 153.94 455.455 154 455.255 154H453.785C453.585 154 453.425 153.94 453.305 153.82C453.205 153.68 453.175 153.51 453.215 153.31L456.275 138.94L449.405 148.33C449.225 148.53 449.055 148.69 448.895 148.81C448.735 148.91 448.535 148.96 448.295 148.96H447.395C447.155 148.96 446.965 148.91 446.825 148.81C446.705 148.69 446.615 148.53 446.555 148.33L443.495 138.31L440.315 153.31C440.275 153.51 440.175 153.68 440.015 153.82C439.875 153.94 439.705 154 439.505 154H438.005ZM461.881 154C461.681 154 461.521 153.94 461.401 153.82C461.301 153.68 461.271 153.51 461.311 153.31L465.511 133.69C465.551 133.49 465.641 133.33 465.781 133.21C465.941 133.07 466.121 133 466.321 133H467.941C468.141 133 468.301 133.06 468.421 133.18C468.501 133.28 468.541 133.4 468.541 133.54C468.541 133.58 468.531 133.63 468.511 133.69L464.311 153.31C464.271 153.51 464.171 153.68 464.011 153.82C463.871 153.94 463.701 154 463.501 154H461.881ZM470.083 154C469.883 154 469.733 153.93 469.633 153.79C469.553 153.71 469.513 153.6 469.513 153.46C469.513 153.42 469.523 153.37 469.543 153.31L473.713 133.72C473.753 133.5 473.843 133.33 473.983 133.21C474.143 133.07 474.323 133 474.523 133H475.903C476.223 133 476.443 133.14 476.563 133.42L483.283 148.9L486.523 133.72C486.563 133.52 486.663 133.35 486.823 133.21C486.983 133.07 487.163 133 487.363 133H488.833C489.033 133 489.183 133.06 489.283 133.18C489.363 133.28 489.403 133.4 489.403 133.54C489.403 133.6 489.393 133.66 489.373 133.72L485.203 153.28C485.163 153.5 485.063 153.68 484.903 153.82C484.763 153.94 484.593 154 484.393 154H483.013C482.693 154 482.473 153.86 482.353 153.58L475.633 138.28L472.423 153.31C472.383 153.51 472.283 153.68 472.123 153.82C471.963 153.94 471.783 154 471.583 154H470.083ZM488.991 154C488.811 154 488.671 153.95 488.571 153.85C488.471 153.73 488.421 153.59 488.421 153.43C488.421 153.31 488.451 153.19 488.511 153.07L500.061 133.66C500.341 133.22 500.701 133 501.141 133H503.421C503.901 133 504.171 133.22 504.231 133.66L507.531 153.07C507.551 153.13 507.561 153.21 507.561 153.31C507.561 153.53 507.501 153.7 507.381 153.82C507.281 153.94 507.141 154 506.961 154H505.431C504.991 154 504.741 153.78 504.681 153.34L503.901 149.23H494.061L491.481 153.49C491.381 153.65 491.251 153.78 491.091 153.88C490.951 153.96 490.791 154 490.611 154H488.991ZM503.601 146.65L501.801 136L495.471 146.65H503.601ZM517.047 154.3C515.487 154.3 514.167 154.08 513.087 153.64C512.007 153.2 511.197 152.61 510.657 151.87C510.117 151.11 509.847 150.27 509.847 149.35C509.847 149.07 509.857 148.86 509.877 148.72C509.897 148.54 509.967 148.39 510.087 148.27C510.207 148.15 510.357 148.09 510.537 148.09H512.187C512.547 148.09 512.767 148.29 512.847 148.69C512.847 149.51 513.207 150.23 513.927 150.85C514.647 151.45 515.727 151.75 517.167 151.75C518.847 151.75 520.187 151.45 521.187 150.85C522.187 150.25 522.797 149.43 523.017 148.39C523.057 148.25 523.077 148.05 523.077 147.79C523.077 147.27 522.887 146.83 522.507 146.47C522.147 146.11 521.617 145.79 520.917 145.51C520.217 145.23 519.187 144.87 517.827 144.43C516.007 143.87 514.677 143.22 513.837 142.48C512.997 141.72 512.577 140.73 512.577 139.51C512.577 138.99 512.627 138.52 512.727 138.1C513.087 136.46 513.977 135.15 515.397 134.17C516.817 133.19 518.657 132.7 520.917 132.7C522.317 132.7 523.517 132.94 524.517 133.42C525.537 133.9 526.307 134.51 526.827 135.25C527.347 135.99 527.607 136.75 527.607 137.53C527.607 137.65 527.587 137.85 527.547 138.13C527.467 138.53 527.247 138.73 526.887 138.73H525.177C524.777 138.73 524.567 138.54 524.547 138.16C524.607 137.32 524.277 136.63 523.557 136.09C522.857 135.53 521.937 135.25 520.797 135.25C519.437 135.25 518.287 135.51 517.347 136.03C516.427 136.55 515.857 137.32 515.637 138.34C515.577 138.58 515.547 138.81 515.547 139.03C515.547 139.77 515.897 140.37 516.597 140.83C517.317 141.27 518.577 141.76 520.377 142.3C522.397 142.9 523.857 143.58 524.757 144.34C525.677 145.08 526.137 146.07 526.137 147.31C526.137 147.63 526.087 148.06 525.987 148.6C525.587 150.46 524.617 151.88 523.077 152.86C521.557 153.82 519.547 154.3 517.047 154.3ZM544.23 154.3C541.97 154.3 540.25 153.77 539.07 152.71C537.91 151.63 537.33 150.13 537.33 148.21C537.33 147.61 537.39 146.97 537.51 146.29C537.85 144.47 538.25 142.59 538.71 140.65C539.33 138.19 540.52 136.25 542.28 134.83C544.04 133.41 546.22 132.7 548.82 132.7C550.44 132.7 551.78 132.98 552.84 133.54C553.9 134.08 554.67 134.76 555.15 135.58C555.65 136.38 555.9 137.17 555.9 137.95C555.9 138.19 555.89 138.36 555.87 138.46C555.85 138.64 555.76 138.79 555.6 138.91C555.46 139.01 555.29 139.06 555.09 139.06H553.32C553.14 139.06 553.01 139.03 552.93 138.97C552.85 138.89 552.79 138.74 552.75 138.52C552.65 137.6 552.24 136.83 551.52 136.21C550.8 135.57 549.71 135.25 548.25 135.25C544.81 135.25 542.62 137.1 541.68 140.8C541.24 142.7 540.86 144.48 540.54 146.14C540.44 146.78 540.39 147.31 540.39 147.73C540.39 149.11 540.77 150.13 541.53 150.79C542.29 151.43 543.38 151.75 544.8 151.75C546.46 151.75 547.89 151.29 549.09 150.37C550.29 149.43 551.08 148.05 551.46 146.23L551.73 144.97H547.23C547.03 144.97 546.88 144.9 546.78 144.76C546.7 144.68 546.66 144.57 546.66 144.43C546.66 144.37 546.67 144.31 546.69 144.25L546.9 143.29C546.94 143.09 547.04 142.92 547.2 142.78C547.36 142.64 547.54 142.57 547.74 142.57H554.52C554.72 142.57 554.87 142.63 554.97 142.75C555.05 142.85 555.09 142.97 555.09 143.11C555.09 143.17 555.08 143.23 555.06 143.29L554.46 146.17C554.12 147.81 553.47 149.24 552.51 150.46C551.57 151.68 550.39 152.63 548.97 153.31C547.55 153.97 545.97 154.3 544.23 154.3ZM557.3 154C557.1 154 556.95 153.93 556.85 153.79C556.77 153.71 556.73 153.6 556.73 153.46C556.73 153.42 556.74 153.37 556.76 153.31L560.93 133.72C560.97 133.5 561.06 133.33 561.2 133.21C561.36 133.07 561.54 133 561.74 133H574.16C574.36 133 574.51 133.06 574.61 133.18C574.69 133.28 574.73 133.4 574.73 133.54C574.73 133.6 574.72 133.66 574.7 133.72L574.46 134.86C574.42 135.06 574.32 135.23 574.16 135.37C574.02 135.49 573.84 135.55 573.62 135.55H563.42L562.01 142.12H571.55C571.77 142.12 571.93 142.19 572.03 142.33C572.11 142.43 572.15 142.55 572.15 142.69C572.15 142.73 572.14 142.78 572.12 142.84L571.88 143.95C571.84 144.15 571.74 144.32 571.58 144.46C571.42 144.58 571.24 144.64 571.04 144.64H561.5L560.03 151.45H570.47C570.69 151.45 570.85 151.51 570.95 151.63C571.03 151.73 571.07 151.85 571.07 151.99C571.07 152.03 571.06 152.08 571.04 152.14L570.77 153.31C570.73 153.51 570.63 153.68 570.47 153.82C570.33 153.94 570.16 154 569.96 154H557.3ZM575.884 154C575.684 154 575.534 153.93 575.434 153.79C575.354 153.71 575.314 153.6 575.314 153.46C575.314 153.42 575.324 153.37 575.344 153.31L579.514 133.72C579.554 133.5 579.654 133.33 579.814 133.21C579.974 133.07 580.154 133 580.354 133H587.674C589.634 133 591.154 133.4 592.234 134.2C593.314 135 593.854 136.16 593.854 137.68C593.854 138.18 593.794 138.72 593.674 139.3C593.354 140.82 592.714 142.07 591.754 143.05C590.814 144.03 589.614 144.71 588.154 145.09L591.094 153.07C591.114 153.11 591.124 153.16 591.124 153.22C591.124 153.42 591.044 153.6 590.884 153.76C590.724 153.92 590.544 154 590.344 154H588.904C588.604 154 588.384 153.93 588.244 153.79C588.124 153.65 588.014 153.45 587.914 153.19L585.184 145.57H579.934L578.284 153.31C578.244 153.51 578.134 153.68 577.954 153.82C577.794 153.94 577.614 154 577.414 154H575.884ZM585.424 143.02C588.404 143.02 590.154 141.77 590.674 139.27C590.754 138.93 590.794 138.58 590.794 138.22C590.794 136.42 589.534 135.52 587.014 135.52H582.064L580.474 143.02H585.424ZM593.112 154C592.932 154 592.792 153.95 592.692 153.85C592.592 153.73 592.542 153.59 592.542 153.43C592.542 153.31 592.572 153.19 592.632 153.07L604.182 133.66C604.462 133.22 604.822 133 605.262 133H607.542C608.022 133 608.292 133.22 608.352 133.66L611.652 153.07C611.672 153.13 611.682 153.21 611.682 153.31C611.682 153.53 611.622 153.7 611.502 153.82C611.402 153.94 611.262 154 611.082 154H609.552C609.112 154 608.862 153.78 608.802 153.34L608.022 149.23H598.182L595.602 153.49C595.502 153.65 595.372 153.78 595.212 153.88C595.072 153.96 594.912 154 594.732 154H593.112ZM607.722 146.65L605.922 136L599.592 146.65H607.722ZM615.338 154C615.138 154 614.978 153.94 614.858 153.82C614.758 153.68 614.728 153.51 614.768 153.31L618.968 133.69C619.008 133.49 619.098 133.33 619.238 133.21C619.398 133.07 619.578 133 619.778 133H621.398C621.598 133 621.758 133.06 621.878 133.18C621.958 133.28 621.998 133.4 621.998 133.54C621.998 133.58 621.988 133.63 621.968 133.69L617.768 153.31C617.728 153.51 617.628 153.68 617.468 153.82C617.328 153.94 617.158 154 616.958 154H615.338ZM629.81 154.3C628.25 154.3 626.93 154.08 625.85 153.64C624.77 153.2 623.96 152.61 623.42 151.87C622.88 151.11 622.61 150.27 622.61 149.35C622.61 149.07 622.62 148.86 622.64 148.72C622.66 148.54 622.73 148.39 622.85 148.27C622.97 148.15 623.12 148.09 623.3 148.09H624.95C625.31 148.09 625.53 148.29 625.61 148.69C625.61 149.51 625.97 150.23 626.69 150.85C627.41 151.45 628.49 151.75 629.93 151.75C631.61 151.75 632.95 151.45 633.95 150.85C634.95 150.25 635.56 149.43 635.78 148.39C635.82 148.25 635.84 148.05 635.84 147.79C635.84 147.27 635.65 146.83 635.27 146.47C634.91 146.11 634.38 145.79 633.68 145.51C632.98 145.23 631.95 144.87 630.59 144.43C628.77 143.87 627.44 143.22 626.6 142.48C625.76 141.72 625.34 140.73 625.34 139.51C625.34 138.99 625.39 138.52 625.49 138.1C625.85 136.46 626.74 135.15 628.16 134.17C629.58 133.19 631.42 132.7 633.68 132.7C635.08 132.7 636.28 132.94 637.28 133.42C638.3 133.9 639.07 134.51 639.59 135.25C640.11 135.99 640.37 136.75 640.37 137.53C640.37 137.65 640.35 137.85 640.31 138.13C640.23 138.53 640.01 138.73 639.65 138.73H637.94C637.54 138.73 637.33 138.54 637.31 138.16C637.37 137.32 637.04 136.63 636.32 136.09C635.62 135.53 634.7 135.25 633.56 135.25C632.2 135.25 631.05 135.51 630.11 136.03C629.19 136.55 628.62 137.32 628.4 138.34C628.34 138.58 628.31 138.81 628.31 139.03C628.31 139.77 628.66 140.37 629.36 140.83C630.08 141.27 631.34 141.76 633.14 142.3C635.16 142.9 636.62 143.58 637.52 144.34C638.44 145.08 638.9 146.07 638.9 147.31C638.9 147.63 638.85 148.06 638.75 148.6C638.35 150.46 637.38 151.88 635.84 152.86C634.32 153.82 632.31 154.3 629.81 154.3Z" fill="black" fill-opacity="0.7"></path></svg> 