<?xml version="1.0" encoding="UTF-8"?> <!-- Generator: Adobe Illustrator 24.3.0, SVG Export Plug-In . SVG Version: 6.00 Build 0) --> <svg xmlns="http://www.w3.org/2000/svg" xmlns:xlink="http://www.w3.org/1999/xlink" version="1.1" id="Layer_1" x="0px" y="0px" viewBox="0 0 950 520" style="enable-background:new 0 0 950 520;" xml:space="preserve"> <style type="text/css"> .st0{fill:#000E40;} </style> <g> <path class="st0" d="M179.6,320c12.8-13.8,19.2-33.8,19.2-60c0-26.2-6.4-46.2-19.2-60c-12.8-13.8-30.9-20.7-54.5-20.7H79.8v161.4 h45.4C148.7,340.7,166.8,333.8,179.6,320 M191.2,154.9c18,9.8,31.7,23.6,40.9,41.5c9.2,17.9,13.8,39.1,13.8,63.6 c0,24.4-4.6,45.6-13.8,63.6c-9.2,17.9-22.8,31.8-40.9,41.5c-18,9.8-39.8,14.6-65.4,14.6H34.4V140.3h91.5 C151.4,140.3,173.2,145.2,191.2,154.9"></path> <path class="st0" d="M382.6,340.7H428V179.3h-45.4c-23.5,0-41.7,6.9-54.5,20.7c-12.8,13.8-19.2,33.8-19.2,60 c0,26.2,6.4,46.2,19.2,60C340.9,333.8,359.1,340.7,382.6,340.7 M381.9,140.3h91.5v239.4h-91.5c-25.6,0-47.4-4.9-65.4-14.6 c-18-9.8-31.7-23.6-40.9-41.5c-9.2-17.9-13.8-39.1-13.8-63.5c0-24.4,4.6-45.6,13.8-63.6c9.2-17.9,22.8-31.8,40.9-41.5 c14.1-7.6,30.4-12.2,49.1-13.9C370.9,140.5,376.3,140.3,381.9,140.3"></path> <path class="st0" d="M824.9,340.7h45.4V179.3h-45.4c-23.5,0-41.7,6.9-54.5,20.7c-12.8,13.8-19.2,33.8-19.2,60 c0,26.2,6.4,46.2,19.2,60C783.2,333.8,801.3,340.7,824.9,340.7 M824.2,140.3h91.5v239.4h-91.5c-25.6,0-47.4-4.9-65.4-14.6 c-18-9.8-31.7-23.6-40.9-41.5c-9.2-17.9-13.8-39.1-13.8-63.5c0-24.4,4.6-45.6,13.8-63.6c9.2-17.9,22.8-31.8,40.9-41.5 C776.8,145.2,798.6,140.3,824.2,140.3"></path> <path class="st0" d="M605.8,323.6c9.2-17.9,13.8-39.1,13.8-63.5c0-26.2,6.4-46.2,19.2-60c12.8-13.8,30.9-20.7,54.5-20.7h8.6v-39 h-9.2c-25.6,0-47.4,4.9-65.4,14.6c-18,9.8-31.7,23.6-40.9,41.5c-9.2,17.9-13.8,39.1-13.8,63.6c0,26.2-6.4,46.2-19.2,60 c-12.8,13.8-30.9,20.7-54.5,20.7h-8.6v39h9.2c25.6,0,47.4-4.9,65.4-14.6C583,355.3,596.6,341.5,605.8,323.6"></path> </g> </svg> 