
<svg xmlns="http://www.w3.org/2000/svg" xmlns:xlink="http://www.w3.org/1999/xlink" preserveAspectRatio="xMidYMid meet" version="1.0" viewBox="5.1 10.1 89.9 79.8" width="200" height="200" zoomAndPan="magnify" style="fill: rgb(243, 242, 242);" original_string_length="3096">
  <g id="__id6_sd6uuwp27u">
    <path d="m83.529,67.092h-.211v-.488c0-2.134-1.5-3.918-3.5-4.37v-9.109c2-.452,3.5-2.236,3.5-4.371v-1.488c0-.552-.447-1-1-1h-1.371c.342-.588.552-1.262.552-1.99,0-2.2-1.79-3.99-3.99-3.99h-1.146v-11.201l5.326-1.501,4.065,1.145c1.075.303,1.826,1.294,1.826,2.411v3.475c-2.006.089-3.614,1.736-3.614,3.763,0,2.084,1.696,3.779,3.78,3.779h1.669c2.084,0,3.779-1.695,3.779-3.779,0-2.027-1.608-3.674-3.614-3.763v-3.475c0-2.008-1.351-3.792-3.283-4.336l-.921-.259,7.959-2.243c.431-.122.729-.515.729-.962s-.298-.841-.729-.962l-43.503-12.258c-.177-.05-.365-.05-.542,0L5.788,22.378c-.431.121-.729.515-.729.962s.298.841.729.962l16.971,4.782v11.201h-1.145c-2.2,0-3.99,1.79-3.99,3.99,0,.741.216,1.427.57,2.023-5.995.334-10.774,5.303-10.774,11.381,0,6.293,5.12,11.413,11.413,11.413h.21v.488c0,2.134,1.5,3.918,3.5,4.37v9.11c-2,.452-3.5,2.236-3.5,4.37v1.487c0,.552.448,1,1,1h63.487c6.293,0,11.412-5.12,11.412-11.413s-5.119-11.413-11.412-11.413Zm7.666-28.713c0,.981-.798,1.779-1.779,1.779h-1.669c-.981,0-1.78-.798-1.78-1.779s.799-1.78,1.78-1.78h1.669c.981,0,1.779.798,1.779,1.78ZM18.832,62.116c-2.447,0-4.437-1.99-4.437-4.437s1.99-4.437,4.437-4.437h58.986v8.874H18.832ZM49.562,12.122l39.815,11.219-7.687,2.166-20.621-5.811c-.53-.151-1.083.16-1.234.691-.149.531.16,1.083.691,1.233l17.477,4.925-28.442,8.014L9.746,23.341l39.816-11.219Zm-24.803,17.527l24.532,6.913c.088.025.18.038.271.038s.183-.013.271-.038l24.532-6.912v10.637H24.758v-10.637Zm-3.145,12.637h55.896c1.098,0,1.99.893,1.99,1.99s-.893,1.99-1.99,1.99H21.613c-1.098,0-1.99-.893-1.99-1.99s.893-1.99,1.99-1.99Zm-12.194,15.393c0-5.19,4.223-9.413,9.413-9.413h62.486v.488c0,1.372-1.116,2.488-2.487,2.488H18.832c-3.549,0-6.437,2.888-6.437,6.437s2.888,6.437,6.437,6.437h59.999c1.371,0,2.487,1.116,2.487,2.488v.488H18.832c-5.19,0-9.413-4.223-9.413-9.413Zm74.109,16.389c2.447,0,4.438,1.99,4.438,4.437s-1.99,4.438-4.438,4.438H24.542v-8.875h58.986Zm0,13.85H21.042v-.487c0-1.372,1.116-2.488,2.488-2.488h59.999c3.55,0,6.438-2.888,6.438-6.438s-2.888-6.437-6.438-6.437H23.53c-1.372,0-2.488-1.116-2.488-2.488v-.488h62.487c5.189,0,9.412,4.223,9.412,9.413s-4.223,9.413-9.412,9.413Z" style="fill: inherit;"/>
    <path d="m27.702,80.828h15.115c.552,0,1-.448,1-1s-.448-1-1-1h-15.115c-.552,0-1,.448-1,1s.448,1,1,1Z" style="fill: inherit;"/>
    <path d="m41.137,77.667h15.115c.553,0,1-.448,1-1s-.447-1-1-1h-15.115c-.552,0-1,.448-1,1s.448,1,1,1Z" style="fill: inherit;"/>
    <path d="m59.549,77.667h6.352c.553,0,1-.448,1-1s-.447-1-1-1h-6.352c-.553,0-1,.448-1,1s.447,1,1,1Z" style="fill: inherit;"/>
    <path d="m74.694,58.26h-15.114c-.553,0-1,.448-1,1s.447,1,1,1h15.114c.553,0,1-.448,1-1s-.447-1-1-1Z" style="fill: inherit;"/>
    <path d="m62.26,56.099c0-.552-.447-1-1-1h-15.114c-.552,0-1,.448-1,1s.448,1,1,1h15.114c.553,0,1-.448,1-1Z" style="fill: inherit;"/>
    <path d="m42.848,55.099h-6.352c-.552,0-1,.448-1,1s.448,1,1,1h6.352c.552,0,1-.448,1-1s-.448-1-1-1Z" style="fill: inherit;"/>
  </g>
</svg>